<?xml version="1.0" encoding="iso-8859-1"?>
<!-- Generator: Adobe Illustrator 19.0.0, SVG Export Plug-In . SVG Version: 6.00 Build 0)  -->
<svg version="1.1" id="Capa_1" xmlns="http://www.w3.org/2000/svg" xmlns:xlink="http://www.w3.org/1999/xlink" x="0px" y="0px"
	 viewBox="0 0 512 512" style="enable-background:new 0 0 512 512;" xml:space="preserve">
<g>
	<g>
		<path d="M481.937,308.513c-8.704-2.741-9.265-3.31-11.991-12.168c-1.269-4.094-4.993-6.845-9.269-6.845
			c-4.287,0-8.014,2.759-9.27,6.859c-2.721,8.843-3.281,9.41-11.985,12.151c-4.066,1.278-6.799,5.008-6.799,9.282
			c0,4.275,2.732,8.006,6.793,9.282c8.709,2.744,9.27,3.311,11.987,12.144c1.258,4.109,4.985,6.871,9.274,6.871
			c4.277,0,8.003-2.753,9.272-6.859c2.724-8.845,3.283-9.412,11.98-12.153c4.067-1.276,6.8-5.008,6.8-9.284
			C488.73,313.518,485.998,309.787,481.937,308.513z M460.679,323.217c-1.489-2.182-3.233-3.928-5.413-5.422
			c2.181-1.494,3.924-3.24,5.413-5.423c1.489,2.182,3.232,3.928,5.412,5.422C463.911,319.288,462.167,321.035,460.679,323.217z"/>
	</g>
</g>
<g>
	<g>
		<path d="M425.38,259.819c-13.116-4.131-14.508-5.54-18.609-18.866c-1.384-4.458-5.439-7.453-10.091-7.453
			c-4.667,0-8.725,3.005-10.094,7.471c-4.095,13.307-5.486,14.716-18.605,18.847c-4.429,1.393-7.404,5.457-7.404,10.116
			c-0.001,4.659,2.975,8.724,7.399,10.115c13.122,4.135,14.514,5.544,18.605,18.837c1.37,4.478,5.428,7.485,10.098,7.485
			c4.654,0,8.71-2.998,10.096-7.473c4.098-13.308,5.489-14.717,18.599-18.848c4.429-1.391,7.404-5.456,7.404-10.117
			C432.778,265.273,429.802,261.207,425.38,259.819z M396.68,283.25c-3.115-6.329-6.957-10.178-13.278-13.315
			c6.322-3.136,10.163-6.983,13.278-13.315c3.115,6.331,6.955,10.179,13.275,13.315C403.635,273.072,399.795,276.919,396.68,283.25z
			"/>
	</g>
</g>
<g>
	<g>
		<path d="M163.947,412.085c-39.156,0-68.684,15.304-68.684,35.597c0,20.294,29.527,35.598,68.684,35.598
			c39.156,0,68.684-15.304,68.684-35.598C232.631,427.389,203.103,412.085,163.947,412.085z M163.947,468.279
			c-32.771,0-53.684-12.199-53.684-20.598c0-8.398,20.913-20.597,53.684-20.597s53.684,12.198,53.684,20.597
			S196.718,468.279,163.947,468.279z"/>
	</g>
</g>
<g>
	<g>
		<path d="M135.834,197.726c-4.143,0-7.5,3.357-7.5,7.5v8.493c0,4.143,3.357,7.5,7.5,7.5s7.5-3.358,7.5-7.5v-8.493
			C143.334,201.083,139.977,197.726,135.834,197.726z"/>
	</g>
</g>
<g>
	<g>
		<path d="M192.061,197.726c-4.143,0-7.5,3.357-7.5,7.5v8.493c0,4.142,3.357,7.5,7.5,7.5s7.5-3.357,7.5-7.5v-8.493
			C199.561,201.083,196.204,197.726,192.061,197.726z"/>
	</g>
</g>
<g>
	<g>
		<path d="M182.166,237.015c-4.024-0.972-8.078,1.507-9.049,5.533c-1.022,4.238-4.793,7.199-9.17,7.199
			c-4.375,0-8.146-2.961-9.171-7.201c-0.974-4.026-5.025-6.506-9.052-5.528c-4.026,0.974-6.502,5.026-5.528,9.052
			c2.658,10.997,12.425,18.678,23.751,18.678c11.332,0,21.099-7.683,23.752-18.684C188.67,242.038,186.193,237.986,182.166,237.015z
			"/>
	</g>
</g>
<g>
	<g>
		<path d="M365.001,417.406h-70.026c-4.143,0-7.5,3.357-7.5,7.5c0,4.142,3.357,7.5,7.5,7.5h70.026c4.143,0,7.5-3.358,7.5-7.5
			C372.501,420.764,369.144,417.406,365.001,417.406z"/>
	</g>
</g>
<g>
	<g>
		<path d="M440.511,363.4c0.001-14.111-11.345-25.591-25.291-25.591H304.282c-2.486-18.967-18.743-33.662-38.378-33.662h-73.228
			v-6.081c15.222-3.241,28.739-11.119,39.017-22.078h42.144c7.578,0,13.744-6.166,13.744-13.744V213c0-4.143-3.357-7.5-7.5-7.5
			s-7.5,3.357-7.5,7.5v47.987h-29.943c5.953-10.739,9.355-23.081,9.355-36.206v-31.648c2.908-1.033,4.994-3.801,4.994-7.063
			c0-4.143-3.358-7.5-7.5-7.5c-2.228,0-4.428-0.039-6.608-0.107c-0.246-0.007-0.489-0.019-0.734-0.026
			c-33.931-1.185-62.178-10.666-84.036-28.239c-17.438-14.019-24.104-28.272-24.156-28.388c-1.237-2.756-3.995-4.45-6.976-4.402
			c-0.433-0.028-0.871-0.028-1.313,0.02c-3.234,0.356-5.87,2.759-6.524,5.947c-0.08,0.387-8.267,38.723-36.698,42.409
			c-0.267,0.035-0.527,0.086-0.784,0.148c-1.056,0.097-2.137,0.151-3.247,0.151c-4.143,0-7.5,3.357-7.5,7.5
			c0,3.263,2.087,6.031,4.996,7.063v44.136c0,13.125,3.402,25.467,9.355,36.206H55.314V128.629c0-31.67,25.766-57.436,57.436-57.436
			h102.396c31.669,0,57.434,25.766,57.434,57.436v44.375c0,4.143,3.357,7.5,7.5,7.5s7.5-3.357,7.5-7.5v-44.375
			c0-36.548-27.212-66.842-62.436-71.73V33.723c0-7.577-6.166-13.742-13.744-13.742h-11.054C196.174,8.227,184.971,0,172.012,0
			h-16.129c-12.959,0-24.162,8.227-28.335,19.98h-11.052c-7.578,0-13.744,6.165-13.744,13.742v23.177
			c-35.225,4.888-62.438,35.182-62.438,71.73v133.614c0,7.578,6.166,13.744,13.744,13.744h42.145
			c10.277,10.958,23.794,18.837,39.016,22.077v6.082H61.99c-21.35,0-38.719,17.369-38.719,38.719V499.5
			c0,6.893,5.607,12.5,12.5,12.5h390.88c7.643,0,13.86-6.267,13.86-13.969v-40.127c0-2.334-0.578-4.533-1.587-6.469
			c1.009-1.935,1.587-4.135,1.587-6.469v-40.125c0-4.01-1.694-7.62-4.39-10.17c2.768-4.104,4.39-9.058,4.39-14.389V363.4z
			 M117.752,34.98h15.709c3.81,0,7.016-2.857,7.451-6.644C141.786,20.733,148.223,15,155.883,15h16.129
			c7.66,0,14.097,5.733,14.971,13.337c0.436,3.786,3.641,6.644,7.451,6.644h15.711v21.213h-92.393V34.98z M415.22,352.809
			c5.675,0,10.292,4.751,10.292,10.591v16.883c0,5.839-4.617,10.59-10.292,10.59H278.809h-10.293v-11.531h130.538
			c4.143,0,7.5-3.357,7.5-7.5s-3.357-7.5-7.5-7.5H268.516v-11.533H415.22z M404.001,432.406h21.511v11.529H278.809
			c-5.676,0-10.293-4.751-10.293-10.59v-16.883c0-5.839,4.617-10.59,10.293-10.59H415.22h10.292v11.533h-21.511
			c-4.143,0-7.5,3.357-7.5,7.5C396.501,429.049,399.858,432.406,404.001,432.406z M90.904,224.781v-45.283
			c13.145-3.415,24.336-12.355,32.795-26.395c2.151-3.57,3.909-7.127,5.347-10.435c4.162,5.335,9.846,11.587,17.375,17.858
			c16.537,13.771,45.431,30.241,90.571,32.722v31.532c0,33.047-26.886,59.933-59.934,59.933h-26.223
			C117.789,284.714,90.904,257.828,90.904,224.781z M177.676,299.698v27.47c0,1.355-1.145,2.5-2.5,2.5h-22.457
			c-1.355,0-2.5-1.145-2.5-2.5v-27.47c0.206,0.002,0.41,0.016,0.617,0.016h26.223C177.266,299.714,177.47,299.7,177.676,299.698z
			 M60.842,360.887c-4.143,0-7.5,3.357-7.5,7.5V497h-15.07V342.865c0-13.078,10.641-23.719,23.719-23.719h20.781v59.965h-14.43
			v-10.725C68.342,364.244,64.984,360.887,60.842,360.887z M255.792,497H68.342V394.111h16.93c6.893,0,12.5-5.607,12.5-12.5v-62.465
			h14v62.465c0,6.893,5.607,12.5,12.5,12.5h14.729c4.143,0,7.5-3.357,7.5-7.5c0-4.142-3.357-7.5-7.5-7.5h-12.229v-59.965h8.447
			v8.021c0,9.649,7.851,17.5,17.5,17.5h22.457c9.649,0,17.5-7.851,17.5-17.5v-8.021h8.447v59.965h-22.122
			c-4.143,0-7.5,3.358-7.5,7.5c0,4.143,3.357,7.5,7.5,7.5h24.622c6.893,0,12.5-5.607,12.5-12.5v-62.465h14v62.465
			c0,6.893,5.607,12.5,12.5,12.5h11.083c0.494,3.119,2.01,5.893,4.199,7.963c-2.768,4.104-4.39,9.058-4.39,14.389v16.883
			c0,6.315,2.277,12.1,6.039,16.567v3.045h0.001c-3.762,4.468-6.039,10.252-6.039,16.567v16.885
			C253.516,490.186,254.335,493.77,255.792,497z M253.516,351.777v27.334h-8.393v-59.965h20.781
			c11.343,0,20.847,8.006,23.171,18.662h-21.699C259.733,337.809,253.516,344.075,253.516,351.777z M425.512,470.468H294.975
			c-4.143,0-7.5,3.357-7.5,7.5c0,4.142,3.357,7.5,7.5,7.5h130.537V497H278.809c-5.676,0-10.293-4.751-10.293-10.59v-16.885
			c0-5.839,4.617-10.59,10.293-10.59h146.703V470.468z"/>
	</g>
</g>
<g>
</g>
<g>
</g>
<g>
</g>
<g>
</g>
<g>
</g>
<g>
</g>
<g>
</g>
<g>
</g>
<g>
</g>
<g>
</g>
<g>
</g>
<g>
</g>
<g>
</g>
<g>
</g>
<g>
</g>
</svg>
