<?xml version="1.0" encoding="iso-8859-1"?>
<!-- Generator: Adobe Illustrator 19.0.0, SVG Export Plug-In . SVG Version: 6.00 Build 0)  -->
<svg version="1.1" id="Capa_1" xmlns="http://www.w3.org/2000/svg" xmlns:xlink="http://www.w3.org/1999/xlink" x="0px" y="0px"
	 viewBox="0 0 512 512" style="enable-background:new 0 0 512 512;" xml:space="preserve">
<g>
	<g>
		<path d="M382.716,188.003l-18.708-32.247c-2.146-3.701-6.141-6.001-10.427-6.001c-4.284,0-8.28,2.296-10.43,5.997l-18.714,32.249
			c-5.122,6.48-7.935,14.561-7.935,22.826c0,20.36,16.634,36.924,37.08,36.924c20.44,0,37.07-16.564,37.07-36.924
			C390.652,202.567,387.838,194.488,382.716,188.003z M353.582,232.75c-12.175,0-22.08-9.835-22.08-21.924
			c0-5.022,1.754-9.93,4.939-13.817c0.255-0.311,0.483-0.642,0.685-0.988l16.453-28.352l16.447,28.351
			c0.201,0.347,0.43,0.677,0.684,0.986c3.188,3.895,4.942,8.803,4.942,13.82C375.652,222.915,365.752,232.75,353.582,232.75z"/>
	</g>
</g>
<g>
	<g>
		<path d="M499.5,282.396h-51.219c-6.893,0-12.5,5.608-12.5,12.5v9.551l-108.758-13.943c-4.684-0.598-9.27,0.688-12.919,3.625
			c-3.649,2.938-5.889,7.143-6.303,11.845l-2.059,23.33c-0.813,9.204,5.593,18.092,14.583,20.232l12.672,3.016H229.474
			c-9.649,0-17.5,7.851-17.5,17.5v9.268c-6.672,2.47-11.449,8.879-11.449,16.398v11.166c-7.33,2.087-12.721,8.829-12.721,16.82
			v23.25c0,9.65,7.851,17.5,17.5,17.5h46.697c4.142,0,7.501-3.357,7.501-7.5c0-4.142-3.358-7.5-7.501-7.5h-46.697
			c-1.355,0-2.5-1.145-2.5-2.5v-23.25c0-1.355,1.145-2.5,2.5-2.5h188.622c4.891,0,9.367-2.058,12.282-5.646s4.012-8.392,3.01-13.178
			l-7.352-35.126c-1.724-8.234-9.195-15.914-17.381-17.863l-60.685-14.447c-1.729-0.412-3.272-2.553-3.116-4.322l2.059-23.33
			c0.067-0.767,0.454-1.227,0.766-1.478c0.313-0.251,0.846-0.528,1.607-0.432l110.665,14.188v129.884h-143.78
			c-4.143,0-7.5,3.358-7.5,7.5c0,4.143,3.357,7.5,7.5,7.5h143.78v5.723c0,6.893,5.607,12.5,12.5,12.5H499.5
			c6.893,0,12.5-5.607,12.5-12.5V294.896C512,288.004,506.393,282.396,499.5,282.396z M394.538,405.452
			c0.082,0.399,0.037,0.622,0.045,0.63c-0.041,0.032-0.249,0.122-0.656,0.122H215.526v-10.486c0-1.355,1.145-2.5,2.5-2.5h173.952
			L394.538,405.452z M385.805,367.552c0.686,0.913,1.194,1.885,1.381,2.775l1.651,7.891H226.974v-8.166c0-1.355,1.145-2.5,2.5-2.5
			H385.805z M497,467.676h-46.219v-170.28H497V467.676z"/>
	</g>
</g>
<g>
	<g>
		<path d="M348.1,85.225l-52.247-52.248c-2.357-2.356-5.496-3.654-8.839-3.654c-3.342,0-6.48,1.297-8.84,3.654l-7.469,7.469
			c-2.356,2.357-3.654,5.496-3.654,8.839c0,3.343,1.298,6.481,3.654,8.839l3.955,3.955l-12.092,12.092l-3.955-3.955
			c-2.357-2.356-5.496-3.654-8.838-3.654c-3.342,0-6.481,1.298-8.839,3.655l-7.444,7.443l-3.957-3.956
			c-2.357-2.356-5.496-3.654-8.838-3.654s-6.481,1.298-8.839,3.654l-15.587,15.588l-23.417-23.417
			c-3.368-3.368-7.857-5.224-12.64-5.224c-4.783,0-9.271,1.855-12.639,5.223L5.226,208.223c-6.969,6.971-6.968,18.312,0.001,25.28
			l123.156,123.158c3.486,3.483,8.062,5.226,12.639,5.225c4.578,0,9.157-1.743,12.64-5.228l76.391-76.394
			c2.931-2.928,2.931-7.676,0.002-10.606c-2.929-2.928-7.678-2.928-10.606,0l-76.393,76.396c-1.102,1.101-2.965,1.101-4.066,0
			L15.834,222.896c-1.103-1.103-1.103-2.965-0.001-4.066l117.236-117.237l16.67,16.67c-6.583,2.103-12.619,5.751-17.647,10.778
			l-86.821,86.821c-2.361,2.361-3.661,5.5-3.661,8.839s1.3,6.478,3.661,8.839l83.074,83.074c2.361,2.36,5.501,3.661,8.839,3.661
			c3.339,0,6.477-1.301,8.839-3.661l86.822-86.82c5.025-5.025,8.67-11.064,10.769-17.655l16.677,16.678L247.7,241.409
			c-2.929,2.93-2.929,7.678,0,10.607c1.464,1.464,3.384,2.196,5.303,2.196c1.919,0,3.839-0.732,5.303-2.196l37.703-37.704
			c6.969-6.967,6.971-18.307,0.002-25.281l-23.417-23.417l15.587-15.587c4.873-4.874,4.873-12.804,0-17.678l-3.955-3.955
			l7.444-7.445c2.356-2.357,3.654-5.496,3.654-8.839c0-3.343-1.298-6.481-3.654-8.839l-3.955-3.955l12.092-12.091l23.146,23.146
			c2.357,2.356,5.496,3.654,8.839,3.654s6.481-1.298,8.839-3.654l7.469-7.469c2.356-2.357,3.654-5.496,3.654-8.839
			S350.456,87.582,348.1,85.225z M222.239,219.187l-85.054,85.053l-79.539-79.538l85.054-85.053
			c5.464-5.464,12.728-8.473,20.453-8.473c7.725,0,14.989,3.009,20.453,8.472l38.635,38.634
			C233.516,189.558,233.516,207.91,222.239,219.187z M261.987,155.007l-17.679-17.68c-2.929-2.928-7.678-2.928-10.606,0
			c-2.929,2.93-2.929,7.678,0,10.607l51.701,51.701c1.103,1.104,1.104,2.967,0.001,4.068l-14.506,14.507l-25.637-25.638
			c-1.309-9.403-5.598-18.08-12.416-24.899l-38.635-38.634c-6.83-6.828-15.513-11.125-24.913-12.433l-25.621-25.622l14.505-14.505
			c0.721-0.722,1.583-0.829,2.032-0.829c0.45,0,1.312,0.107,2.033,0.83l45.785,45.785c2.928,2.927,7.677,2.929,10.607,0
			c2.929-2.93,2.929-7.678,0-10.607l-11.76-11.761l13.819-13.819l55.109,55.11L261.987,155.007z M273.618,117.788l-29.52-29.521
			l5.676-5.677l29.521,29.521L273.618,117.788z M277.109,88.711l-3.934-3.933l12.092-12.092l3.933,3.933L277.109,88.711z
			 M331.791,97.997l-48.712-48.712l3.933-3.933l48.712,48.712L331.791,97.997z"/>
	</g>
</g>
<g>
	<g>
		<path d="M189.064,199.606l8.171-8.173c2.358-2.358,3.656-5.498,3.656-8.841c0-3.343-1.298-6.482-3.655-8.838l-9.104-9.104
			c-2.357-2.357-5.496-3.654-8.838-3.654c-3.343,0-6.482,1.298-8.839,3.654l-8.173,8.172l-8.173-8.174
			c-2.357-2.356-5.496-3.654-8.838-3.654c-3.343,0-6.481,1.298-8.839,3.655l-9.103,9.105c-4.873,4.874-4.873,12.804-0.001,17.677
			l8.172,8.174l-8.172,8.173c-2.357,2.358-3.655,5.497-3.655,8.84c0,3.342,1.298,6.48,3.656,8.838l9.103,9.102
			c2.357,2.356,5.496,3.654,8.839,3.654c3.342,0,6.481-1.298,8.838-3.654l8.172-8.171l8.173,8.173
			c2.357,2.356,5.496,3.654,8.839,3.654c3.342,0,6.481-1.298,8.839-3.655l9.103-9.104c2.357-2.356,3.656-5.496,3.656-8.839
			s-1.298-6.482-3.655-8.839L189.064,199.606z M176.689,208.443l8.172,8.171l-5.568,5.569l-8.173-8.172
			c-2.357-2.356-5.496-3.654-8.839-3.654c-3.343,0-6.482,1.298-8.838,3.654l-8.172,8.171l-5.568-5.567l8.17-8.172
			c2.357-2.356,3.656-5.496,3.656-8.839c0.001-3.343-1.298-6.482-3.654-8.838l-8.172-8.174l5.568-5.569l8.173,8.174
			c2.357,2.356,5.496,3.654,8.838,3.654c3.343,0,6.482-1.298,8.839-3.654l8.173-8.172l5.567,5.567l-8.171,8.173
			c-2.357,2.356-3.656,5.496-3.656,8.839C173.034,202.947,174.332,206.086,176.689,208.443z"/>
	</g>
</g>
<g>
	<g>
		<path d="M135.454,257.017l-30.585-30.587c-2.93-2.93-7.678-2.929-10.607-0.001c-2.929,2.929-2.929,7.678,0,10.606l30.585,30.588
			c1.465,1.465,3.384,2.197,5.304,2.197c1.919,0,3.839-0.732,5.303-2.196C138.383,264.695,138.383,259.946,135.454,257.017z"/>
	</g>
</g>
<g>
</g>
<g>
</g>
<g>
</g>
<g>
</g>
<g>
</g>
<g>
</g>
<g>
</g>
<g>
</g>
<g>
</g>
<g>
</g>
<g>
</g>
<g>
</g>
<g>
</g>
<g>
</g>
<g>
</g>
</svg>
