<?xml version="1.0" encoding="iso-8859-1"?>
<!-- Generator: Adobe Illustrator 19.0.0, SVG Export Plug-In . SVG Version: 6.00 Build 0)  -->
<svg version="1.1" id="Capa_1" xmlns="http://www.w3.org/2000/svg" xmlns:xlink="http://www.w3.org/1999/xlink" x="0px" y="0px"
	 viewBox="0 0 512.001 512.001" style="enable-background:new 0 0 512.001 512.001;" xml:space="preserve">
<g>
	<g>
		<path d="M179.366,203.726c-2.725-0.133-5.49-0.2-8.219-0.2c-45.354,0-87.804,17.947-119.531,50.536
			c-2.889,2.968-2.826,7.716,0.142,10.605c1.458,1.419,3.345,2.126,5.231,2.126c1.953,0,3.904-0.759,5.375-2.269
			c28.878-29.663,67.512-45.999,108.783-45.999c2.487,0,5.006,0.062,7.488,0.183c4.111,0.203,7.655-2.988,7.857-7.126
			C186.694,207.445,183.504,203.928,179.366,203.726z"/>
	</g>
</g>
<g>
	<g>
		<path d="M492.708,322.6L380.814,210.7c-2.929-2.93-7.678-2.929-10.606-0.001c-2.929,2.929-2.929,7.678,0,10.606l110.126,110.133
			L364.315,447.46l-30.916-30.917l17.782-17.878l1.898,9.035c0.743,3.534,3.859,5.96,7.332,5.96c0.511,0,1.03-0.053,1.55-0.162
			c4.054-0.852,6.65-4.828,5.798-8.882l-3.928-18.669l22.088-22.207c6.823-6.866,6.823-18.036-0.001-24.899l-3.126-3.145
			c-2.017-2.028-4.444-3.503-7.097-4.346c5.506-6.911,5.073-17.053-1.292-23.443l-3.132-3.152c-3.313-3.329-7.73-5.163-12.439-5.163
			c-0.001,0-0.002,0-0.003,0c-0.153,0-0.305,0.002-0.458,0.006c0.131-4.674-1.574-9.391-5.114-12.949l-3.131-3.15
			c-3.312-3.33-7.73-5.164-12.439-5.164h-0.001c-2.683,0-5.272,0.596-7.615,1.724c-0.754-2.944-2.276-5.729-4.564-8.029
			l-3.129-3.147c-3.312-3.329-7.73-5.162-12.438-5.163c-0.001,0-0.002,0-0.004,0c-4.707,0-9.125,1.832-12.441,5.162l-51.739,52.021
			c-0.743-12.404-11.034-22.268-23.576-22.268c-2.046,0-4.033,0.264-5.928,0.757l-20.553-20.554l116.018-116.024l31.487,31.488
			c2.929,2.928,7.678,2.928,10.606,0c2.929-2.93,2.929-7.678,0-10.606l-33.255-33.257c-4.874-4.874-12.803-4.871-17.678,0.001
			l-27.584,27.586c-31.606-17.17-67.172-26.299-104.147-26.299c-65.938,0-127.702,29.324-169.455,80.453
			c-2.62,3.209-2.143,7.934,1.065,10.554c3.208,2.618,7.934,2.143,10.553-1.065c38.893-47.626,96.422-74.941,157.837-74.941
			c33.466,0,65.059,8.139,92.942,22.504l-27.621,27.623c-6.591-2.816-13.412-5.232-20.446-7.199
			c-3.99-1.121-8.127,1.213-9.242,5.204c-1.115,3.989,1.215,8.127,5.204,9.242c4.414,1.233,8.726,2.681,12.951,4.286L183.325,270
			c-2.357,2.357-3.656,5.496-3.656,8.839c0,3.343,1.298,6.482,3.655,8.838l20.179,20.181c-3.093,4.009-4.94,9.032-4.94,14.483
			v46.007l-7.532,7.573c-6.823,6.866-6.822,18.035,0.002,24.899l66.562,66.922c3.314,3.331,7.731,5.166,12.441,5.166
			c4.709-0.001,9.127-1.835,12.439-5.166l14.374-14.451c2.921-2.937,2.908-7.686-0.028-10.606c-2.937-2.923-7.686-2.91-10.607,0.028
			l-14.374,14.452c-0.643,0.646-1.407,0.742-1.804,0.743c-0.398,0-1.162-0.097-1.806-0.744l-66.562-66.921
			c-1.009-1.015-1.009-2.731-0.001-3.745l9.712-9.766c1.398-1.405,2.182-3.307,2.182-5.289V322.34c0-4.8,3.865-8.705,8.616-8.705
			c4.752,0,8.619,3.905,8.619,8.705v16.695c0,3.037,1.832,5.774,4.639,6.933c2.807,1.158,6.036,0.509,8.179-1.644l64.51-64.862
			c0.645-0.647,1.41-0.743,1.81-0.743c0.399,0,1.165,0.097,1.806,0.741l3.127,3.145c1.01,1.016,1.01,2.732,0.001,3.747
			l-49.488,49.754c-2.91,2.925-2.91,7.65-0.001,10.576l3.769,3.791c1.407,1.416,3.321,2.213,5.318,2.213s3.911-0.796,5.318-2.211
			l56.093-56.398c0.643-0.646,1.407-0.742,1.805-0.742c0.398,0,1.162,0.097,1.803,0.74l3.132,3.151c1.01,1.015,1.009,2.729,0,3.745
			l-56.095,56.397c-2.911,2.926-2.91,7.653,0,10.579l3.771,3.789c1.408,1.415,3.321,2.21,5.317,2.21c1.996,0,3.91-0.796,5.317-2.211
			l56.097-56.399c0.642-0.646,1.406-0.743,1.804-0.743s1.163,0.097,1.802,0.739l3.135,3.154c1.008,1.013,1.006,2.725-0.003,3.741
			l-56.095,56.398c-2.911,2.927-2.91,7.655,0.002,10.581l3.771,3.787c1.408,1.413,3.32,2.208,5.315,2.208h0.002
			c1.995,0,3.908-0.796,5.315-2.211l46.472-46.72c0.642-0.646,1.404-0.742,1.802-0.742s1.162,0.097,1.806,0.744l3.126,3.145
			c1.01,1.016,1.009,2.732,0.001,3.747l-65.195,65.547c-2.921,2.937-2.908,7.686,0.028,10.607c2.936,2.921,7.685,2.908,10.606-0.028
			l2.1-2.111l32.655,32.657c2.437,2.437,5.637,3.654,8.838,3.654s6.402-1.219,8.839-3.655l119.553-119.558
			c2.361-2.357,3.66-5.497,3.66-8.839C496.363,328.095,495.065,324.956,492.708,322.6z"/>
	</g>
</g>
<g>
	<g>
		<path d="M144.226,278.582c-11.97-3.767-13.239-5.053-16.976-17.18c-1.346-4.385-5.322-7.33-9.894-7.33
			c-4.578,0-8.555,2.95-9.89,7.323c-3.738,12.132-5.008,13.417-16.977,17.186c-4.341,1.364-7.257,5.346-7.257,9.907
			c0,4.571,2.921,8.556,7.253,9.909c11.972,3.77,13.242,5.056,16.976,17.174c1.34,4.389,5.317,7.337,9.896,7.337
			c4.573,0,8.549-2.944,9.893-7.319c3.739-12.138,5.009-13.423,16.965-17.187c4.345-1.359,7.265-5.343,7.265-9.914
			C151.477,283.927,148.562,279.945,144.226,278.582z M117.357,299.797c-2.736-5.168-6.116-8.554-11.278-11.306
			c5.16-2.751,8.54-6.137,11.277-11.306c2.735,5.169,6.115,8.554,11.275,11.305C123.472,291.241,120.092,294.628,117.357,299.797z"
			/>
	</g>
</g>
<g>
	<g>
		<path d="M207.852,47.122c-8.483-2.67-9.03-3.223-11.686-11.845c-1.26-4.08-4.971-6.821-9.232-6.821
			c-4.271,0-7.983,2.748-9.232,6.827c-2.653,8.615-3.199,9.168-11.679,11.837c-4.053,1.271-6.776,4.984-6.776,9.242
			c0,4.25,2.718,7.964,6.767,9.243c8.489,2.673,9.035,3.227,11.683,11.823c1.251,4.095,4.963,6.846,9.237,6.846
			c4.264,0,7.975-2.744,9.234-6.828c2.654-8.615,3.201-9.169,11.688-11.842c4.045-1.275,6.764-4.989,6.764-9.242
			C214.62,52.103,211.896,48.388,207.852,47.122z M186.936,61.44c-1.407-2.024-3.045-3.665-5.068-5.077
			c2.022-1.411,3.66-3.051,5.067-5.077c1.408,2.025,3.045,3.665,5.068,5.077C189.98,57.775,188.343,59.415,186.936,61.44z"/>
	</g>
</g>
<g>
	<g>
		<path d="M285.94,98.878c-11.239-3.536-12.272-4.582-15.786-15.991c-1.332-4.307-5.247-7.2-9.743-7.2
			c-4.509,0-8.425,2.902-9.742,7.209c-3.51,11.398-4.543,12.444-15.782,15.98c-4.276,1.343-7.149,5.265-7.149,9.76
			c0,4.488,2.868,8.409,7.142,9.759c11.245,3.539,12.277,4.585,15.783,15.965c1.319,4.322,5.237,7.227,9.748,7.227
			c4.498,0,8.414-2.896,9.745-7.208c3.513-11.399,4.545-12.445,15.787-15.984c4.271-1.346,7.14-5.268,7.14-9.759
			C293.083,104.139,290.209,100.216,285.94,98.878z M260.412,118.455c-2.437-4.374-5.428-7.37-9.796-9.819
			c4.369-2.449,7.358-5.443,9.796-9.818c2.437,4.374,5.426,7.369,9.794,9.818C265.838,111.085,262.849,114.081,260.412,118.455z"/>
	</g>
</g>
<g>
	<g>
		<path d="M504.501,380.156c-4.142,0-7.5,3.358-7.5,7.5c-0.001,44.603-36.287,80.889-80.888,80.889c-4.142,0-7.5,3.357-7.5,7.5
			s3.358,7.5,7.5,7.5c52.872,0,95.887-43.016,95.888-95.889C512.001,383.515,508.643,380.156,504.501,380.156z"/>
	</g>
</g>
<g>
	<g>
		<path d="M463.751,387.975c-4.142,0-7.5,3.357-7.5,7.5c0,17.822-14.5,32.322-32.323,32.322c-4.142,0-7.5,3.357-7.5,7.5
			s3.358,7.5,7.5,7.5c26.094,0,47.323-21.228,47.323-47.322C471.251,391.332,467.893,387.975,463.751,387.975z"/>
	</g>
</g>
<g>
	<g>
		<path d="M337.328,259.778l-2.467-11.743c-0.852-4.054-4.831-6.646-8.882-5.798c-4.054,0.852-6.649,4.828-5.798,8.882l2.467,11.743
			c0.743,3.534,3.859,5.96,7.332,5.96c0.511,0,1.03-0.053,1.55-0.162C335.584,267.808,338.179,263.832,337.328,259.778z"/>
	</g>
</g>
<g>
	<g>
		<path d="M373.434,431.624l-0.534-2.542c-0.852-4.055-4.829-6.654-8.882-5.798c-4.054,0.852-6.649,4.829-5.797,8.882l0.534,2.542
			c0.743,3.534,3.86,5.96,7.332,5.96c0.511,0,1.03-0.053,1.55-0.162C371.691,439.654,374.286,435.678,373.434,431.624z"/>
	</g>
</g>
<g>
	<g>
		<path d="M329.72,223.569l-2.467-11.744c-0.852-4.054-4.83-6.646-8.882-5.798c-4.054,0.852-6.649,4.828-5.798,8.882l2.467,11.744
			c0.743,3.534,3.859,5.96,7.333,5.96c0.511,0,1.029-0.053,1.549-0.162C327.976,231.599,330.571,227.623,329.72,223.569z"/>
	</g>
</g>
<g>
	<g>
		<path d="M322.112,187.359l-2.467-11.743c-0.852-4.054-4.832-6.652-8.882-5.798c-4.054,0.852-6.649,4.828-5.798,8.882l2.467,11.743
			c0.743,3.534,3.859,5.96,7.332,5.96c0.512,0,1.031-0.052,1.55-0.162C320.368,195.389,322.963,191.413,322.112,187.359z"/>
	</g>
</g>
<g>
	<g>
		<path d="M441.745,319.044l-11.744-2.468c-4.053-0.851-8.03,1.744-8.882,5.798c-0.852,4.053,1.744,8.03,5.797,8.882l11.743,2.468
			c0.521,0.109,1.039,0.162,1.55,0.162c3.473,0,6.59-2.426,7.333-5.96C448.394,323.873,445.798,319.896,441.745,319.044z"/>
	</g>
</g>
<g>
	<g>
		<path d="M405.535,311.436l-11.744-2.468c-4.052-0.853-8.03,1.744-8.882,5.798c-0.852,4.053,1.744,8.03,5.797,8.882l11.744,2.468
			c0.52,0.109,1.039,0.162,1.55,0.162c3.472,0,6.589-2.426,7.332-5.96C412.184,316.264,409.588,312.288,405.535,311.436z"/>
	</g>
</g>
<g>
	<g>
		<path d="M260.697,281.002l-11.743-2.468c-4.055-0.853-8.03,1.744-8.882,5.798c-0.852,4.053,1.744,8.03,5.797,8.882l11.743,2.468
			c0.521,0.109,1.039,0.162,1.55,0.162c3.472,0,6.589-2.427,7.332-5.96C267.346,285.831,264.75,281.854,260.697,281.002z"/>
	</g>
</g>
<g>
	<g>
		<path d="M224.489,273.394l-11.744-2.468c-4.055-0.855-8.03,1.743-8.882,5.798c-0.852,4.054,1.744,8.03,5.797,8.882l11.744,2.468
			c0.521,0.109,1.039,0.162,1.55,0.162c3.472,0,6.589-2.427,7.332-5.96C231.138,278.222,228.542,274.246,224.489,273.394z"/>
	</g>
</g>
<g>
	<g>
		<path d="M468.742,324.717l-2.531-0.532c-4.054-0.855-8.031,1.743-8.883,5.796c-0.853,4.054,1.742,8.031,5.796,8.884l2.531,0.532
			c0.521,0.109,1.04,0.162,1.551,0.162c3.472,0,6.589-2.426,7.332-5.958C475.391,329.547,472.796,325.57,468.742,324.717z"/>
	</g>
</g>
<g>
</g>
<g>
</g>
<g>
</g>
<g>
</g>
<g>
</g>
<g>
</g>
<g>
</g>
<g>
</g>
<g>
</g>
<g>
</g>
<g>
</g>
<g>
</g>
<g>
</g>
<g>
</g>
<g>
</g>
</svg>
