<?xml version="1.0" encoding="iso-8859-1"?>
<!-- Generator: Adobe Illustrator 19.0.0, SVG Export Plug-In . SVG Version: 6.00 Build 0)  -->
<svg version="1.1" id="Capa_1" xmlns="http://www.w3.org/2000/svg" xmlns:xlink="http://www.w3.org/1999/xlink" x="0px" y="0px"
	 viewBox="0 0 512 512" style="enable-background:new 0 0 512 512;" xml:space="preserve">
<g>
	<g>
		<path d="M462.73,351.378c0,0-15.762-20.698-16.592-21.504v-33.516c0-46.828-31.414-86.472-74.332-99.102v-20.708
			c0-5.48-3.551-10.138-8.469-11.82V90.553C363.337,40.622,322.707,0,272.766,0h-78.247c-49.942,0-90.572,40.622-90.572,90.553
			v96.537c-3.39,2.238-5.634,6.076-5.634,10.434v10.951c0,4.357,2.244,8.195,5.634,10.434v174.434
			c-4.702,1.797-8.056,6.343-8.056,11.669V438.5h-7.183c-5.531,0-10.03,4.5-10.03,10.03v3.929H54.229c-6.893,0-12.5,5.607-12.5,12.5
			V499.5c0,6.893,5.607,12.5,12.5,12.5h139.604c6.893,0,12.5-5.607,12.5-12.5v-34.541c0-6.893-5.607-12.5-12.5-12.5h-24.447v-3.929
			c0-5.53-4.499-10.03-10.03-10.03h-7.182v-33.489c0-5.353-3.387-9.916-8.125-11.694v-94.319c0-4.143-3.358-7.5-7.5-7.5
			c-4.142,0-7.5,3.357-7.5,7.5v93.514h-10.104V220.975h10.104v46.023c0,4.143,3.358,7.5,7.5,7.5c4.142,0,7.5-3.357,7.5-7.5v-48.089
			c3.39-2.238,5.635-6.077,5.635-10.435v-10.951c0-4.357-2.245-8.196-5.635-10.435V90.553c0-27.819,22.64-50.452,50.469-50.452
			h78.247c27.827,0,50.467,22.633,50.467,50.452v73.748c-5.699,1.16-10.002,6.211-10.002,12.248v20.708
			c-42.919,12.63-74.332,52.273-74.332,99.102v33.517c-0.829,0.806-16.591,21.503-16.591,21.503c-4.3,5.693-7.543,15.366-7.543,22.5
			V476.16c0,9.649,7.851,17.5,17.5,17.5h0.443v5.84c0,6.893,5.607,12.5,12.5,12.5h16.836c6.893,0,12.5-5.607,12.5-12.5v-5.84h135.95
			v5.84c0,6.893,5.607,12.5,12.5,12.5h16.836c6.893,0,12.5-5.607,12.5-12.5v-5.84h0.443c9.649,0,17.5-7.851,17.5-17.5V373.878
			C470.273,366.743,467.029,357.069,462.73,351.378z M356.806,179.049v14.985c-4.672-0.645-9.44-0.986-14.287-0.986
			c-4.848,0-9.616,0.341-14.288,0.987v-14.986H356.806z M348.337,164.049h-10.104V125.5h10.104V164.049z M159.357,476.041
			c5.037,0,9.207-3.737,9.913-8.582h22.063V497H56.729v-29.541h22.064c0.706,4.845,4.876,8.582,9.914,8.582H159.357z M154.387,453.5
			v7.541h-60.71V453.5H154.387z M137.175,407.511V438.5h-26.285v-30.989H137.175z M134.684,205.974h-21.372v-5.951h21.372V205.974z
			 M272.766,25.101h-78.247c-36.1,0-65.469,29.361-65.469,65.452v94.471h-10.104V90.553c0-41.66,33.901-75.553,75.572-75.553h78.247
			c41.67,0,75.571,33.893,75.571,75.553V110.5h-10.104V90.553C338.232,54.462,308.864,25.101,272.766,25.101z M253.897,296.358
			L253.897,296.358c0-48.694,39.755-88.311,88.62-88.311s88.619,39.616,88.619,88.311v28.827c-1.655,0.977-3.375,1.912-5.126,2.826
			v-31.653c0-45.913-37.455-83.267-83.493-83.267s-83.493,37.354-83.493,83.267v31.653c-1.752-0.914-3.471-1.85-5.127-2.826V296.358
			z M335.019,330.828v15.232c-22.097-0.74-43.125-4.718-60.993-11.406v-38.296c0-35.116,26.742-64.113,60.993-67.849v18.66
			c-19.949,3.543-35.147,20.944-35.147,41.829C299.871,309.884,315.069,327.285,335.019,330.828z M319.827,360.09h0.001
			c7.438,0.722,15.022,1.106,22.69,1.106c7.668,0,15.252-0.385,22.689-1.105v3.579c0,4.136-3.364,7.5-7.5,7.5h-30.38
			c-4.136,0-7.5-3.364-7.5-7.5V360.09z M350.019,346.06v-15.224c18.273-3.23,32.708-18.049,34.871-36.984
			c0.471-4.115-2.484-7.833-6.6-8.303c-4.118-0.471-7.833,2.483-8.303,6.6c-1.586,13.882-13.395,24.351-27.469,24.351
			c-15.245,0-27.647-12.337-27.647-27.501s12.402-27.501,27.647-27.501c6.185,0,12.031,1.983,16.904,5.737
			c3.282,2.527,7.991,1.914,10.518-1.366c2.527-3.281,1.916-7.991-1.366-10.519c-5.513-4.245-11.827-7.017-18.557-8.197V228.51
			c34.251,3.735,60.993,32.732,60.993,67.849v38.296C393.144,341.343,372.116,345.32,350.019,346.06z M259.543,497h-11.836v-3.34
			h11.836V497z M437.329,497h-11.836v-3.34h11.836V497z M452.773,478.66H232.264c-1.355,0-2.5-1.145-2.5-2.5V373.878
			c0-3.848,2.193-10.389,4.512-13.459l4.623-6.118v84.5c0,13.346,10.889,24.203,24.272,24.203h106.83c4.143,0,7.5-3.357,7.5-7.5
			s-3.357-7.5-7.5-7.5h-106.83c-5.113,0-9.272-4.129-9.272-9.203v-96.564c14.714,7.381,32.136,12.782,50.93,15.893v5.54
			c0,12.406,10.094,22.5,22.5,22.5h30.38c12.406,0,22.5-10.094,22.5-22.5v-5.539c18.795-3.111,36.217-8.512,50.93-15.893v96.563
			c0,5.074-4.159,9.203-9.272,9.203h-13.866c-4.143,0-7.5,3.357-7.5,7.5s3.357,7.5,7.5,7.5h13.865
			c13.384,0,24.272-10.857,24.272-24.203v-84.502l4.623,6.12c2.319,3.07,4.512,9.61,4.512,13.459V476.16h0
			C455.273,477.515,454.128,478.66,452.773,478.66z"/>
	</g>
</g>
<g>
	<g>
		<path d="M352.868,390.743h-20.703c-8.891,0-16.124,7.219-16.124,16.091s7.233,16.091,16.124,16.091h20.703
			c8.893,0,16.127-7.219,16.127-16.091S361.761,390.743,352.868,390.743z M352.868,407.925h-20.703c-0.62,0-1.124-0.489-1.124-1.091
			s0.504-1.091,1.124-1.091h20.703c0.621,0,1.127,0.489,1.127,1.091C353.995,407.435,353.489,407.925,352.868,407.925z"/>
	</g>
</g>
<g>
	<g>
		<path d="M349.57,427.002h-14.103c-4.143,0-7.5,3.357-7.5,7.5c0,4.142,3.357,7.5,7.5,7.5h14.103c4.143,0,7.5-3.358,7.5-7.5
			C357.07,430.359,353.713,427.002,349.57,427.002z"/>
	</g>
</g>
<g>
</g>
<g>
</g>
<g>
</g>
<g>
</g>
<g>
</g>
<g>
</g>
<g>
</g>
<g>
</g>
<g>
</g>
<g>
</g>
<g>
</g>
<g>
</g>
<g>
</g>
<g>
</g>
<g>
</g>
</svg>
