<?xml version="1.0" encoding="iso-8859-1"?>
<!-- Generator: Adobe Illustrator 19.0.0, SVG Export Plug-In . SVG Version: 6.00 Build 0)  -->
<svg version="1.1" id="Capa_1" xmlns="http://www.w3.org/2000/svg" xmlns:xlink="http://www.w3.org/1999/xlink" x="0px" y="0px"
	 viewBox="0 0 512 512" style="enable-background:new 0 0 512 512;" xml:space="preserve">
<g>
	<g>
		<path d="M187.21,354.229h-37.713c-4.142,0-7.5,3.357-7.5,7.5s3.357,7.5,7.5,7.5h37.713c4.142,0,7.5-3.357,7.5-7.5
			S191.352,354.229,187.21,354.229z"/>
	</g>
</g>
<g>
	<g>
		<path d="M491.857,365.637l-27.514-27.516c-2.93-2.93-7.678-2.929-10.607-0.001c-2.929,2.929-2.929,7.678,0,10.607l25.747,25.748
			l-6.655,6.656L359.309,267.612l6.655-6.655l64.772,64.771c2.929,2.928,7.678,2.928,10.606,0c2.929-2.93,2.929-7.678,0-10.607
			l-64.836-64.836c1.74-2.195,2.691-4.894,2.691-7.744c0-3.343-1.298-6.482-3.655-8.839l-10.068-10.067l3.493-3.492
			c2.356-2.357,3.654-5.496,3.654-8.839c0-3.343-1.298-6.482-3.655-8.839l-19.234-19.233c-0.455-0.455-0.947-0.857-1.456-1.231
			l4.969-101.039c0.165-3.351-1.057-6.655-3.354-9.067c-2.296-2.412-5.538-3.796-8.892-3.796h-24.874
			c-3.354,0-6.595,1.384-8.892,3.796c-2.296,2.412-3.519,5.717-3.354,9.066l1.485,30.187l-7.019-26.88
			c-1.41-5.399-6.275-9.17-11.832-9.17c-1.254,0-2.501,0.191-3.708,0.571l-23.729,7.46c-3.2,1.006-5.877,3.297-7.345,6.286
			c-1.467,2.99-1.643,6.51-0.481,9.656l12.484,33.811l-23.255-25.66c-2.329-2.569-5.639-4.044-9.083-4.044
			c-1.807,0-3.55,0.405-5.147,1.149c-8.162-10.113-17.651-19.325-28.413-27.364l7.628-13.212c2.071-3.587,0.842-8.174-2.745-10.245
			c-3.587-2.07-8.174-0.843-10.245,2.745l-7.753,13.43c-3.73,6.464-2.03,14.701,3.956,19.164
			c10.049,7.482,18.878,16.092,26.424,25.564l-9.965,9.966c-2.372,2.371-3.686,5.642-3.604,8.971c0.082,3.33,1.555,6.531,4.04,8.783
			l24.642,22.331l-32.393-11.96c-1.379-0.509-2.817-0.767-4.275-0.767c-5.362,0-10.051,3.452-11.667,8.592l-7.46,23.73
			c-1.006,3.199-0.658,6.706,0.954,9.62s4.398,5.071,7.644,5.92l28.85,7.533l-32.557-1.602c-7.033-0.318-12.861,5.282-12.862,12.246
			l0.001,24.876c0,6.76,5.494,12.26,12.247,12.26c0.205,0,0.41-0.005,0.615-0.015l56.77-2.791
			c-1.968,5.118-4.235,10.117-6.776,14.976h-121.92c-10.448-19.972-16.17-42.38-16.17-65.223c0-44.936,20.707-86.127,56.813-113.014
			c5.984-4.46,7.684-12.698,3.953-19.164L120.414,15h95.878l-7.65,13.25c-2.071,3.587-0.842,8.174,2.745,10.245
			c3.586,2.068,8.173,0.842,10.245-2.745l7.895-13.673c2.621-4.54,2.621-10.181,0.001-14.716C226.909,2.82,222.024,0,216.78,0
			h-96.855c-5.242,0-10.126,2.82-12.746,7.359c-2.621,4.538-2.621,10.178,0,14.718l31.687,54.885
			c-39.821,29.747-62.651,75.253-62.651,124.894c0,34.637,11.891,68.37,32.84,95.493H28.986c-6.892,0-12.5,5.607-12.5,12.5v22.638
			c0,6.893,5.608,12.5,12.5,12.5h14.438v48.866v16.818V499.5c0,6.893,5.608,12.5,12.5,12.5h20.131c6.893,0,12.5-5.607,12.5-12.5
			v-76.329h159.596V499.5c0,6.893,5.607,12.5,12.5,12.5h20.131c6.893,0,12.5-5.607,12.5-12.5v-88.829v-16.818v-48.866h14.438
			c6.893,0,12.5-5.607,12.5-12.5v-22.638c0-6.893-5.607-12.5-12.5-12.5h-80.073c10.716-13.873,19.06-29.474,24.656-46.044
			l28.053-1.379c0.374,0.508,0.776,0.999,1.23,1.453l19.232,19.234c2.357,2.357,5.497,3.656,8.84,3.656
			c3.343,0,6.482-1.299,8.839-3.655l3.492-3.491l10.068,10.067c2.357,2.357,5.496,3.654,8.838,3.654c2.85,0,5.547-0.951,7.744-2.69
			l115.35,115.35c2.438,2.438,5.638,3.656,8.84,3.656c3.201,0,6.402-1.219,8.839-3.655l10.19-10.19
			c2.357-2.357,3.656-5.496,3.656-8.839C495.512,371.133,494.214,367.994,491.857,365.637z M220.249,282.078
			c-3.699,5.353-7.768,10.458-12.187,15.271h-79.437c-4.417-4.811-8.48-9.92-12.178-15.271H220.249z M73.555,497H58.424v-73.829
			h15.131V497z M278.281,497H263.15v-73.829h15.131V497z M305.219,312.348v17.638H132.038c-4.142,0-7.5,3.358-7.5,7.5
			c0,4.143,3.358,7.5,7.5,7.5h146.244v63.185H58.424v-63.185h34.614c4.142,0,7.5-3.357,7.5-7.5c0-4.142-3.358-7.5-7.5-7.5H31.486
			v-17.638H305.219z M338.122,83.098l-4.865,98.932l-8.948,8.948l-5.306-107.88H338.122z M284.559,90.84l24.403,93.455l1.033,20.997
			l-2.581,2.581L266.32,96.575L284.559,90.84z M217.779,132.945l13.52-13.52l46.356,51.152l9.228,24.993L217.779,132.945z
			 M189.593,185.809l5.734-18.241l64.662,23.874l19.759,17.907L189.593,185.809z M280.382,234.907l-98.931,4.864l-0.001-19.122
			l101.285,4.982l5.489,1.434L280.382,234.907z M309.656,258.239l-15.697-15.698l46.934-46.935l15.698,15.698L309.656,258.239z
			 M340.893,264.816l-8.3-8.3l22.274-22.273l8.3,8.299L340.893,264.816z"/>
	</g>
</g>
<g>
	<g>
		<path d="M102.748,53.015C92.68,49.877,91.895,49.091,88.759,39.01c-1.302-4.194-5.127-7.013-9.517-7.013
			c-4.39,0-8.214,2.818-9.516,7.009c-3.136,10.085-3.92,10.87-13.986,14.008c-4.19,1.305-7.006,5.129-7.006,9.517
			c0,4.39,2.815,8.215,7.002,9.519c10.069,3.14,10.854,3.925,13.989,14.009c1.304,4.19,5.127,7.005,9.516,7.005
			s8.213-2.815,9.516-7.005c3.137-10.084,3.922-10.87,13.992-14.009c4.187-1.306,7-5.132,7-9.519
			C109.749,58.145,106.936,54.321,102.748,53.015z M79.242,70.079c-1.966-3.214-4.332-5.579-7.546-7.547
			c3.214-1.967,5.58-4.333,7.546-7.548c1.966,3.215,4.332,5.581,7.545,7.548C83.573,64.499,81.207,66.865,79.242,70.079z"/>
	</g>
</g>
<g>
	<g>
		<path d="M68.06,120.288c-8.044-2.508-8.454-2.918-10.96-10.973c-1.25-4.028-4.923-6.734-9.14-6.734
			c-4.214,0-7.887,2.705-9.139,6.73c-2.506,8.059-2.915,8.469-10.963,10.978c-4.021,1.255-6.722,4.928-6.722,9.14
			c0,4.211,2.701,7.884,6.725,9.139c8.045,2.508,8.454,2.918,10.961,10.979c1.253,4.022,4.925,6.726,9.138,6.726
			c4.216,0,7.889-2.704,9.139-6.727c2.507-8.061,2.917-8.471,10.966-10.979c4.019-1.256,6.719-4.928,6.719-9.138
			C74.784,125.218,72.084,121.546,68.06,120.288z M47.961,133.631c-1.197-1.637-2.565-3.006-4.202-4.203
			c1.637-1.198,3.005-2.567,4.202-4.202c1.197,1.637,2.565,3.005,4.202,4.202C50.527,130.625,49.159,131.994,47.961,133.631z"/>
	</g>
</g>
<g>
	<g>
		<path d="M292.017,3.97c-1.4-1.4-3.33-2.2-5.3-2.2c-1.98,0-3.91,0.8-5.31,2.2c-1.39,1.39-2.2,3.33-2.2,5.3
			c0,1.981,0.81,3.91,2.2,5.3c1.401,1.4,3.33,2.2,5.31,2.2c1.97,0,3.9-0.8,5.3-2.2c1.4-1.39,2.2-3.319,2.2-5.3
			C294.217,7.3,293.417,5.36,292.017,3.97z"/>
	</g>
</g>
<g>
	<g>
		<path d="M391.988,80.689c-1.39-1.39-3.32-2.189-5.3-2.189c-1.98,0-3.91,0.8-5.3,2.189c-1.4,1.4-2.2,3.33-2.2,5.311
			c0,1.97,0.8,3.899,2.2,5.3c1.389,1.4,3.329,2.2,5.3,2.2c1.98,0,3.91-0.8,5.3-2.2c1.4-1.4,2.2-3.33,2.2-5.3
			C394.188,84.02,393.388,82.09,391.988,80.689z"/>
	</g>
</g>
<g>
	<g>
		<path d="M333.868,36.519c-1.4-1.399-3.33-2.2-5.31-2.2c-1.97,0-3.9,0.801-5.3,2.2c-1.39,1.391-2.2,3.33-2.2,5.3
			c0,1.98,0.81,3.91,2.2,5.301c1.399,1.4,3.329,2.199,5.3,2.199c1.98,0,3.91-0.8,5.31-2.199c1.4-1.391,2.2-3.32,2.2-5.301
			C336.068,39.849,335.268,37.91,333.868,36.519z"/>
	</g>
</g>
<g>
	<g>
		<path d="M253.648,46.979c-1.39-1.39-3.32-2.189-5.3-2.189c-1.97,0-3.9,0.8-5.3,2.189c-1.4,1.4-2.2,3.33-2.2,5.311
			c0,1.97,0.8,3.899,2.2,5.3c1.39,1.389,3.329,2.2,5.3,2.2c1.98,0,3.91-0.811,5.3-2.2c1.4-1.4,2.2-3.33,2.2-5.3
			C255.848,50.31,255.048,48.38,253.648,46.979z"/>
	</g>
</g>
<g>
</g>
<g>
</g>
<g>
</g>
<g>
</g>
<g>
</g>
<g>
</g>
<g>
</g>
<g>
</g>
<g>
</g>
<g>
</g>
<g>
</g>
<g>
</g>
<g>
</g>
<g>
</g>
<g>
</g>
</svg>
