<?xml version="1.0" encoding="iso-8859-1"?>
<!-- Generator: Adobe Illustrator 19.0.0, SVG Export Plug-In . SVG Version: 6.00 Build 0)  -->
<svg version="1.1" id="Capa_1" xmlns="http://www.w3.org/2000/svg" xmlns:xlink="http://www.w3.org/1999/xlink" x="0px" y="0px"
	 viewBox="0 0 512 512" style="enable-background:new 0 0 512 512;" xml:space="preserve">
<g>
	<g>
		<path d="M275.013,272.324c-2.582-3.238-7.302-3.77-10.54-1.186c-3.238,2.583-3.77,7.302-1.187,10.54
			c9.903,12.417,15.138,27.397,15.138,43.321c0,38.347-31.197,69.544-69.543,69.544s-69.543-31.197-69.543-69.544
			c0-38.347,31.197-69.544,69.543-69.544c9.1,0,17.944,1.729,26.286,5.138c3.833,1.567,8.212-0.272,9.779-4.105
			c1.567-3.834-0.271-8.213-4.105-9.779c-10.152-4.149-20.905-6.253-31.961-6.253c-46.617,0-84.543,37.926-84.543,84.544
			c0,46.618,37.926,84.544,84.543,84.544s84.543-37.926,84.543-84.544C293.424,305.917,286.886,287.21,275.013,272.324z"/>
	</g>
</g>
<g>
	<g>
		<path d="M268.832,311.49c-2.525-2.525-6.398-2.867-9.296-1.04c-6.325-21.877-26.521-37.927-50.409-37.927
			c-18.537,0-35.334,9.48-44.934,25.358c-2.144,3.544-1.007,8.155,2.538,10.298c3.54,2.144,8.154,1.007,10.298-2.538
			c6.859-11.345,18.858-18.118,32.098-18.118c15.061,0,28.066,8.935,34.018,21.778c-1.87,0.035-3.73,0.762-5.156,2.188
			c-2.93,2.929-2.93,7.678-0.001,10.606l10.119,10.121c1.406,1.407,3.314,2.197,5.304,2.197c1.989,0,3.897-0.79,5.304-2.197
			l10.118-10.12C271.762,319.167,271.762,314.418,268.832,311.49z"/>
	</g>
</g>
<g>
	<g>
		<path d="M252.136,340.173c-3.621-2.002-8.188-0.69-10.191,2.935c-6.605,11.946-19.18,19.368-32.817,19.368
			c-16.117,0-29.89-10.227-35.172-24.531c0.172,0.012,0.344,0.024,0.516,0.024c1.918,0.001,3.838-0.732,5.302-2.196
			c2.929-2.93,2.929-7.678,0-10.607l-10.119-10.119c-2.93-2.928-7.678-2.928-10.607,0l-10.119,10.119
			c-2.929,2.93-2.929,7.678,0,10.607c2.47,2.468,6.229,2.847,9.104,1.154c5.417,23.206,26.262,40.549,51.095,40.549
			c19.096,0,36.7-10.389,45.944-27.112C257.076,346.739,255.762,342.176,252.136,340.173z"/>
	</g>
</g>
<g>
	<g>
		<path d="M462.596,81.951H425c-4.143,0-7.5,3.357-7.5,7.5s3.357,7.5,7.5,7.5h37.596c1.255,0,2.314,1.059,2.314,2.314v67.72
			c0,1.255-1.06,2.314-2.314,2.314H359.191V96.951H390c4.143,0,7.5-3.357,7.5-7.5s-3.357-7.5-7.5-7.5h-60.883
			c-8.537,0-15.634,6.218-17.043,14.358h-8.201c-3.438-11.176-12.849-19.745-24.35-22.117v-2.36c0-9.85-7.251-18.021-16.704-19.54
			l20.042-30.648c2.238-3.424,2.531-7.398,0.783-10.629c-1.748-3.23-5.233-5.16-9.324-5.16h-28.827
			c-0.229-0.449-0.482-0.889-0.779-1.307C242.665,1.657,239.325,0,235.551,0h-55.275c-3.774,0-7.114,1.657-9.163,4.548
			c-0.297,0.418-0.55,0.857-0.779,1.307h-28.829c-4.091,0-7.576,1.93-9.324,5.16c-1.748,3.232-1.455,7.205,0.783,10.629
			l34.302,52.452c-5.921,2.809-10.034,8.827-10.034,15.804v6.126c0,3.599,1.096,6.941,2.969,9.721
			c-1.873,2.787-2.969,6.137-2.969,9.739v6.129c0,3.599,1.096,6.941,2.969,9.722c-1.873,2.785-2.969,6.136-2.969,9.738v6.127
			c0,3.599,1.096,6.941,2.969,9.721c-1.873,2.786-2.969,6.137-2.969,9.738v6.129c0,0.248,0.027,0.489,0.037,0.734
			C84.885,195.574,32.09,262.748,32.09,341.977v134.781C32.09,496.19,47.899,512,67.332,512H350.43
			c19.433,0,35.242-15.81,35.242-35.242V420c0-4.143-3.357-7.5-7.5-7.5s-7.5,3.357-7.5,7.5v56.758
			c0,11.161-9.081,20.242-20.242,20.242H67.332c-11.161,0-20.242-9.081-20.242-20.242V341.977
			c0-73.545,49.749-135.727,117.492-154.958c2.866,2.05,6.364,3.27,10.148,3.27h59.391c4.775,0,9.105-1.927,12.267-5.039
			c71.186,16.892,124.284,80.744,124.284,156.727v40.022c0,4.143,3.357,7.5,7.5,7.5s7.5-3.357,7.5-7.5v-40.022
			c0-67.924-38.807-126.98-95.488-156.348c6.448-4.066,11.398-10.342,13.689-17.791h7.973c0.449,9.149,8.013,16.462,17.271,16.462
			h133.479c9.547,0,17.314-7.768,17.314-17.314v-67.72C479.91,89.719,472.143,81.951,462.596,81.951z M243.816,20.854h21.639
			l-20.379,31.162h-12.182L243.816,20.854z M229.975,15L217,52.017h-15.863c-0.767,0-1.52,0.054-2.264,0.139L185.852,15H229.975z
			 M174.73,112.985h6.673c0.449,4.013,2.104,7.663,4.595,10.589H174.73c-0.482,0-0.955,0.034-1.428,0.072
			c-0.642-0.458-1.072-1.204-1.072-2.032v-6.129C172.23,114.13,173.375,112.985,174.73,112.985z M172.23,96.025v-6.126
			c0-1.355,1.145-2.5,2.5-2.5h6.541v10.586h-6.541c-0.482,0-0.955,0.034-1.428,0.072C172.661,97.6,172.23,96.854,172.23,96.025z
			 M150.37,20.854h21.639l13.564,38.701c-2.038,2.564-3.443,5.641-4.007,9.003L150.37,20.854z M236.621,172.789
			c0,1.355-1.145,2.5-2.5,2.5H174.73c-1.355,0-2.5-1.145-2.5-2.5v-6.129c0-1.355,1.145-2.5,2.5-2.5h59.391
			c1.355,0,2.5,1.145,2.5,2.5V172.789z M236.621,147.201c0,0.828-0.43,1.573-1.071,2.031c-0.473-0.038-0.946-0.072-1.429-0.072
			H174.73c-0.482,0-0.956,0.034-1.429,0.072c-0.642-0.458-1.071-1.203-1.071-2.031v-6.127c0-1.355,1.145-2.5,2.5-2.5h59.391
			c1.355,0,2.5,1.145,2.5,2.5V147.201z M236.622,121.614L236.622,121.614c-0.001,0.828-0.432,1.574-1.073,2.032
			c-0.473-0.038-0.945-0.072-1.428-0.072h-12.942c2.491-2.926,4.146-6.576,4.596-10.589h8.347c1.355,0,2.5,1.145,2.5,2.5V121.614z
			 M311.803,152.838h-14.098c-3.923,0-7.183,3.022-7.479,6.934c-0.673,8.884-8.211,15.843-17.16,15.843h-6.179
			c-4.993-1.732-10.083-3.255-15.267-4.542v-4.412c0-3.602-1.096-6.952-2.969-9.738c1.873-2.779,2.969-6.122,2.969-9.721v-6.127
			c0-3.603-1.096-6.953-2.969-9.738c0.062-0.092,0.115-0.188,0.175-0.281c5.849,4.753,13.298,7.608,21.403,7.608
			c4.142,0,7.5-3.357,7.5-7.5s-3.358-7.5-7.5-7.5c-10.476,0-18.998-8.522-18.998-18.999c0-2.799,0-10.282,0-13.189
			c0-4.143-3.09-7.5-7.232-7.5h-25.594c-4.143,0-7.5,3.357-7.5,7.5v19.3c0,2.609-2.229,4.814-4.867,4.814h-4.902
			c-2.638,0-4.865-2.205-4.865-4.814V71.832c0-2.61,2.227-4.815,4.865-4.815h58.52c2.639,0,4.867,2.205,4.867,4.815V85
			c0,4.143,3.357,7.5,7.5,7.5c2.533,0,4.77-1.26,6.127-3.183c6.567,2.046,11.536,7.928,12.076,15.059
			c0.296,3.911,3.557,6.934,7.479,6.934h14.098V152.838z M344.191,169.3h-15.074c-1.255,0-2.314-1.06-2.314-2.314v-67.72
			c0-1.255,1.06-2.314,2.314-2.314h15.074V169.3z"/>
	</g>
</g>
<g>
	<g>
		<path d="M261.398,439.5H151.475c-4.143,0-7.5,3.357-7.5,7.5s3.357,7.5,7.5,7.5h109.924c4.143,0,7.5-3.357,7.5-7.5
			S265.541,439.5,261.398,439.5z"/>
	</g>
</g>
<g>
</g>
<g>
</g>
<g>
</g>
<g>
</g>
<g>
</g>
<g>
</g>
<g>
</g>
<g>
</g>
<g>
</g>
<g>
</g>
<g>
</g>
<g>
</g>
<g>
</g>
<g>
</g>
<g>
</g>
</svg>
