<?xml version="1.0" encoding="iso-8859-1"?>
<!-- Generator: Adobe Illustrator 19.0.0, SVG Export Plug-In . SVG Version: 6.00 Build 0)  -->
<svg version="1.1" id="Capa_1" xmlns="http://www.w3.org/2000/svg" xmlns:xlink="http://www.w3.org/1999/xlink" x="0px" y="0px"
	 viewBox="0 0 512 512" style="enable-background:new 0 0 512 512;" xml:space="preserve">
<g>
	<g>
		<path d="M385.856,131.87c-31.689,0-57.471,26.141-57.471,58.271c0.001,32.131,25.782,58.27,57.471,58.27
			c31.691,0,57.474-26.14,57.474-58.27C443.33,158.01,417.548,131.87,385.856,131.87z M385.856,233.411
			c-23.418,0-42.471-19.41-42.471-43.27c0.001-23.86,19.054-43.271,42.471-43.271c23.42,0,42.474,19.411,42.474,43.271
			C428.33,214,409.276,233.411,385.856,233.411z"/>
	</g>
</g>
<g>
	<g>
		<path d="M286.809,39.492c-20.725,0-37.584,17.076-37.584,38.065c-0.001,20.989,16.859,38.065,37.584,38.065
			c20.723,0,37.582-17.076,37.582-38.065S307.532,39.492,286.809,39.492z M286.809,100.62c-12.453,0-22.585-10.347-22.585-23.065
			c0-12.718,10.131-23.065,22.585-23.065c12.452,0,22.582,10.347,22.582,23.065C309.391,90.275,299.261,100.62,286.809,100.62z"/>
	</g>
</g>
<g>
	<g>
		<path d="M184.401,107.44c-17.125,0-31.057,14.102-31.057,31.435c0.001,17.332,13.933,31.433,31.057,31.433
			c17.123,0,31.054-14.101,31.054-31.433C215.455,121.543,201.524,107.44,184.401,107.44z M184.401,155.309
			c-8.854,0-16.057-7.372-16.057-16.433c0.001-9.062,7.204-16.435,16.057-16.435c8.852,0,16.054,7.372,16.054,16.435
			C200.455,147.935,193.253,155.309,184.401,155.309z"/>
	</g>
</g>
<g>
	<g>
		<path d="M499.5,385.925h-31.074l-25.335-44.058c-2.697-4.69-8.583-8.095-13.993-8.095h-50.98v-15.633
			c0-6.893-5.607-12.5-12.5-12.5h-6.188c0.5-10.996-3.418-22.158-11.763-30.537c-5.76-5.784-13.069-9.647-20.986-11.168
			c-2.503-7.162-6.587-13.692-11.982-19.108c-9.582-9.62-22.324-14.917-35.877-14.917c-2.41,0-4.792,0.176-7.137,0.505
			c-6.564-20.541-25.764-35.457-48.386-35.457c-21.46,0-39.844,13.421-47.279,32.335c-5.554-15.422-20.263-26.474-37.497-26.474
			c-21.984,0-39.869,17.979-39.869,40.079c0,0.32,0.004,0.643,0.013,0.965c-16.511,3.166-29.443,16.602-31.943,33.42H52.207
			c-17.078,0-31.083,13.447-32.098,30.357H12.5c-6.893,0-12.5,5.607-12.5,12.5v24.999c0,6.893,5.607,12.5,12.5,12.5h8.56v27.5
			c0,41.929,33.988,76.04,75.766,76.04h184.465c2.269,0,4.511-0.114,6.728-0.315v1.145c0,6.893,5.607,12.5,12.5,12.5h194.073
			c6.893,0,12.5-5.607,12.5-12.5V424.92c2.978-2.286,4.908-5.871,4.908-9.907v-16.588C512,391.532,506.393,385.925,499.5,385.925z
			 M428.995,348.772L428.995,348.772c0.328,0.074,0.917,0.414,1.145,0.662l20.983,36.49h-14.221l-9.572-16.645
			c-2.697-4.691-8.583-8.097-13.994-8.097h-39.294c-5.413,0-11.299,3.406-13.994,8.097l-9.571,16.645h-14.223l20.984-36.491
			c0.228-0.248,0.816-0.588,1.145-0.661H428.995z M419.599,385.925H367.78l5.222-9.08c0.227-0.248,0.815-0.587,1.143-0.661h39.089
			c0.328,0.074,0.916,0.414,1.144,0.662L419.599,385.925z M278.822,244.909c9.535,0,18.503,3.729,25.25,10.503
			c4.69,4.709,7.976,10.612,9.498,17.069c0.764,3.236,3.566,5.584,6.887,5.767c6.26,0.346,12.148,2.987,16.582,7.44
			c5.438,5.461,7.887,12.795,7.369,19.952H303.18c-1.015-16.91-15.021-30.357-32.099-30.357h-7.165
			c-1.615-7.5-5.601-14.122-11.125-19.033c0.261-0.279,0.512-0.564,0.783-0.837C260.32,248.64,269.287,244.909,278.822,244.909z
			 M223.299,209.958c15.836,0,29.297,10.385,34.013,24.731c-5.27,2.479-10.128,5.884-14.366,10.139
			c-1.267,1.272-2.427,2.608-3.529,3.978c-3.158-0.937-6.496-1.446-9.952-1.446c-8.042,0-15.729,2.792-21.867,7.68
			c-4.604-7.3-11.445-12.876-19.46-15.929C191.328,222.524,205.877,209.958,223.299,209.958z M52.207,290.282h21.658
			c2.061,0,4.031-0.848,5.447-2.345s2.155-3.511,2.041-5.568l-0.038-0.581c-0.013-0.185-0.031-0.37-0.031-0.558
			c0-13.597,10.789-24.692,24.185-25.06c0.209-0.007,1.588,0.022,1.654,0.023c10.523,0.422,19.843,7.634,22.867,17.858
			c1.174,3.973,5.344,6.241,9.319,5.065c3.972-1.175,6.24-5.347,5.065-9.319c-4.259-14.402-16.344-25.089-30.69-27.905
			c-0.014-0.332-0.032-0.664-0.032-0.996c0-13.829,11.156-25.079,24.869-25.079s24.869,11.25,24.869,25.079
			c0,0.819-0.043,1.669-0.128,2.527c-0.222,2.239,0.573,4.459,2.166,6.048c1.592,1.589,3.811,2.374,6.053,2.153
			c0.838-0.085,1.677-0.128,2.493-0.128c10.633,0,19.907,6.743,23.392,16.676c-2.018,4.456-3.147,9.401-3.147,14.608
			c0,4.143,3.358,7.5,7.5,7.5c4.142,0,7.5-3.357,7.5-7.5c0-2.984,0.644-5.816,1.793-8.371c0.002-0.192,0.66-1.341,0.912-1.783
			c3.611-6.335,10.332-10.271,17.54-10.271c11.164,0,20.246,9.162,20.246,20.425c0,4.143,3.358,7.5,7.5,7.5h13.87
			c8.805,0,16.074,6.728,17.045,15.357H184.08c-0.982-2.999-3.798-5.167-7.125-5.167H82.544c-3.327,0-6.143,2.168-7.125,5.167
			H35.163C36.134,297.011,43.403,290.282,52.207,290.282z M169.455,315.474v83.343c0,2.521-2.108,4.652-4.605,4.652h-5.14v-87.995
			H169.455z M129,370.5c-4.142,0-7.5,3.357-7.5,7.5v25.469h-8.21v-87.995h8.21v27.525c0,4.143,3.358,7.5,7.5,7.5
			c4.142,0,7.5-3.357,7.5-7.5v-27.525h8.21v87.995h-8.21V378C136.5,373.857,133.142,370.5,129,370.5z M98.29,315.474v87.995h-3.642
			c-2.496,0-4.604-2.131-4.604-4.652v-83.343H98.29z M15,340.639v-19.999h60.044v19.999H15z M284.13,398.425v16.588
			c0,3.555,1.499,6.76,3.889,9.038v19.735c-2.21,0.25-4.452,0.393-6.728,0.393H96.826c-33.506,0-60.766-27.383-60.766-61.04v-27.5
			h38.983v43.177c0,10.836,8.795,19.652,19.604,19.652h70.203c10.81,0,19.605-8.816,19.605-19.652V355.64H205
			c4.142,0,7.5-3.357,7.5-7.5c0-4.142-3.358-7.5-7.5-7.5h-20.545v-19.999h178.662v13.133h-4.837c-4.925,0-10.234,2.824-13.184,6.866
			H247c-4.142,0-7.5,3.358-7.5,7.5c0,4.143,3.358,7.5,7.5,7.5h89.367l-17.416,30.286H296.63
			C289.737,385.925,284.13,391.532,284.13,398.425z M497,412.513h-30c-4.143,0-7.5,3.357-7.5,7.5s3.357,7.5,7.5,7.5h25.092v29.995
			H303.019v-29.995H426c4.143,0,7.5-3.357,7.5-7.5s-3.357-7.5-7.5-7.5H299.13v-11.588H497V412.513z"/>
	</g>
</g>
<g>
</g>
<g>
</g>
<g>
</g>
<g>
</g>
<g>
</g>
<g>
</g>
<g>
</g>
<g>
</g>
<g>
</g>
<g>
</g>
<g>
</g>
<g>
</g>
<g>
</g>
<g>
</g>
<g>
</g>
</svg>
