<?xml version="1.0" encoding="iso-8859-1"?>
<!-- Generator: Adobe Illustrator 19.0.0, SVG Export Plug-In . SVG Version: 6.00 Build 0)  -->
<svg version="1.1" id="Capa_1" xmlns="http://www.w3.org/2000/svg" xmlns:xlink="http://www.w3.org/1999/xlink" x="0px" y="0px"
	 viewBox="0 0 511.999 511.999" style="enable-background:new 0 0 511.999 511.999;" xml:space="preserve">
<g>
	<g>
		<path d="M119.47,83.422c-16.028,0-29.068,13.246-29.068,29.528s13.04,29.528,29.068,29.528c16.027,0,29.066-13.246,29.066-29.528
			S135.497,83.422,119.47,83.422z M119.47,127.477c-7.757,0-14.068-6.518-14.068-14.528c0-8.01,6.311-14.528,14.068-14.528
			c7.756,0,14.066,6.518,14.066,14.528C133.536,120.96,127.226,127.477,119.47,127.477z"/>
	</g>
</g>
<g>
	<g>
		<path d="M499.499,351.704h-23.154c-4.143,0-7.5,3.357-7.5,7.5c0,4.142,3.357,7.5,7.5,7.5h20.654v26.622h-86.504v-26.622h29.85
			c4.143,0,7.5-3.358,7.5-7.5c0-4.143-3.357-7.5-7.5-7.5H322.841c-0.096-14.833-11.879-26.932-26.547-27.445
			c-2.67-8.09-9.783-14.151-18.419-15.298c0.607-1.402,0.955-2.94,1.006-4.551h29.978c7.479,0,17.096-4,22.369-9.304l30.274-30.452
			l1.96,1.971c2.356,2.369,5.497,3.674,8.844,3.674s6.487-1.305,8.844-3.675l45.074-45.338c2.92-2.938,2.906-7.687-0.031-10.607
			c-2.938-2.919-7.687-2.904-10.607,0.031l-21.342,21.469l-11.03-11.097l71.335-71.754c0.857-0.861,1.869-0.989,2.397-0.989
			s1.541,0.128,2.397,0.989l6.175,6.211c1.333,1.34,1.333,3.605-0.001,4.946l-24.084,24.225c-2.921,2.938-2.907,7.687,0.03,10.607
			c2.939,2.922,7.686,2.906,10.606-0.03l24.084-24.224c7.156-7.196,7.156-18.905,0-26.101l-6.174-6.21
			c-3.471-3.491-8.1-5.413-13.034-5.413c-4.934,0-9.563,1.922-13.034,5.413l-95.006,95.563c-4.844,4.872-4.844,12.798,0,17.669
			l2.022,2.032l-30.336,30.515c-2.448,2.463-8.26,4.88-11.732,4.88h-29.977c-0.213-6.708-5.722-12.103-12.48-12.103h-1.145v-8.089
			c0-9.649-7.851-17.5-17.5-17.5h-57.006c-9.65,0-17.5,7.851-17.5,17.5v8.089h-1.146c-6.893,0-12.5,5.607-12.5,12.5v14.204
			c0,1.147,0.168,2.252,0.458,3.308c-3.651,0.718-7.111,2.147-10.169,4.209c-4.786-6.509-11.986-10.975-20.154-12.258
			C127.4,284.383,114.507,272.96,99,272.96c-16.842,0-30.602,13.473-31.104,30.227c-11.529,2.862-20.543,12.183-22.98,23.892h-8.899
			c-13.884,0-25.204,11.177-25.482,25.02c-3.603,0.796-6.601,2.78-8.496,5.716c-2.506,3.883-2.711,8.836-0.563,13.592l19.723,43.644
			c3.483,7.711,12.491,13.525,20.953,13.525h48.195c4.143,0,7.5-3.357,7.5-7.5s-3.357-7.5-7.5-7.5H42.15
			c-2.556,0-6.232-2.372-7.283-4.702l-19.056-42.168h286.543l-19.056,42.167c-1.052,2.329-4.728,4.701-7.283,4.701H131.344
			c-4.143,0-7.5,3.357-7.5,7.5s3.357,7.5,7.5,7.5h144.671c8.462,0,17.47-5.814,20.953-13.524l10.155-22.473h64.925v3.249
			c0,6.893,5.607,12.5,12.5,12.5h114.951c6.893,0,12.5-5.607,12.5-12.5v-31.622C511.999,357.311,506.392,351.704,499.499,351.704z
			 M372.637,231.719l11.03,11.096l-11.361,11.429l-11.031-11.095L372.637,231.719z M188.251,269.218c0-1.355,1.145-2.5,2.5-2.5
			h57.006c1.355,0,2.5,1.145,2.5,2.5v8.089h-62.006V269.218z M174.605,292.307h89.297v9.204h-89.297V292.307z M151.982,351.703
			H25.565c0.465-5.384,4.97-9.625,10.45-9.625H51.82c2.063,0,4.036-0.851,5.453-2.352c1.417-1.5,2.153-3.518,2.034-5.579
			l-0.027-0.422c-0.007-0.1-0.016-0.2-0.019-0.274c0-8.879,7.165-16.11,15.998-16.177c0.205,0.015,0.727,0,0.783,0
			c6.809,0.286,12.833,4.962,14.789,11.549c1.178,3.971,5.353,6.237,9.324,5.055c3.971-1.179,6.234-5.353,5.055-9.324
			c-3.159-10.64-11.827-18.676-22.284-21.332c0.478-8.494,7.493-15.262,16.073-15.262c8.888,0,16.119,7.257,16.119,16.178
			c0,0.53-0.027,1.069-0.084,1.648c-0.218,2.236,0.579,4.453,2.172,6.04c1.592,1.586,3.807,2.374,6.049,2.148
			c0.551-0.056,1.079-0.083,1.613-0.083c6.619,0,12.426,4.015,14.876,10.01c-1.372,3.289-2.132,6.896-2.132,10.677
			c0,4.143,3.357,7.5,7.5,7.5s7.5-3.357,7.5-7.5c0-2.28,0.607-4.415,1.656-6.269c-0.002-0.002-0.004-0.005-0.006-0.007
			c0.017-0.027,0.037-0.05,0.053-0.077c1.967-3.438,5.4-5.745,9.229-6.306L151.982,351.703z M253.433,351.703v-15.582
			c0-4.143-3.357-7.5-7.5-7.5s-7.5,3.357-7.5,7.5v15.582h-12.646v-15.582c0-4.143-3.357-7.5-7.5-7.5s-7.5,3.357-7.5,7.5v15.582
			h-10.715v-15.582c0-4.143-3.357-7.5-7.5-7.5s-7.5,3.357-7.5,7.5v15.582h-16.999l13.662-35.192h75.036l13.663,35.192H253.433z
			 M303.975,351.704h-17.449l-10.839-27.915c3.783,0.392,6.744,3.636,6.744,7.567c0,0.169-0.017,0.335-0.028,0.501l-0.01,0.145
			c-0.162,2.434,0.868,4.794,2.764,6.328c1.894,1.536,4.419,2.051,6.764,1.388c1.114-0.315,2.26-0.476,3.403-0.476
			c6.844,0,12.415,5.575,12.513,12.462H303.975z M372.048,377.577h-58.146l2.789-6.173c0.558-1.234,0.949-2.482,1.19-3.721
			c0.224-0.32,0.432-0.65,0.642-0.979h53.525V377.577z M395.495,393.326h-8.447v-26.622h8.447V393.326z"/>
	</g>
</g>
<g>
	<g>
		<path d="M52.023,150.532c-27.934,0-50.66,23.072-50.66,51.433c0,28.359,22.725,51.43,50.66,51.43
			c27.936,0,50.662-23.071,50.662-51.43C102.685,173.605,79.958,150.532,52.023,150.532z M52.023,238.396
			c-19.663,0-35.66-16.342-35.66-36.43c0-20.089,15.997-36.433,35.66-36.433c19.664,0,35.662,16.344,35.662,36.433
			C87.685,222.054,71.687,238.396,52.023,238.396z"/>
	</g>
</g>
<g>
	<g>
		<path d="M181.516,194.12c-11.53-3.648-12.59-4.729-16.196-16.496c-1.331-4.35-5.268-7.271-9.799-7.271
			c-4.536,0-8.475,2.927-9.796,7.269c-3.607,11.771-4.667,12.85-16.2,16.499c-4.29,1.357-7.172,5.303-7.172,9.818
			c0,4.518,2.882,8.465,7.171,9.821c11.533,3.649,12.594,4.729,16.196,16.483c1.323,4.356,5.263,7.284,9.801,7.284
			c4.532,0,8.471-2.923,9.798-7.268c3.608-11.771,4.668-12.852,16.193-16.498c4.29-1.355,7.173-5.303,7.173-9.823
			C188.685,199.419,185.802,195.473,181.516,194.12z M155.522,214.336c-2.55-4.678-5.691-7.826-10.358-10.396
			c4.667-2.569,7.806-5.717,10.357-10.395c2.55,4.679,5.689,7.826,10.357,10.395C161.212,206.509,158.071,209.659,155.522,214.336z"
			/>
	</g>
</g>
<g>
</g>
<g>
</g>
<g>
</g>
<g>
</g>
<g>
</g>
<g>
</g>
<g>
</g>
<g>
</g>
<g>
</g>
<g>
</g>
<g>
</g>
<g>
</g>
<g>
</g>
<g>
</g>
<g>
</g>
</svg>
