<?xml version="1.0" encoding="iso-8859-1"?>
<!-- Generator: Adobe Illustrator 19.0.0, SVG Export Plug-In . SVG Version: 6.00 Build 0)  -->
<svg version="1.1" id="Capa_1" xmlns="http://www.w3.org/2000/svg" xmlns:xlink="http://www.w3.org/1999/xlink" x="0px" y="0px"
	 viewBox="0 0 512 512" style="enable-background:new 0 0 512 512;" xml:space="preserve">
<g>
	<g>
		<path d="M467.907,210.5c-4.143,0-7.5,3.357-7.5,7.5v248.772c0,1.355-1.145,2.5-2.5,2.5H54.093c-1.355,0-2.5-1.145-2.5-2.5V116.424
			h127.961l13.319,21.87c3.094,5.083,9.673,8.773,15.643,8.773h94.965c5.969,0,12.548-3.689,15.643-8.771l13.318-21.871h127.963V179
			c0,4.143,3.357,7.5,7.5,7.5s7.5-3.357,7.5-7.5v-70.076v-58.94V17.5c0-9.649-7.85-17.5-17.5-17.5H54.093
			c-9.649,0-17.5,7.851-17.5,17.5v32.483v58.94v357.849c0,9.29,7.283,16.892,16.437,17.446V494.5c0,9.649,7.851,17.5,17.5,17.5
			H441.47c9.649,0,17.5-7.851,17.5-17.5v-10.281c9.153-0.555,16.437-8.156,16.437-17.446V218
			C475.407,213.857,472.05,210.5,467.907,210.5z M51.593,17.5c0-1.355,1.145-2.5,2.5-2.5h403.813c1.355,0,2.5,1.145,2.5,2.5v24.983
			H51.593V17.5z M51.593,57.484h408.813v43.94H304.999c-4.143,0-7.5,3.358-7.5,7.5c0,4.143,3.357,7.5,7.5,7.5h9.882l-8.564,14.064
			c-0.423,0.646-2.065,1.559-2.835,1.578h-94.961c-0.771-0.018-2.414-0.932-2.835-1.573l-8.569-14.069h63.882
			c4.143,0,7.5-3.357,7.5-7.5c0-4.142-3.357-7.5-7.5-7.5H51.593V57.484z M443.97,494.5c0,1.355-1.145,2.5-2.5,2.5H70.53
			c-1.355,0-2.5-1.145-2.5-2.5v-10.228H443.97V494.5z"/>
	</g>
</g>
<g>
	<g>
		<path d="M414.879,175.753H97.121c-10.849,0-19.675,8.786-19.675,19.585v189.305c0,10.799,8.826,19.585,19.675,19.585h230.878
			c4.143,0,7.5-3.357,7.5-7.5s-3.357-7.5-7.5-7.5H116.791v-32.375h278.416v32.375h-27.208c-4.143,0-7.5,3.357-7.5,7.5
			s3.357,7.5,7.5,7.5h46.879c10.849,0,19.675-8.786,19.675-19.585V195.338C434.553,184.539,425.728,175.753,414.879,175.753z
			 M101.791,389.228h-4.67c-2.534,0-4.675-2.1-4.675-4.585V195.338c0-2.485,2.141-4.585,4.675-4.585h4.67V389.228z M331.788,341.647
			c-0.083,0.073-0.208,0.157-0.307,0.205H180.517c-0.1-0.047-0.225-0.13-0.307-0.204l-9.64-23.299h170.856L331.788,341.647z
			 M335.908,303.35H176.092l-5.521-13.346h170.857L335.908,303.35z M170.57,266.5h170.857l-3.518,8.504H174.09L170.57,266.5z
			 M395.208,341.853h-14.181v0V336c0-4.143-3.357-7.5-7.5-7.5s-7.5,3.357-7.5,7.5v5.853h-18.091l9.728-23.515
			c1.476-3.564,1.18-7.318-0.813-10.299c-1.225-1.832-2.967-3.178-5.021-3.947l5.833-14.1c1.476-3.564,1.18-7.318-0.813-10.299
			c-0.875-1.309-2.024-2.355-3.353-3.138l4.165-10.067c1.476-3.565,1.18-7.318-0.813-10.299c-1.992-2.981-5.347-4.69-9.205-4.69
			H164.351c-3.858,0-7.213,1.709-9.205,4.69c-1.992,2.979-2.289,6.733-0.814,10.298l4.166,10.069
			c-1.328,0.781-2.478,1.828-3.352,3.137c-1.992,2.98-2.289,6.733-0.814,10.298l5.834,14.101c-2.054,0.77-3.796,2.115-5.02,3.947
			c-1.992,2.979-2.289,6.733-0.814,10.298l9.73,23.516h-20.527V336c0-4.143-3.358-7.5-7.5-7.5c-4.142,0-7.5,3.357-7.5,7.5v5.853
			h-11.744v-151.1h11.744V200c0,4.143,3.358,7.5,7.5,7.5c4.142,0,7.5-3.357,7.5-7.5v-9.247h32.499V200c0,4.143,3.358,7.5,7.5,7.5
			c4.142,0,7.5-3.357,7.5-7.5v-9.247h32.499V200c0,4.143,3.358,7.5,7.5,7.5c4.142,0,7.5-3.357,7.5-7.5v-9.247h32.499V200
			c0,4.143,3.357,7.5,7.5,7.5s7.5-3.357,7.5-7.5v-9.247h32.497V200c0,4.143,3.357,7.5,7.5,7.5s7.5-3.357,7.5-7.5v-9.247h32.499V200
			c0,4.143,3.357,7.5,7.5,7.5s7.5-3.357,7.5-7.5v-9.247h14.18V341.853z M419.553,384.643c0,2.485-2.141,4.585-4.675,4.585h-4.671
			V190.753h4.671c2.534,0,4.675,2.1,4.675,4.585V384.643z"/>
	</g>
</g>
<g>
	<g>
		<path d="M386.71,74.149c-1.4-1.399-3.33-2.199-5.311-2.199c-1.97,0-3.909,0.8-5.3,2.199c-1.399,1.391-2.2,3.33-2.2,5.301
			c0,1.979,0.801,3.909,2.2,5.31c1.4,1.39,3.33,2.19,5.3,2.19c1.971,0,3.91-0.801,5.311-2.19c1.39-1.4,2.189-3.33,2.189-5.31
			C388.898,77.479,388.098,75.55,386.71,74.149z"/>
	</g>
</g>
<g>
	<g>
		<path d="M409.838,74.149c-1.4-1.399-3.329-2.199-5.309-2.199c-1.971,0-3.91,0.8-5.301,2.199c-1.399,1.4-2.199,3.33-2.199,5.301
			c0,1.979,0.8,3.909,2.199,5.31c1.4,1.39,3.33,2.19,5.301,2.19c1.979,0,3.909-0.801,5.309-2.19c1.39-1.4,2.191-3.33,2.191-5.31
			C412.03,77.479,411.228,75.55,409.838,74.149z"/>
	</g>
</g>
<g>
	<g>
		<path d="M432.97,74.149c-1.39-1.399-3.33-2.199-5.3-2.199c-1.98,0-3.91,0.8-5.311,2.199c-1.39,1.4-2.189,3.33-2.189,5.301
			c0,1.979,0.8,3.909,2.189,5.31c1.4,1.39,3.33,2.19,5.311,2.19c1.97,0,3.899-0.801,5.3-2.19c1.4-1.4,2.2-3.33,2.2-5.31
			C435.17,77.479,434.37,75.55,432.97,74.149z"/>
	</g>
</g>
<g>
	<g>
		<path d="M115.987,72.511H79.462c-4.142,0-7.5,3.358-7.5,7.5c0,4.143,3.358,7.5,7.5,7.5h36.525c4.142,0,7.5-3.357,7.5-7.5
			S120.129,72.511,115.987,72.511z"/>
	</g>
</g>
<g>
	<g>
		<path d="M313.223,429.022H198.777c-4.142,0-7.5,3.357-7.5,7.5s3.358,7.5,7.5,7.5h114.445c4.143,0,7.5-3.357,7.5-7.5
			S317.366,429.022,313.223,429.022z"/>
	</g>
</g>
<g>
	<g>
		<path d="M136.035,291.5c-4.142,0-7.5,3.357-7.5,7.5v12c0,4.143,3.358,7.5,7.5,7.5c4.142,0,7.5-3.357,7.5-7.5v-12
			C143.535,294.857,140.177,291.5,136.035,291.5z"/>
	</g>
</g>
<g>
	<g>
		<path d="M136.035,254.5c-4.142,0-7.5,3.357-7.5,7.5v12c0,4.143,3.358,7.5,7.5,7.5c4.142,0,7.5-3.357,7.5-7.5v-12
			C143.535,257.857,140.177,254.5,136.035,254.5z"/>
	</g>
</g>
<g>
	<g>
		<path d="M136.035,217.5c-4.142,0-7.5,3.357-7.5,7.5v12c0,4.143,3.358,7.5,7.5,7.5c4.142,0,7.5-3.357,7.5-7.5v-12
			C143.535,220.857,140.177,217.5,136.035,217.5z"/>
	</g>
</g>
<g>
	<g>
		<path d="M183.535,217.5c-4.142,0-7.5,3.357-7.5,7.5v12c0,4.143,3.358,7.5,7.5,7.5c4.142,0,7.5-3.357,7.5-7.5v-12
			C191.035,220.857,187.676,217.5,183.535,217.5z"/>
	</g>
</g>
<g>
	<g>
		<path d="M231.033,217.5c-4.142,0-7.5,3.357-7.5,7.5v12c0,4.143,3.358,7.5,7.5,7.5c4.142,0,7.5-3.357,7.5-7.5v-12
			C238.533,220.857,235.174,217.5,231.033,217.5z"/>
	</g>
</g>
<g>
	<g>
		<path d="M278.532,217.5c-4.143,0-7.5,3.357-7.5,7.5v12c0,4.143,3.357,7.5,7.5,7.5s7.5-3.357,7.5-7.5v-12
			C286.032,220.857,282.674,217.5,278.532,217.5z"/>
	</g>
</g>
<g>
	<g>
		<path d="M326.028,217.5c-4.143,0-7.5,3.357-7.5,7.5v12c0,4.143,3.357,7.5,7.5,7.5s7.5-3.357,7.5-7.5v-12
			C333.528,220.857,330.171,217.5,326.028,217.5z"/>
	</g>
</g>
<g>
	<g>
		<path d="M373.527,254.5c-4.143,0-7.5,3.357-7.5,7.5v12c0,4.143,3.357,7.5,7.5,7.5s7.5-3.357,7.5-7.5v-12
			C381.027,257.857,377.671,254.5,373.527,254.5z"/>
	</g>
</g>
<g>
	<g>
		<path d="M373.527,217.5c-4.143,0-7.5,3.357-7.5,7.5v12c0,4.143,3.357,7.5,7.5,7.5s7.5-3.357,7.5-7.5v-12
			C381.027,220.857,377.671,217.5,373.527,217.5z"/>
	</g>
</g>
<g>
	<g>
		<path d="M373.527,291.5c-4.143,0-7.5,3.357-7.5,7.5v12c0,4.143,3.357,7.5,7.5,7.5s7.5-3.357,7.5-7.5v-12
			C381.027,294.857,377.671,291.5,373.527,291.5z"/>
	</g>
</g>
<g>
	<g>
		<path d="M422.053,415.728h-35.048c-6.893,0-12.5,5.607-12.5,12.5v15.379c0,6.893,5.607,12.5,12.5,12.5h35.048
			c6.893,0,12.5-5.607,12.5-12.5v-15.379C434.553,421.335,428.947,415.728,422.053,415.728z M419.553,441.106h-30.048v-10.379
			h30.048V441.106z"/>
	</g>
</g>
<g>
</g>
<g>
</g>
<g>
</g>
<g>
</g>
<g>
</g>
<g>
</g>
<g>
</g>
<g>
</g>
<g>
</g>
<g>
</g>
<g>
</g>
<g>
</g>
<g>
</g>
<g>
</g>
<g>
</g>
</svg>
