<?xml version="1.0" encoding="iso-8859-1"?>
<!-- Generator: Adobe Illustrator 19.0.0, SVG Export Plug-In . SVG Version: 6.00 Build 0)  -->
<svg version="1.1" id="Capa_1" xmlns="http://www.w3.org/2000/svg" xmlns:xlink="http://www.w3.org/1999/xlink" x="0px" y="0px"
	 viewBox="0 0 512 512" style="enable-background:new 0 0 512 512;" xml:space="preserve">
<g>
	<g>
		<path d="M268.864,135.65c-11.435-11.383-30.04-11.383-41.474,0l-3.119,3.105l0.001-105.057c0-11.631-9.489-21.094-21.153-21.094
			h-5.997c-5.203,0-9.973,1.883-13.661,5.002c-0.718-4.303-2.762-8.272-5.931-11.428c-4.001-3.984-9.306-6.179-14.933-6.178h-6
			c-7.118,0.001-13.427,3.527-17.262,8.921c-0.691-0.968-1.468-1.885-2.329-2.742C133.004,2.194,127.701,0,122.072,0h-5.997
			c-0.002,0-0.002,0-0.003,0c-11.66,0-21.147,9.461-21.149,21.091v2.05c-3.773-3.091-8.452-4.771-13.379-4.771l-5.994,0.001
			c-11.663,0-21.151,9.462-21.151,21.092l-0.002,338.353c-5.991,2.781-10.165,8.839-10.165,15.867v12.388
			c0,9.649,7.851,17.5,17.5,17.5h29.269c4.142,0,7.5-3.357,7.5-7.5s-3.358-7.5-7.5-7.5H61.733c-1.355,0-2.5-1.145-2.5-2.5v-12.388
			c0-1.355,1.145-2.5,2.5-2.5h155.204c1.355,0,2.5,1.145,2.5,2.5v12.388c0,1.355-1.145,2.5-2.5,2.5h-86.936
			c-4.142,0-7.5,3.357-7.5,7.5s3.358,7.5,7.5,7.5h86.935c9.65,0,17.5-7.851,17.5-17.5v-12.388
			c0.001-7.029-4.173-13.086-10.164-15.868v-156.38l9.021-8.982c2.935-2.922,2.945-7.671,0.023-10.606
			c-2.924-2.936-7.673-2.945-10.607-0.023l-11.229,11.181c-1.414,1.407-2.208,3.319-2.208,5.314v107.725H69.398L69.4,39.464
			c0-3.359,2.759-6.092,6.152-6.092l5.994-0.001c1.635,0,3.18,0.642,4.35,1.808c1.162,1.156,1.802,2.678,1.801,4.285l0.002,76.616
			c0,4.143,3.358,7.5,7.5,7.5h7.223c4.142,0,7.5-3.357,7.5-7.5l0.001-94.987c0-3.359,2.759-6.092,6.15-6.092h0.001h5.998
			c1.634,0,3.178,0.642,4.349,1.808c1.162,1.157,1.801,2.678,1.801,4.285l0.001,94.986c0,4.143,3.358,7.5,7.5,7.5h7.224
			c1.989,0,3.897-0.79,5.303-2.196c1.407-1.407,2.197-3.314,2.197-5.304l-0.001-94.983c0-3.361,2.761-6.096,6.151-6.096l6.001,0.001
			c1.634,0,3.179,0.642,4.349,1.807c1.162,1.157,1.802,2.68,1.802,4.286l-0.002,94.985c0,1.989,0.79,3.896,2.197,5.304
			c1.406,1.406,3.314,2.196,5.303,2.196h7.224c4.142,0,7.5-3.357,7.5-7.5V33.697c0-3.359,2.759-6.093,6.151-6.093h5.997
			c3.393,0,6.153,2.733,6.153,6.094l-0.001,123.108c0,3.03,1.824,5.764,4.623,6.926c2.798,1.164,6.021,0.527,8.169-1.611
			l15.911-15.842c5.598-5.573,14.708-5.575,20.307,0c2.701,2.69,4.189,6.264,4.189,10.064c0,3.8-1.488,7.374-4.189,10.063
			l-9.572,9.53c-2.935,2.922-2.945,7.671-0.023,10.607c2.923,2.934,7.672,2.944,10.607,0.022l9.572-9.53
			c5.549-5.525,8.604-12.874,8.604-20.692C277.469,148.526,274.413,141.176,268.864,135.65z M193.857,341.043h15.415v35.14h-15.415
			V341.043z M161.564,341.043h17.292v35.14h-17.292V341.043z M132.105,341.043h14.46v35.14h-14.46V341.043z M99.814,341.043h17.292
			v35.14h-0.001H99.814V341.043z M84.813,341.043v35.14H69.398v-35.14H84.813z"/>
	</g>
</g>
<g>
	<g>
		<path d="M457.604,466.245L457.603,279c0-4.143-3.358-7.5-7.5-7.5c-4.142,0-7.5,3.358-7.5,7.5l0.001,135.473H302.73V306.748
			c0-1.995-0.795-3.907-2.208-5.314l-46.801-46.598c-2.701-2.689-4.188-6.264-4.188-10.063c0-3.8,1.488-7.373,4.188-10.063
			c5.599-5.576,14.709-5.574,20.307-0.002l15.911,15.843c2.148,2.139,5.373,2.774,8.169,1.611c2.799-1.162,4.623-3.895,4.623-6.926
			l-0.001-123.108c0-3.36,2.76-6.094,6.153-6.094h5.997c3.392,0,6.151,2.733,6.151,6.093v82.382c0,4.143,3.358,7.5,7.5,7.5h7.224
			c1.989,0,3.897-0.79,5.303-2.196c1.407-1.407,2.197-3.314,2.197-5.304l-0.002-94.986c0-1.605,0.64-3.128,1.802-4.285
			c1.17-1.165,2.714-1.807,4.351-1.807h0.001l5.996-0.001c3.392,0,6.152,2.734,6.153,6.094l-0.001,94.985
			c0,1.989,0.79,3.896,2.197,5.304c1.406,1.406,3.314,2.196,5.303,2.196h7.224c4.142,0,7.5-3.357,7.5-7.5l0.001-94.989
			c0-1.604,0.639-3.125,1.801-4.282c1.17-1.166,2.715-1.808,4.349-1.808h5.998c3.391,0,6.15,2.732,6.15,6.091l0.001,94.988
			c0,4.143,3.358,7.5,7.5,7.5h7.223c4.142,0,7.5-3.357,7.5-7.5l0.002-76.617c-0.001-1.606,0.639-3.128,1.801-4.284
			c1.17-1.166,2.715-1.808,4.349-1.808l5.996,0.001c3.392,0,6.151,2.732,6.151,6.092L442.603,240c0,4.143,3.358,7.5,7.5,7.5
			c4.142,0,7.5-3.358,7.5-7.5l-0.001-112.107c0-11.63-9.488-21.092-21.15-21.092l-5.995-0.001c-0.001,0-0.002,0-0.003,0
			c-4.926,0-9.603,1.681-13.376,4.771v-2.051c-0.001-11.631-9.49-21.092-21.151-21.09h-5.998c-5.628,0-10.932,2.194-14.933,6.179
			c-0.861,0.857-1.638,1.774-2.329,2.742c-3.835-5.394-10.145-8.92-17.264-8.921l-5.997,0.001c-0.001,0-0.002,0-0.003,0
			c-5.628,0-10.931,2.194-14.932,6.178c-3.169,3.155-5.213,7.125-5.931,11.428c-3.688-3.119-8.458-5.002-13.661-5.002h-5.997
			c-11.663,0-21.153,9.463-21.153,21.094l0.001,105.057l-3.12-3.107c-11.434-11.383-30.038-11.383-41.474,0.002
			c-5.549,5.525-8.605,12.875-8.605,20.692c0,7.818,3.056,15.167,8.605,20.692l44.593,44.399v156.381
			c-5.991,2.781-10.165,8.839-10.165,15.867V494.5c0,9.649,7.85,17.5,17.5,17.5h155.204c9.649,0,17.5-7.851,17.5-17.5v-12.388
			C467.769,475.084,463.595,469.026,457.604,466.245z M427.189,429.473h15.415v35.14h-15.415V429.473z M394.897,429.473h17.292
			v35.14h-17.292V429.473z M365.437,429.473h14.46v35.14h-14.46V429.473z M333.146,429.473L333.146,429.473h17.291v35.14h-17.291
			V429.473z M302.73,429.473h15.416v35.14H302.73V429.473z M452.77,494.5L452.77,494.5c-0.001,1.355-1.146,2.5-2.501,2.5H295.066
			c-1.355,0-2.5-1.145-2.5-2.5v-12.388c0-1.355,1.145-2.5,2.5-2.5H450.27c1.355,0,2.5,1.145,2.5,2.5V494.5z"/>
	</g>
</g>
<g>
</g>
<g>
</g>
<g>
</g>
<g>
</g>
<g>
</g>
<g>
</g>
<g>
</g>
<g>
</g>
<g>
</g>
<g>
</g>
<g>
</g>
<g>
</g>
<g>
</g>
<g>
</g>
<g>
</g>
</svg>
