<?xml version="1.0" encoding="iso-8859-1"?>
<!-- Generator: Adobe Illustrator 19.0.0, SVG Export Plug-In . SVG Version: 6.00 Build 0)  -->
<svg version="1.1" id="Capa_1" xmlns="http://www.w3.org/2000/svg" xmlns:xlink="http://www.w3.org/1999/xlink" x="0px" y="0px"
	 viewBox="0 0 512 512" style="enable-background:new 0 0 512 512;" xml:space="preserve">
<g>
	<g>
		<path d="M459.582,0h-17.559c-6.893,0-12.5,5.607-12.5,12.5v12.879h-53.52c-8.493,0-15.586,6.084-17.166,14.121h-18.839
			c-4.143,0-7.5,3.357-7.5,7.5s3.357,7.5,7.5,7.5h18.505v8.011H221.088c-4.143,0-7.5,3.358-7.5,7.5v24.163h-8.066V67.709
			c0-7.283,5.948-13.209,13.26-13.209H307c4.143,0,7.5-3.357,7.5-7.5s-3.357-7.5-7.5-7.5h-88.219
			c-15.582,0-28.26,12.654-28.26,28.209v26.465h-34.795c-9.649,0-17.5,7.851-17.5,17.5v25.312h-29.051
			c-6.893,0-12.5,5.607-12.5,12.5v23.586c0,6.893,5.607,12.5,12.5,12.5h193.596c6.893,0,12.5-5.607,12.5-12.5v-23.586
			c0-6.893-5.607-12.5-12.5-12.5H273.72v-25.312c0-9.649-7.851-17.5-17.5-17.5h-27.633V77.511H358.95
			c1.77,7.788,8.736,13.625,17.053,13.625h53.52V144c0,4.143,3.357,7.5,7.5,7.5s7.5-3.357,7.5-7.5V15h12.559v482h-12.559
			L444.5,180.999c0-4.142-3.358-7.499-7.501-7.499c-4.142,0-7.499,3.358-7.499,7.501l0.016,217.909H415.5v-8.914
			c0-6.893-5.607-12.5-12.5-12.5h-26c-6.893,0-12.5,5.607-12.5,12.5v66c0,6.893,5.607,12.5,12.5,12.5h26
			c6.893,0,12.5-5.607,12.5-12.5v-8.914h14.02l0.004,52.418c0,6.893,5.607,12.5,12.5,12.5h17.559c6.893,0,12.5-5.607,12.5-12.5v-487
			C472.082,5.607,466.475,0,459.582,0z M256.221,109.174c1.355,0,2.5,1.144,2.5,2.5v25.312H245c-4.143,0-7.5,3.357-7.5,7.5
			s3.357,7.5,7.5,7.5h55.272v18.586H111.676v-18.586H212c4.143,0,7.5-3.357,7.5-7.5s-3.357-7.5-7.5-7.5h-58.773v-25.312
			c0-1.355,1.145-2.5,2.5-2.5H256.221z M429.524,76.136h-53.52c-1.355,0-2.5-1.144-2.5-2.5V42.879c0-1.355,1.145-2.5,2.5-2.5h53.52
			V76.136z M400.5,453.496h-21v-61h21V453.496z M415.5,432.082V413.91h14.018l0.001,18.172H415.5z"/>
	</g>
</g>
<g>
	<g>
		<path d="M122.463,314.5c-4.143,0-7.5,3.357-7.5,7.5v12c0,4.143,3.357,7.5,7.5,7.5s7.5-3.357,7.5-7.5v-12
			C129.963,317.857,126.605,314.5,122.463,314.5z"/>
	</g>
</g>
<g>
	<g>
		<path d="M122.463,277.5c-4.143,0-7.5,3.357-7.5,7.5v12c0,4.143,3.357,7.5,7.5,7.5s7.5-3.357,7.5-7.5v-12
			C129.963,280.857,126.605,277.5,122.463,277.5z"/>
	</g>
</g>
<g>
	<g>
		<path d="M122.463,240.5c-4.143,0-7.5,3.357-7.5,7.5v12c0,4.143,3.357,7.5,7.5,7.5s7.5-3.357,7.5-7.5v-12
			C129.963,243.857,126.605,240.5,122.463,240.5z"/>
	</g>
</g>
<g>
	<g>
		<path d="M122.463,203.5c-4.143,0-7.5,3.357-7.5,7.5v12c0,4.143,3.357,7.5,7.5,7.5s7.5-3.357,7.5-7.5v-12
			C129.963,206.857,126.605,203.5,122.463,203.5z"/>
	</g>
</g>
<g>
	<g>
		<path d="M122.463,425.5c-4.143,0-7.5,3.357-7.5,7.5v12c0,4.143,3.357,7.5,7.5,7.5s7.5-3.357,7.5-7.5v-12
			C129.963,428.857,126.605,425.5,122.463,425.5z"/>
	</g>
</g>
<g>
	<g>
		<path d="M122.463,351.5c-4.143,0-7.5,3.357-7.5,7.5v12c0,4.143,3.357,7.5,7.5,7.5s7.5-3.357,7.5-7.5v-12
			C129.963,354.857,126.605,351.5,122.463,351.5z"/>
	</g>
</g>
<g>
	<g>
		<path d="M122.463,462.5c-4.143,0-7.5,3.357-7.5,7.5v12c0,4.143,3.357,7.5,7.5,7.5s7.5-3.357,7.5-7.5v-12
			C129.963,465.857,126.605,462.5,122.463,462.5z"/>
	</g>
</g>
<g>
	<g>
		<path d="M122.463,388.5c-4.143,0-7.5,3.357-7.5,7.5v12c0,4.143,3.357,7.5,7.5,7.5s7.5-3.357,7.5-7.5v-12
			C129.963,391.857,126.605,388.5,122.463,388.5z"/>
	</g>
</g>
<g>
	<g>
		<path d="M164.217,351.5c-4.143,0-7.5,3.357-7.5,7.5v12c0,4.143,3.357,7.5,7.5,7.5s7.5-3.357,7.5-7.5v-12
			C171.717,354.857,168.359,351.5,164.217,351.5z"/>
	</g>
</g>
<g>
	<g>
		<path d="M164.217,314.5c-4.143,0-7.5,3.357-7.5,7.5v12c0,4.143,3.357,7.5,7.5,7.5s7.5-3.357,7.5-7.5v-12
			C171.717,317.857,168.359,314.5,164.217,314.5z"/>
	</g>
</g>
<g>
	<g>
		<path d="M164.217,277.5c-4.143,0-7.5,3.357-7.5,7.5v12c0,4.143,3.357,7.5,7.5,7.5s7.5-3.357,7.5-7.5v-12
			C171.717,280.857,168.359,277.5,164.217,277.5z"/>
	</g>
</g>
<g>
	<g>
		<path d="M164.217,240.5c-4.143,0-7.5,3.357-7.5,7.5v12c0,4.143,3.357,7.5,7.5,7.5s7.5-3.357,7.5-7.5v-12
			C171.717,243.857,168.359,240.5,164.217,240.5z"/>
	</g>
</g>
<g>
	<g>
		<path d="M164.217,203.5c-4.143,0-7.5,3.357-7.5,7.5v12c0,4.143,3.357,7.5,7.5,7.5s7.5-3.357,7.5-7.5v-12
			C171.717,206.857,168.359,203.5,164.217,203.5z"/>
	</g>
</g>
<g>
	<g>
		<path d="M164.217,388.5c-4.143,0-7.5,3.357-7.5,7.5v12c0,4.143,3.357,7.5,7.5,7.5s7.5-3.357,7.5-7.5v-12
			C171.717,391.857,168.359,388.5,164.217,388.5z"/>
	</g>
</g>
<g>
	<g>
		<path d="M164.217,462.5c-4.143,0-7.5,3.357-7.5,7.5v12c0,4.143,3.357,7.5,7.5,7.5s7.5-3.357,7.5-7.5v-12
			C171.717,465.857,168.359,462.5,164.217,462.5z"/>
	</g>
</g>
<g>
	<g>
		<path d="M164.217,425.5c-4.143,0-7.5,3.357-7.5,7.5v12c0,4.143,3.357,7.5,7.5,7.5s7.5-3.357,7.5-7.5v-12
			C171.717,428.857,168.359,425.5,164.217,425.5z"/>
	</g>
</g>
<g>
	<g>
		<path d="M205.973,425.5c-4.143,0-7.5,3.357-7.5,7.5v12c0,4.143,3.357,7.5,7.5,7.5s7.5-3.357,7.5-7.5v-12
			C213.473,428.857,210.115,425.5,205.973,425.5z"/>
	</g>
</g>
<g>
	<g>
		<path d="M205.973,388.5c-4.143,0-7.5,3.357-7.5,7.5v12c0,4.143,3.357,7.5,7.5,7.5s7.5-3.357,7.5-7.5v-12
			C213.473,391.857,210.115,388.5,205.973,388.5z"/>
	</g>
</g>
<g>
	<g>
		<path d="M205.973,351.5c-4.143,0-7.5,3.357-7.5,7.5v12c0,4.143,3.357,7.5,7.5,7.5s7.5-3.357,7.5-7.5v-12
			C213.473,354.857,210.115,351.5,205.973,351.5z"/>
	</g>
</g>
<g>
	<g>
		<path d="M205.973,462.5c-4.143,0-7.5,3.357-7.5,7.5v12c0,4.143,3.357,7.5,7.5,7.5s7.5-3.357,7.5-7.5v-12
			C213.473,465.857,210.115,462.5,205.973,462.5z"/>
	</g>
</g>
<g>
	<g>
		<path d="M205.973,203.5c-4.143,0-7.5,3.357-7.5,7.5v12c0,4.143,3.357,7.5,7.5,7.5s7.5-3.357,7.5-7.5v-12
			C213.473,206.857,210.115,203.5,205.973,203.5z"/>
	</g>
</g>
<g>
	<g>
		<path d="M205.973,240.5c-4.143,0-7.5,3.357-7.5,7.5v12c0,4.143,3.357,7.5,7.5,7.5s7.5-3.357,7.5-7.5v-12
			C213.473,243.857,210.115,240.5,205.973,240.5z"/>
	</g>
</g>
<g>
	<g>
		<path d="M205.973,314.5c-4.143,0-7.5,3.357-7.5,7.5v12c0,4.143,3.357,7.5,7.5,7.5s7.5-3.357,7.5-7.5v-12
			C213.473,317.857,210.115,314.5,205.973,314.5z"/>
	</g>
</g>
<g>
	<g>
		<path d="M205.973,277.5c-4.143,0-7.5,3.357-7.5,7.5v12c0,4.143,3.357,7.5,7.5,7.5s7.5-3.357,7.5-7.5v-12
			C213.473,280.857,210.115,277.5,205.973,277.5z"/>
	</g>
</g>
<g>
	<g>
		<path d="M247.729,240.5c-4.143,0-7.5,3.357-7.5,7.5v12c0,4.143,3.357,7.5,7.5,7.5s7.5-3.357,7.5-7.5v-12
			C255.229,243.857,251.871,240.5,247.729,240.5z"/>
	</g>
</g>
<g>
	<g>
		<path d="M247.729,462.5c-4.143,0-7.5,3.357-7.5,7.5v12c0,4.143,3.357,7.5,7.5,7.5s7.5-3.357,7.5-7.5v-12
			C255.229,465.857,251.871,462.5,247.729,462.5z"/>
	</g>
</g>
<g>
	<g>
		<path d="M247.729,203.5c-4.143,0-7.5,3.357-7.5,7.5v12c0,4.143,3.357,7.5,7.5,7.5s7.5-3.357,7.5-7.5v-12
			C255.229,206.857,251.871,203.5,247.729,203.5z"/>
	</g>
</g>
<g>
	<g>
		<path d="M247.729,314.5c-4.143,0-7.5,3.357-7.5,7.5v12c0,4.143,3.357,7.5,7.5,7.5s7.5-3.357,7.5-7.5v-12
			C255.229,317.857,251.871,314.5,247.729,314.5z"/>
	</g>
</g>
<g>
	<g>
		<path d="M247.729,277.5c-4.143,0-7.5,3.357-7.5,7.5v12c0,4.143,3.357,7.5,7.5,7.5s7.5-3.357,7.5-7.5v-12
			C255.229,280.857,251.871,277.5,247.729,277.5z"/>
	</g>
</g>
<g>
	<g>
		<path d="M247.729,351.5c-4.143,0-7.5,3.357-7.5,7.5v12c0,4.143,3.357,7.5,7.5,7.5s7.5-3.357,7.5-7.5v-12
			C255.229,354.857,251.871,351.5,247.729,351.5z"/>
	</g>
</g>
<g>
	<g>
		<path d="M247.729,425.5c-4.143,0-7.5,3.357-7.5,7.5v12c0,4.143,3.357,7.5,7.5,7.5s7.5-3.357,7.5-7.5v-12
			C255.229,428.857,251.871,425.5,247.729,425.5z"/>
	</g>
</g>
<g>
	<g>
		<path d="M247.729,388.5c-4.143,0-7.5,3.357-7.5,7.5v12c0,4.143,3.357,7.5,7.5,7.5s7.5-3.357,7.5-7.5v-12
			C255.229,391.857,251.871,388.5,247.729,388.5z"/>
	</g>
</g>
<g>
	<g>
		<path d="M289.484,240.5c-4.143,0-7.5,3.357-7.5,7.5v12c0,4.143,3.357,7.5,7.5,7.5s7.5-3.357,7.5-7.5v-12
			C296.984,243.857,293.627,240.5,289.484,240.5z"/>
	</g>
</g>
<g>
	<g>
		<path d="M289.484,277.5c-4.143,0-7.5,3.357-7.5,7.5v12c0,4.143,3.357,7.5,7.5,7.5s7.5-3.357,7.5-7.5v-12
			C296.984,280.857,293.627,277.5,289.484,277.5z"/>
	</g>
</g>
<g>
	<g>
		<path d="M289.484,203.5c-4.143,0-7.5,3.357-7.5,7.5v12c0,4.143,3.357,7.5,7.5,7.5s7.5-3.357,7.5-7.5v-12
			C296.984,206.857,293.627,203.5,289.484,203.5z"/>
	</g>
</g>
<g>
	<g>
		<path d="M289.484,314.5c-4.143,0-7.5,3.357-7.5,7.5v12c0,4.143,3.357,7.5,7.5,7.5s7.5-3.357,7.5-7.5v-12
			C296.984,317.857,293.627,314.5,289.484,314.5z"/>
	</g>
</g>
<g>
	<g>
		<path d="M289.484,425.5c-4.143,0-7.5,3.357-7.5,7.5v12c0,4.143,3.357,7.5,7.5,7.5s7.5-3.357,7.5-7.5v-12
			C296.984,428.857,293.627,425.5,289.484,425.5z"/>
	</g>
</g>
<g>
	<g>
		<path d="M289.484,351.5c-4.143,0-7.5,3.357-7.5,7.5v12c0,4.143,3.357,7.5,7.5,7.5s7.5-3.357,7.5-7.5v-12
			C296.984,354.857,293.627,351.5,289.484,351.5z"/>
	</g>
</g>
<g>
	<g>
		<path d="M289.484,462.5c-4.143,0-7.5,3.357-7.5,7.5v12c0,4.143,3.357,7.5,7.5,7.5s7.5-3.357,7.5-7.5v-12
			C296.984,465.857,293.627,462.5,289.484,462.5z"/>
	</g>
</g>
<g>
	<g>
		<path d="M289.484,388.5c-4.143,0-7.5,3.357-7.5,7.5v12c0,4.143,3.357,7.5,7.5,7.5s7.5-3.357,7.5-7.5v-12
			C296.984,391.857,293.627,388.5,289.484,388.5z"/>
	</g>
</g>
<g>
	<g>
		<path d="M372.642,223.804c-11.848-3.727-13.104-4.999-16.804-17.006c-1.348-4.365-5.314-7.298-9.871-7.298
			c-4.56,0-8.527,2.936-9.869,7.303c-3.697,12.002-4.954,13.272-16.797,16.999c-4.334,1.358-7.246,5.332-7.246,9.886
			c0,4.552,2.91,8.524,7.239,9.886c11.85,3.729,13.105,4.999,16.802,16.994c1.342,4.372,5.309,7.31,9.871,7.31
			c4.558,0,8.524-2.934,9.872-7.302c3.699-12.003,4.955-13.274,16.801-17.001c4.33-1.362,7.239-5.336,7.239-9.887
			C379.879,229.133,376.968,225.161,372.642,223.804z M345.969,244.766c-2.691-5.046-6.013-8.372-11.051-11.077
			c5.038-2.705,8.359-6.032,11.051-11.077c2.69,5.046,6.01,8.371,11.05,11.077C351.979,236.394,348.659,239.72,345.969,244.766z"/>
	</g>
</g>
<g>
	<g>
		<path d="M93.069,417.203c-9.8-3.084-10.563-3.856-13.629-13.804c-1.297-4.185-5.104-6.996-9.474-6.996
			c-4.375,0-8.183,2.816-9.475,7.009c-3.061,9.934-3.824,10.707-13.617,13.788c-4.161,1.304-6.957,5.116-6.957,9.487
			c0,4.368,2.793,8.181,6.948,9.486c9.801,3.084,10.565,3.857,13.626,13.79c1.291,4.192,5.099,7.01,9.475,7.01
			c4.371,0,8.179-2.813,9.478-7.008c3.062-9.935,3.826-10.709,13.619-13.79c4.159-1.305,6.954-5.118,6.954-9.488
			C100.018,422.315,97.221,418.501,93.069,417.203z M69.968,433.901c-1.888-3.048-4.153-5.317-7.198-7.213
			c3.044-1.896,5.312-4.166,7.199-7.213c1.889,3.047,4.154,5.316,7.199,7.212C74.123,428.584,71.856,430.853,69.968,433.901z"/>
	</g>
</g>
<g>
</g>
<g>
</g>
<g>
</g>
<g>
</g>
<g>
</g>
<g>
</g>
<g>
</g>
<g>
</g>
<g>
</g>
<g>
</g>
<g>
</g>
<g>
</g>
<g>
</g>
<g>
</g>
<g>
</g>
</svg>
