<?xml version="1.0" encoding="iso-8859-1"?>
<!-- Generator: Adobe Illustrator 19.0.0, SVG Export Plug-In . SVG Version: 6.00 Build 0)  -->
<svg version="1.1" id="Capa_1" xmlns="http://www.w3.org/2000/svg" xmlns:xlink="http://www.w3.org/1999/xlink" x="0px" y="0px"
	 viewBox="0 0 512 512" style="enable-background:new 0 0 512 512;" xml:space="preserve">
<g>
	<g>
		<path d="M125.213,267.998c-33.958,0-61.585,27.999-61.585,62.414c0,34.416,27.627,62.416,61.585,62.416s61.584-28,61.584-62.416
			C186.797,295.997,159.171,267.998,125.213,267.998z M125.213,377.828c-25.688,0-46.585-21.27-46.585-47.416
			c0-26.145,20.897-47.414,46.585-47.414c25.687,0,46.584,21.27,46.584,47.414C171.797,356.557,150.899,377.828,125.213,377.828z"/>
	</g>
</g>
<g>
	<g>
		<path d="M440.807,119.955c-39.254,0-71.189,32.377-71.189,72.174c0,39.794,31.936,72.168,71.189,72.168
			c39.256,0,71.193-32.374,71.193-72.168C512,152.332,480.063,119.955,440.807,119.955z M440.807,249.297
			c-30.983,0-56.189-25.646-56.189-57.168c0-31.525,25.206-57.174,56.189-57.174c30.985,0,56.193,25.648,56.193,57.174
			C497,223.651,471.792,249.297,440.807,249.297z"/>
	</g>
</g>
<g>
	<g>
		<path d="M326.593,233.863c-19.256,0-34.921,15.855-34.921,35.342s15.665,35.342,34.921,35.342c19.255,0,34.92-15.854,34.92-35.342
			C361.513,249.717,345.848,233.863,326.593,233.863z M326.593,289.547c-10.984,0-19.921-9.125-19.921-20.342
			c0-11.217,8.936-20.342,19.921-20.342c10.983,0,19.92,9.125,19.92,20.342C346.513,280.422,337.577,289.547,326.593,289.547z"/>
	</g>
</g>
<g>
	<g>
		<path d="M469.58,414.746h-20.716c6.274-9.71,9.647-21.144,9.635-33.199c-0.017-14.991-5.1-27.901-14.701-37.336
			c-9.227-9.066-22.086-14.06-36.211-14.06c-2.899,0-5.873,0.21-8.839,0.624c-21.059,2.619-42.496,3.947-63.712,3.947
			c-21.217,0-42.653-1.328-63.713-3.947c-2.966-0.414-5.939-0.624-8.839-0.624c-4.15,0-8.186,0.442-12.058,1.281v-97.931
			c0-15.336-4.143-30.331-11.98-43.364c-2.136-3.551-6.745-4.694-10.293-2.563c-3.55,2.135-4.696,6.743-2.563,10.293
			c5.151,8.565,8.353,18.172,9.427,28.134H15.412c3.686-34.205,32.256-60.91,66.852-60.91h85.898c11.254,0,22.387,2.88,32.194,8.329
			c3.619,2.014,8.187,0.707,10.198-2.913c2.012-3.621,0.708-8.186-2.913-10.198c-9.61-5.34-20.257-8.662-31.184-9.785v-40.7
			c0-6.893-5.607-12.5-12.5-12.5h-15.953V65.73h15.953c6.893,0,12.5-5.607,12.5-12.5V39.109h44.651v24.803
			c0,4.143,3.357,7.5,7.5,7.5s7.5-3.357,7.5-7.5V36.609c0-6.893-5.607-12.5-12.5-12.5h-47.151v-2.268c0-6.893-5.607-12.5-12.5-12.5
			H86.469c-6.893,0-12.5,5.607-12.5,12.5V53.23c0,6.893,5.607,12.5,12.5,12.5h15.952v31.594H86.469c-6.893,0-12.5,5.607-12.5,12.5
			v40.691C32.489,154.746,0,190.349,0,233.502v215.686v5.592v35.379c0,6.893,5.607,12.5,12.5,12.5h422.121
			c5.93,0,11.819-4.24,13.698-9.862l10.287-30.747h10.974c6.893,0,12.5-5.607,12.5-12.5v-22.303
			C482.08,420.353,476.473,414.746,469.58,414.746z M88.969,50.73V24.342h72.489V50.73H88.969z M133.005,65.73v31.594h-15.584V65.73
			H133.005z M88.969,112.324h72.489v37.768H88.969V112.324z M15,487.658v-25.379h45c4.143,0,7.5-3.357,7.5-7.5s-3.357-7.5-7.5-7.5
			H15V241.002h220.427v96.225c-3.331,1.953-6.407,4.283-9.155,6.983c-9.602,9.435-14.685,22.345-14.7,37.337
			c-0.013,12.055,3.36,23.488,9.638,33.199h-20.72c-6.893,0-12.5,5.607-12.5,12.5v20.033H102c-4.143,0-7.5,3.357-7.5,7.5
			s3.357,7.5,7.5,7.5h109.543l8.49,25.379H15z M434.221,487.658H235.852l-8.568-25.609H442.79L434.221,487.658z M467.08,447.049
			H202.99v-17.303H354c4.143,0,7.5-3.357,7.5-7.5s-3.357-7.5-7.5-7.5H240.56c-0.295-0.279-0.592-0.556-0.88-0.845
			c-8.467-8.477-13.122-19.961-13.108-32.339c0.023-21.778,14.456-36.411,35.913-36.411c2.223,0,4.515,0.164,6.811,0.486
			c0.039,0.006,0.078,0.011,0.117,0.016c21.69,2.7,43.77,4.069,65.623,4.069s43.932-1.369,65.622-4.069
			c0.039-0.005,0.078-0.01,0.117-0.016c2.297-0.322,4.589-0.486,6.812-0.486c21.456,0,35.889,14.633,35.912,36.411
			c0.014,12.381-4.642,23.867-13.109,32.343c-0.287,0.287-0.582,0.563-0.876,0.841H397c-4.143,0-7.5,3.357-7.5,7.5
			s3.357,7.5,7.5,7.5h70.08V447.049z"/>
	</g>
</g>
<g>
</g>
<g>
</g>
<g>
</g>
<g>
</g>
<g>
</g>
<g>
</g>
<g>
</g>
<g>
</g>
<g>
</g>
<g>
</g>
<g>
</g>
<g>
</g>
<g>
</g>
<g>
</g>
<g>
</g>
</svg>
