<?xml version="1.0" encoding="iso-8859-1"?>
<!-- Generator: Adobe Illustrator 19.0.0, SVG Export Plug-In . SVG Version: 6.00 Build 0)  -->
<svg version="1.1" id="Capa_1" xmlns="http://www.w3.org/2000/svg" xmlns:xlink="http://www.w3.org/1999/xlink" x="0px" y="0px"
	 viewBox="0 0 512 512" style="enable-background:new 0 0 512 512;" xml:space="preserve">
<g>
	<g>
		<path d="M157.022,248.656c-8.995-8.993-23.63-8.994-32.625-0.001c-2.93,2.928-2.931,7.677-0.003,10.606
			c1.465,1.465,3.385,2.198,5.305,2.198c1.919,0,3.838-0.732,5.302-2.196c3.147-3.145,8.268-3.146,11.415,0
			c2.93,2.929,7.679,2.929,10.607-0.001C159.952,256.333,159.952,251.584,157.022,248.656z"/>
	</g>
</g>
<g>
	<g>
		<path d="M212.965,261.111c-8.996-8.994-23.632-8.995-32.626,0c-2.929,2.929-2.929,7.678,0.001,10.607
			c1.464,1.465,3.384,2.197,5.303,2.197s3.839-0.732,5.304-2.197c3.147-3.147,8.268-3.146,11.413,0
			c2.93,2.929,7.679,2.928,10.606-0.001C215.895,268.788,215.895,264.039,212.965,261.111z"/>
	</g>
</g>
<g>
	<g>
		<path d="M270.684,248.656c-8.994-8.993-23.63-8.993-32.624,0c-2.93,2.928-2.931,7.677-0.003,10.606
			c1.465,1.465,3.385,2.198,5.305,2.198c1.918-0.001,3.837-0.733,5.301-2.197c3.148-3.145,8.269-3.146,11.415,0
			c2.93,2.929,7.679,2.929,10.607-0.001C273.614,256.333,273.614,251.584,270.684,248.656z"/>
	</g>
</g>
<g>
	<g>
		<path d="M496.606,179.65c9.207-3.115,15.394-11.738,15.394-21.457v-77.53c0-12.49-10.162-22.652-22.652-22.652H290.33
			c-12.49,0-22.652,10.162-22.652,22.652v77.53c0,9.719,6.187,18.342,15.394,21.457l7.128,2.411v31.752H190
			c-4.143,0-7.5,3.358-7.5,7.5c0,4.142,3.357,7.5,7.5,7.5h100.2v24.701l-7.128,2.411c-9.207,3.115-15.394,11.738-15.394,21.458
			v16.048H101.5v-53.434c0-6.167,5.017-11.184,11.184-11.184H156c4.143,0,7.5-3.358,7.5-7.5c0-4.142-3.357-7.5-7.5-7.5h-43.316
			c-14.438,0-26.184,11.746-26.184,26.184v60.934v13.803v7.347H26.184C11.746,322.081,0,333.827,0,348.265v52.134v22v8.417
			c0,6.661,4.76,12.345,11.321,13.516c3.124,0.557,5.144,1.85,7.707,3.493c4.291,2.746,9.632,6.162,19.609,6.162
			c9.979,0,15.321-3.418,19.616-6.167c3.441-2.205,5.927-3.797,11.521-3.797c5.592,0,8.08,1.594,11.526,3.801
			c4.292,2.746,9.633,6.164,19.612,6.164c9.977,0,15.317-3.418,19.611-6.166c3.444-2.206,5.934-3.799,11.522-3.799
			c5.593,0,8.082,1.594,11.528,3.8c4.291,2.746,9.63,6.165,19.609,6.165s15.321-3.418,19.616-6.167
			c3.441-2.205,5.927-3.797,11.521-3.797c5.591,0,8.08,1.594,11.526,3.8c4.291,2.746,9.63,6.165,19.614,6.165
			c9.983,0,15.325-3.42,19.618-6.17c3.446-2.203,5.936-3.795,11.524-3.795c5.592,0,8.081,1.593,11.526,3.798
			c4.291,2.747,9.633,6.166,19.614,6.166c9.984,0,15.325-3.419,19.617-6.167c3.445-2.205,5.935-3.797,11.525-3.797
			c5.595,0,8.084,1.593,11.533,3.801c4.292,2.746,9.633,6.164,19.614,6.164c9.984,0,15.325-3.419,19.617-6.166
			c2.561-1.638,4.583-2.932,7.715-3.49c6.557-1.171,11.315-6.855,11.315-13.515v-8.419v-22v-22.835h100.664
			c12.49,0,22.652-10.162,22.652-22.652v-77.531c0-9.719-6.186-18.342-15.394-21.457l-7.126-2.411V182.06L496.606,179.65z
			 M101.5,308.432h166.178v13.649H101.5V308.432z M373.684,392.899H316c-4.143,0-7.5,3.358-7.5,7.5c0,4.142,3.357,7.5,7.5,7.5
			h57.684v21.871c-5.478,1.17-9.139,3.512-12.117,5.418c-3.701,2.37-5.936,3.8-11.53,3.8c-5.593,0-7.827-1.43-11.532-3.801
			c-4.064-2.602-9.631-6.164-19.615-6.164c-9.979,0-15.318,3.417-19.613,6.165c-3.701,2.37-5.936,3.8-11.529,3.8
			c-5.592,0-7.826-1.43-11.529-3.801c-4.064-2.601-9.63-6.164-19.611-6.164c-9.974,0-15.313,3.414-19.615,6.164
			c-3.701,2.37-5.935,3.801-11.527,3.801c-5.594,0-7.827-1.43-11.526-3.798c-4.292-2.747-9.634-6.167-19.614-6.167
			c-9.987,0-15.551,3.564-19.61,6.166c-3.702,2.369-5.936,3.799-11.527,3.799c-5.589,0-7.822-1.43-11.521-3.798
			c-4.292-2.747-9.634-6.167-19.616-6.167c-9.979,0-15.318,3.419-19.608,6.166c-3.702,2.369-5.937,3.799-11.524,3.799
			c-5.591,0-7.826-1.43-11.525-3.797c-4.29-2.747-9.63-6.167-19.613-6.167c-9.987,0-15.551,3.564-19.61,6.166
			c-3.702,2.369-5.937,3.799-11.527,3.799c-5.59,0-7.824-1.429-11.523-3.796c-2.975-1.907-6.635-4.252-12.114-5.422v-21.872h262
			c4.143,0,7.5-3.358,7.5-7.5c0-4.142-3.357-7.5-7.5-7.5H15v-44.634c0-6.167,5.017-11.184,11.184-11.184H362.5
			c6.167,0,11.184,5.017,11.184,11.184V392.899z M479.577,265.999l12.223,4.135c3.11,1.052,5.2,3.965,5.2,7.248v77.531
			c0,4.219-3.433,7.652-7.652,7.652h-18.604c0.861-2.392,1.333-4.967,1.333-7.652v-77.531c0-9.72-6.186-18.343-15.393-21.457
			l-7.126-2.411v-18.115c0-4.142-3.357-7.5-7.5-7.5s-7.5,3.358-7.5,7.5v23.495c0,3.216,2.05,6.074,5.097,7.104l12.223,4.135
			c3.11,1.052,5.2,3.965,5.2,7.248v77.531c0,4.219-3.434,7.652-7.653,7.652h-60.74v-14.299c0-14.438-11.746-26.184-26.184-26.184
			h-79.822v-44.698c0-3.284,2.09-6.197,5.2-7.249l12.224-4.135c3.046-1.03,5.097-3.889,5.097-7.104v-82.214
			c0-3.216-2.051-6.074-5.097-7.105l-12.225-4.135c-3.11-1.052-5.2-3.965-5.2-7.248v-77.53c0-4.219,3.433-7.652,7.652-7.652h159.094
			c4.22,0,7.653,3.433,7.653,7.652v77.53c0,3.283-2.09,6.196-5.2,7.248l-12.223,4.135c-3.047,1.031-5.097,3.889-5.097,7.105v23.718
			c0,4.142,3.357,7.5,7.5,7.5s7.5-3.358,7.5-7.5v-18.338l7.126-2.411c9.207-3.114,15.393-11.737,15.393-21.457v-77.53
			c0-2.685-0.472-5.26-1.333-7.652h18.604c4.22,0,7.652,3.433,7.652,7.652v77.53c0,3.283-2.09,6.196-5.2,7.248l-12.223,4.135
			c-3.047,1.031-5.097,3.889-5.097,7.105v82.214C474.48,262.11,476.53,264.968,479.577,265.999z"/>
	</g>
</g>
<g>
	<g>
		<path d="M339.343,124.33c-12.49,0-22.651,10.161-22.651,22.651c0,4.142,3.358,7.5,7.5,7.5c4.143,0,7.5-3.358,7.5-7.5
			c0-4.219,3.433-7.651,7.651-7.651c4.22,0,7.652,3.433,7.652,7.651c0,4.142,3.357,7.5,7.5,7.5s7.5-3.358,7.5-7.5
			C361.995,134.491,351.833,124.33,339.343,124.33z"/>
	</g>
</g>
<g>
	<g>
		<path d="M390.861,169.377c-12.49,0-22.652,10.162-22.652,22.652c0,4.142,3.357,7.5,7.5,7.5s7.5-3.358,7.5-7.5
			c0-4.219,3.433-7.652,7.652-7.652s7.651,3.433,7.651,7.652c0,4.142,3.357,7.5,7.5,7.5s7.5-3.358,7.5-7.5
			C413.512,179.538,403.351,169.377,390.861,169.377z"/>
	</g>
</g>
<g>
	<g>
		<path d="M356.067,217.449c-12.491,0-22.653,10.162-22.653,22.652c0,4.142,3.357,7.5,7.5,7.5s7.5-3.358,7.5-7.5
			c0-4.219,3.434-7.652,7.653-7.652s7.651,3.433,7.651,7.652c0,4.142,3.357,7.5,7.5,7.5c4.142,0,7.5-3.358,7.5-7.5
			C378.719,227.611,368.558,217.449,356.067,217.449z"/>
	</g>
</g>
<g>
	<g>
		<path d="M403.81,96.626c-12.49,0-22.652,10.161-22.652,22.651c0,4.142,3.358,7.5,7.5,7.5c4.143,0,7.5-3.358,7.5-7.5
			c0-4.219,3.433-7.651,7.652-7.651c4.22,0,7.652,3.433,7.652,7.651c0,4.142,3.357,7.5,7.5,7.5s7.5-3.358,7.5-7.5
			C426.462,106.787,416.3,96.626,403.81,96.626z"/>
	</g>
</g>
<g>
	<g>
		<path d="M404.497,259.801c-12.49,0-22.652,10.162-22.652,22.652c0,4.142,3.357,7.5,7.5,7.5s7.5-3.358,7.5-7.5
			c0-4.219,3.433-7.652,7.652-7.652s7.651,3.433,7.651,7.652c0,4.142,3.357,7.5,7.5,7.5s7.5-3.358,7.5-7.5
			C427.148,269.962,416.987,259.801,404.497,259.801z"/>
	</g>
</g>
<g>
	<g>
		<path d="M334.055,283.467c-12.49,0-22.651,10.162-22.651,22.652c0,4.142,3.357,7.5,7.5,7.5s7.5-3.358,7.5-7.5
			c0-4.219,3.433-7.652,7.651-7.652c4.22,0,7.652,3.433,7.652,7.652c0,4.142,3.358,7.5,7.5,7.5c4.143,0,7.5-3.358,7.5-7.5
			C356.707,293.629,346.545,283.467,334.055,283.467z"/>
	</g>
</g>
<g>
	<g>
		<path d="M70.521,353.86c-8.994-8.993-23.629-8.994-32.624-0.001c-2.93,2.928-2.931,7.677-0.003,10.606
			c1.465,1.465,3.385,2.198,5.305,2.198c1.919,0,3.838-0.732,5.302-2.196c3.147-3.145,8.268-3.146,11.415,0
			c2.93,2.929,7.679,2.929,10.606-0.001C73.451,361.537,73.451,356.788,70.521,353.86z"/>
	</g>
</g>
<g>
	<g>
		<path d="M126.465,366.317c-8.995-8.996-23.632-8.994-32.625-0.001c-2.93,2.929-2.93,7.678-0.001,10.607
			c1.465,1.464,3.384,2.197,5.304,2.197c1.919,0,3.839-0.732,5.303-2.196c3.146-3.146,8.268-3.146,11.414,0
			c2.93,2.929,7.679,2.929,10.606-0.001C129.395,373.994,129.395,369.245,126.465,366.317z"/>
	</g>
</g>
<g>
	<g>
		<path d="M184.185,353.86c-8.996-8.993-23.631-8.994-32.625-0.001c-2.93,2.928-2.931,7.677-0.003,10.606
			c1.465,1.465,3.385,2.198,5.305,2.198c1.919,0,3.838-0.732,5.302-2.196c3.148-3.145,8.268-3.146,11.415,0
			c2.93,2.929,7.679,2.929,10.607-0.001C187.115,361.537,187.115,356.788,184.185,353.86z"/>
	</g>
</g>
<g>
	<g>
		<path d="M240.127,366.317c-8.995-8.996-23.632-8.994-32.625-0.001c-2.93,2.929-2.93,7.678-0.001,10.607
			c1.465,1.464,3.384,2.197,5.304,2.197c1.919,0,3.839-0.732,5.303-2.196c3.146-3.146,8.268-3.146,11.414,0
			c2.93,2.929,7.679,2.929,10.606-0.001C243.057,373.994,243.057,369.245,240.127,366.317z"/>
	</g>
</g>
<g>
	<g>
		<path d="M297.847,353.859c-8.996-8.992-23.633-8.993-32.625,0c-2.93,2.928-2.931,7.677-0.003,10.606
			c2.929,2.93,7.678,2.931,10.606,0.002c3.147-3.145,8.269-3.145,11.416,0c1.465,1.464,3.384,2.196,5.303,2.196
			c1.92,0,3.84-0.733,5.304-2.198C300.777,361.536,300.776,356.787,297.847,353.859z"/>
	</g>
</g>
<g>
	<g>
		<path d="M353.789,366.317c-8.995-8.996-23.632-8.994-32.625-0.001c-2.93,2.929-2.93,7.678-0.001,10.607
			c1.465,1.464,3.384,2.197,5.304,2.197c1.919,0,3.839-0.732,5.303-2.196c3.146-3.146,8.268-3.146,11.414,0
			c2.93,2.929,7.679,2.929,10.606-0.001C356.719,373.994,356.719,369.245,353.789,366.317z"/>
	</g>
</g>
<g>
</g>
<g>
</g>
<g>
</g>
<g>
</g>
<g>
</g>
<g>
</g>
<g>
</g>
<g>
</g>
<g>
</g>
<g>
</g>
<g>
</g>
<g>
</g>
<g>
</g>
<g>
</g>
<g>
</g>
</svg>
