<?xml version="1.0" encoding="iso-8859-1"?>
<!-- Generator: Adobe Illustrator 19.0.0, SVG Export Plug-In . SVG Version: 6.00 Build 0)  -->
<svg version="1.1" id="Capa_1" xmlns="http://www.w3.org/2000/svg" xmlns:xlink="http://www.w3.org/1999/xlink" x="0px" y="0px"
	 viewBox="0 0 512 512" style="enable-background:new 0 0 512 512;" xml:space="preserve">
<g>
	<g>
		<path d="M437.65,466.275h-5.546v-18.838c0-36.221-21.303-67.546-52.029-82.145c3.037-4.016,4.843-9.012,4.843-14.424
			c0-13.212-10.748-23.961-23.96-23.961h-9.17V159.055c4.361-1.954,7.412-6.327,7.412-11.407V78c0-4.142-3.357-7.5-7.5-7.5
			s-7.5,3.358-7.5,7.5v67.148h-27.936V15H344.2v27c0,4.142,3.357,7.5,7.5,7.5s7.5-3.358,7.5-7.5V12.5c0-6.893-5.607-12.5-12.5-12.5
			h-32.936c-6.892,0-12.5,5.607-12.5,12.5v135.148c0,5.08,3.05,9.453,7.411,11.406v167.854h-9.17
			c-13.212,0-23.96,10.749-23.96,23.961c0,5.412,1.806,10.408,4.843,14.424c-30.728,14.598-52.03,45.924-52.03,82.145v18.838h-5.545
			c-9.649,0-17.5,7.851-17.5,17.5V494.5c0,9.649,7.851,17.5,17.5,17.5H437.65c9.649,0,17.5-7.851,17.5-17.5v-10.725
			C455.15,474.125,447.3,466.275,437.65,466.275z M323.676,160.148h13.112v166.76h-13.112V160.148z M299.506,341.908h61.452
			c4.94,0,8.96,4.02,8.96,8.961c0,4.94-4.02,8.959-8.96,8.959h-61.452c-4.94,0-8.96-4.019-8.96-8.959
			C290.546,345.928,294.565,341.908,299.506,341.908z M440.15,494.5c0,1.355-1.145,2.5-2.5,2.5H222.814c-1.356,0-2.5-1.145-2.5-2.5
			v-10.725c0-1.355,1.144-2.5,2.5-2.5H349c4.143,0,7.5-3.358,7.5-7.5c0-4.142-3.357-7.5-7.5-7.5H243.358v-18.838
			c0-34.167,22.696-63.123,53.801-72.609h66.145c31.104,9.486,53.8,38.442,53.8,72.609v18.838H393c-4.143,0-7.5,3.358-7.5,7.5
			c0,4.142,3.357,7.5,7.5,7.5h44.65c1.355,0,2.5,1.145,2.5,2.5V494.5z"/>
	</g>
</g>
<g>
	<g>
		<path d="M218.586,398.122h-69.618v-4.776h69.618c4.143,0,7.5-3.358,7.5-7.5c0-4.142-3.357-7.5-7.5-7.5h-69.618v-4.775h67.285
			c4.143,0,7.5-3.358,7.5-7.5c0-4.142-3.357-7.5-7.5-7.5h-67.285v-4.777h61.927c4.143,0,7.5-3.358,7.5-7.5
			c0-4.142-3.357-7.5-7.5-7.5h-61.927v-6.421h34.108c10.367,0,18.802-8.434,18.802-18.8c0-10.367-8.434-18.801-18.802-18.801h-7.975
			c-2.322-5.708-6.058-10.693-10.768-14.526v-91.315c0-4.142-3.357-7.5-7.5-7.5s-7.5,3.358-7.5,7.5v12.063h-15.732V142.12h15.732
			v7.809c0,4.142,3.357,7.5,7.5,7.5s7.5-3.358,7.5-7.5V62.863c7.779-6.537,12.736-16.329,12.736-27.261
			C177.07,15.971,161.099,0,141.468,0s-35.602,15.971-35.602,35.602c0,10.932,4.956,20.725,12.735,27.261v217.381
			c-4.71,3.833-8.445,8.818-10.768,14.526H99.86c-10.367,0-18.801,8.434-18.801,18.801s8.434,18.8,18.801,18.8h34.107v6.421H72.042
			c-4.143,0-7.5,3.358-7.5,7.5c0,4.142,3.357,7.5,7.5,7.5h61.926v4.777H66.685c-4.143,0-7.5,3.358-7.5,7.5
			c0,4.142,3.357,7.5,7.5,7.5h67.283v4.775H64.35c-4.143,0-7.5,3.358-7.5,7.5c0,4.142,3.357,7.5,7.5,7.5h69.618v4.776H64.35
			c-4.143,0-7.5,3.358-7.5,7.5c0,4.142,3.357,7.5,7.5,7.5h69.618v4.774H66.685c-4.143,0-7.5,3.358-7.5,7.5
			c0,4.142,3.357,7.5,7.5,7.5h67.283v4.778H72.042c-4.143,0-7.5,3.358-7.5,7.5c0,4.142,3.357,7.5,7.5,7.5h61.926v4.775H81.853
			c-4.143,0-7.5,3.358-7.5,7.5c0,4.142,3.357,7.5,7.5,7.5h52.115v4.775H90.996c-4.143,0-7.5,3.358-7.5,7.5
			c0,4.142,3.357,7.5,7.5,7.5h42.972V497h-16.889c-4.143,0-7.5,3.358-7.5,7.5c0,4.142,3.357,7.5,7.5,7.5h48.777
			c4.143,0,7.5-3.358,7.5-7.5c0-4.142-3.357-7.5-7.5-7.5h-16.889v-4.776h42.974c4.143,0,7.5-3.358,7.5-7.5
			c0-4.142-3.357-7.5-7.5-7.5h-42.974v-4.775h52.116c4.143,0,7.5-3.358,7.5-7.5c0-4.142-3.357-7.5-7.5-7.5h-52.115v-4.775h61.927
			c4.143,0,7.5-3.358,7.5-7.5c0-4.142-3.357-7.5-7.5-7.5h-61.927v-4.778h67.285c4.143,0,7.5-3.358,7.5-7.5
			c0-4.142-3.357-7.5-7.5-7.5h-67.285v-4.774h69.618c4.143,0,7.5-3.358,7.5-7.5C226.086,401.48,222.729,398.122,218.586,398.122z
			 M133.602,215.992h15.732v56.975c-2.534-0.562-5.165-0.864-7.866-0.864s-5.332,0.302-7.866,0.864V215.992z M141.468,287.103
			c6.563,0,12.434,2.986,16.343,7.667h-32.686C129.034,290.089,134.905,287.103,141.468,287.103z M149.334,127.12h-15.732V70.318
			c2.532,0.574,5.163,0.887,7.866,0.887s5.334-0.313,7.866-0.887V127.12z M141.468,15c11.36,0,20.602,9.242,20.602,20.602
			s-9.242,20.603-20.602,20.603c-11.359,0-20.602-9.243-20.602-20.603S130.108,15,141.468,15z M99.86,317.371
			c-2.095,0.001-3.8-1.704-3.8-3.8s1.705-3.801,3.801-3.801h83.216c2.097,0,3.802,1.705,3.802,3.801s-1.705,3.8-3.802,3.8H99.86z"/>
	</g>
</g>
<g>
	<g>
		<circle cx="141.47" cy="35.603" r="7.5"/>
	</g>
</g>
<g>
</g>
<g>
</g>
<g>
</g>
<g>
</g>
<g>
</g>
<g>
</g>
<g>
</g>
<g>
</g>
<g>
</g>
<g>
</g>
<g>
</g>
<g>
</g>
<g>
</g>
<g>
</g>
<g>
</g>
</svg>
