<?xml version="1.0" encoding="iso-8859-1"?>
<!-- Generator: Adobe Illustrator 19.0.0, SVG Export Plug-In . SVG Version: 6.00 Build 0)  -->
<svg version="1.1" id="Capa_1" xmlns="http://www.w3.org/2000/svg" xmlns:xlink="http://www.w3.org/1999/xlink" x="0px" y="0px"
	 viewBox="0 0 512.002 512.002" style="enable-background:new 0 0 512.002 512.002;" xml:space="preserve">
<g>
	<g>
		<path d="M335.997,346.964c4.156,0,7.524-3.369,7.524-7.524v-48.191c0-6.914-5.625-12.541-12.541-12.541h-23.038
			c-6.915,0-12.541,5.626-12.541,12.541v101.465c0,6.915,5.626,12.541,12.541,12.541h23.038c6.915,0,12.541-5.625,12.541-12.541
			v-17.157c0-4.155-3.368-7.524-7.524-7.524c-4.155,0-7.524,3.369-7.524,7.524v14.649h-18.021v-96.449h18.021v45.683
			C328.473,343.595,331.842,346.964,335.997,346.964z"/>
	</g>
</g>
<g>
	<g>
		<path d="M381.153,241.293v-48.354c-0.001-8.969-6.766-16.377-15.46-17.419L305.37,72.587c-0.141-0.239-0.309-0.453-0.46-0.684
			c1.057-1.33,1.847-2.871,2.3-4.564c0.868-3.24,0.425-6.618-1.247-9.514l-10.948-18.964c-2.232-3.866-6.399-6.266-10.875-6.266
			c-2.193,0-4.356,0.58-6.255,1.676l-5.05,2.915L234.198,3.484C231.658,1.27,228.131,0,224.518,0c-2.584,0-5.058,0.64-7.152,1.849
			l-8.601,4.965c-5.215,3.012-8.159,9.486-7,15.396l9.869,50.313l-5.051,2.916c-2.895,1.672-4.969,4.377-5.836,7.617
			c-0.868,3.24-0.425,6.618,1.247,9.514l10.949,18.963c0.564,0.976,1.253,1.858,2.038,2.633l-39.957,61.274
			c-9.168,0.573-16.456,8.192-16.456,17.501v48.354c0,7.513,4.753,13.921,11.403,16.422V429.67
			c-6.65,2.501-11.403,8.908-11.403,16.422v48.353c0,9.68,7.877,17.557,17.557,17.557h187.472c9.68,0,17.557-7.877,17.557-17.557
			v-48.353c0-7.513-4.752-13.92-11.402-16.422V257.716C376.4,255.214,381.153,248.807,381.153,241.293z M224.577,15.062
			l34.481,30.08L225.409,64.57l-8.808-44.903L224.577,15.062z M283.237,48.559l8.439,14.618l-66.956,38.657l-8.44-14.617
			L283.237,48.559z M173.615,192.939c0-1.359,1.149-2.508,2.508-2.508h108.785c4.156,0,7.524-3.369,7.524-7.524
			s-3.368-7.524-7.524-7.524h-91.883l39.608-60.739l59.729-34.485c0.007,0.013,0.018,0.023,0.024,0.036l55.784,95.187h-24.135
			c-4.156,0-7.524,3.369-7.524,7.524c0,4.155,3.368,7.524,7.524,7.524h39.56c1.359,0,2.508,1.149,2.508,2.508v48.354
			c0,1.359-1.149,2.508-2.508,2.508H176.123c-1.359,0-2.508-1.149-2.508-2.508V192.939z M185.018,291.35h78.23
			c1.359,0,2.508,1.149,2.508,2.508v96.247c0,1.359-1.149,2.508-2.508,2.508h-78.23V291.35z M366.105,494.443h-0.002
			c0,1.359-1.149,2.508-2.508,2.508H176.123c-1.359,0-2.508-1.149-2.508-2.508V446.09c0-1.359,1.149-2.508,2.508-2.508h39.56
			c4.155,0,7.524-3.369,7.524-7.524c0-4.155-3.369-7.524-7.524-7.524h-30.665v-20.872h78.23c9.68,0,17.557-7.877,17.557-17.557
			v-96.247c0-9.68-7.877-17.557-17.557-17.557h-78.23v-17.45h169.683v169.683h-99.89c-4.155,0-7.524,3.369-7.524,7.524
			c0,4.156,3.369,7.524,7.524,7.524h108.785c1.359,0,2.508,1.149,2.508,2.508V494.443z"/>
	</g>
</g>
<g>
	<g>
		<path d="M404.629,63.482c-13.94-4.342-15.619-6.022-19.961-19.964c-1.412-4.525-5.544-7.565-10.283-7.565
			c-4.742,0-8.875,3.042-10.283,7.569c-4.339,13.938-6.019,15.618-19.957,19.96c-4.529,1.409-7.571,5.541-7.571,10.281
			c0,4.744,3.043,8.878,7.57,10.284c13.939,4.341,15.618,6.02,19.958,19.957c1.408,4.529,5.54,7.571,10.283,7.571
			c4.74,0,8.873-3.04,10.284-7.568c4.34-13.94,6.02-15.619,19.956-19.958c4.529-1.408,7.572-5.541,7.572-10.285
			C412.196,69.023,409.155,64.891,404.629,63.482z M374.387,88.624c-3.427-7.22-7.638-11.431-14.86-14.859
			c7.221-3.428,11.433-7.639,14.86-14.859c3.427,7.221,7.637,11.431,14.858,14.859C382.025,77.192,377.814,81.403,374.387,88.624z"
			/>
	</g>
</g>
<g>
	<g>
		<path d="M167.86,141.737c-13.94-4.342-15.619-6.021-19.961-19.964c-1.412-4.525-5.543-7.565-10.283-7.565
			c-4.742,0-8.875,3.042-10.283,7.568c-4.34,13.939-6.019,15.618-19.957,19.96c-4.529,1.409-7.571,5.541-7.571,10.282
			c0,4.744,3.043,8.878,7.569,10.284c13.94,4.341,15.618,6.02,19.958,19.958c1.409,4.528,5.541,7.57,10.283,7.57
			c4.739,0,8.872-3.04,10.284-7.568c4.341-13.94,6.02-15.619,19.956-19.958c4.53-1.409,7.573-5.543,7.573-10.286
			C175.428,147.277,172.386,143.146,167.86,141.737z M137.617,166.878c-3.427-7.22-7.638-11.431-14.859-14.859
			c7.222-3.428,11.432-7.639,14.859-14.859c3.427,7.221,7.637,11.432,14.859,14.859
			C145.255,155.447,141.044,159.658,137.617,166.878z"/>
	</g>
</g>
<g>
</g>
<g>
</g>
<g>
</g>
<g>
</g>
<g>
</g>
<g>
</g>
<g>
</g>
<g>
</g>
<g>
</g>
<g>
</g>
<g>
</g>
<g>
</g>
<g>
</g>
<g>
</g>
<g>
</g>
</svg>
