<?xml version="1.0" encoding="iso-8859-1"?>
<!-- Generator: Adobe Illustrator 19.0.0, SVG Export Plug-In . SVG Version: 6.00 Build 0)  -->
<svg version="1.1" id="Capa_1" xmlns="http://www.w3.org/2000/svg" xmlns:xlink="http://www.w3.org/1999/xlink" x="0px" y="0px"
	 viewBox="0 0 512 512" style="enable-background:new 0 0 512 512;" xml:space="preserve">
<g>
	<g>
		<path d="M455.847,155.357c-30.963,0-56.153,25.19-56.153,56.153c0,30.962,25.19,56.152,56.153,56.152
			c30.963,0,56.153-25.19,56.153-56.152C512,180.547,486.81,155.357,455.847,155.357z M455.847,252.661
			c-22.692,0-41.153-18.461-41.153-41.152c0-22.691,18.461-41.153,41.153-41.153c22.692,0,41.153,18.461,41.153,41.153
			C497,234.2,478.539,252.661,455.847,252.661z"/>
	</g>
</g>
<g>
	<g>
		<path d="M345.42,62.528c-26.552,0-48.153,21.602-48.153,48.154c0,26.551,21.601,48.152,48.153,48.152s48.153-21.601,48.153-48.152
			C393.573,84.13,371.972,62.528,345.42,62.528z M345.42,143.833c-18.281,0-33.153-14.872-33.153-33.152
			c0-18.281,14.872-33.154,33.153-33.154s33.153,14.873,33.153,33.154C378.573,128.961,363.701,143.833,345.42,143.833z"/>
	</g>
</g>
<g>
	<g>
		<path d="M504.5,396.623h-68.282l-9.464-25.255c-1.453-3.879-5.777-5.845-9.655-4.391c-3.879,1.454-5.845,5.776-4.391,9.655
			l7.492,19.991h-36.197v-49.089c0-4.142-3.358-7.5-7.5-7.5c-4.142,0-7.5,3.358-7.5,7.5v49.089H349.99
			c-0.332-0.074-0.928-0.418-1.157-0.668l-7.846-13.59c-0.435-0.752-0.943-1.425-1.495-2.039v-32.792c0-4.142-3.358-7.5-7.5-7.5
			c-4.142,0-7.5,3.358-7.5,7.5v32.792c-0.552,0.614-1.061,1.287-1.495,2.04l-7.846,13.589c-0.23,0.251-0.825,0.595-1.157,0.668
			h-40.19v-49.089c0-4.142-3.358-7.5-7.5-7.5c-4.142,0-7.5,3.358-7.5,7.5v49.089h-29.675v-49.089c0-4.142-3.358-7.5-7.5-7.5
			c-4.142,0-7.5,3.358-7.5,7.5v49.089h-21.373c-2.087-3.273-4.938-6.011-8.302-7.964v-41.125c0-4.142-3.358-7.5-7.5-7.5
			c-4.142,0-7.5,3.358-7.5,7.5v37.865h-0.085c-3.236-10.849-13.304-18.78-25.19-18.78c-1.489,0-2.958,0.142-4.4,0.39v-19.475
			c0-4.142-3.358-7.5-7.5-7.5c-4.142,0-7.5,3.358-7.5,7.5v18.047c-3.778-2.968-8.283-5.013-13.17-5.846
			c-1.454-8.469-6.546-15.706-13.6-20.055l7.641-20.388H269c4.142,0,7.5-3.358,7.5-7.5c0-4.142-3.358-7.5-7.5-7.5H93.611v-23.719
			h309.643v23.719H312c-4.142,0-7.5,3.358-7.5,7.5c0,4.142,3.358,7.5,7.5,7.5h79.219l7.621,20.337
			c1.129,3.012,3.987,4.87,7.024,4.87c0.875,0,1.764-0.154,2.631-0.479c3.879-1.454,5.845-5.776,4.391-9.655l-5.683-15.165
			c6.212-0.721,11.051-6.007,11.051-12.409v-28.719c0-6.893-5.607-12.5-12.5-12.5H352.73v-47.067c0-6.893-5.607-12.5-12.5-12.5H239
			c-4.142,0-7.5,3.358-7.5,7.5c0,4.142,3.358,7.5,7.5,7.5h98.73v44.567h-14.784v-17.283c0-6.893-5.607-12.5-12.5-12.5H186.419
			c-6.893,0-12.5,5.607-12.5,12.5v17.283h-14.784v-44.567H198c4.142,0,7.5-3.358,7.5-7.5c0-4.142-3.358-7.5-7.5-7.5h-41.364
			c-6.893,0-12.5,5.607-12.5,12.5v47.067h-22.801c2.575-6.43,4.003-13.437,4.003-20.776c0-30.963-25.19-56.153-56.153-56.153
			s-56.153,25.19-56.153,56.153s25.19,56.153,56.153,56.153c3.213,0,6.36-0.282,9.426-0.804v6.646
			c0,6.401,4.839,11.688,11.051,12.409l-6.049,16.14c-0.331-0.011-0.661-0.022-0.994-0.022c-15.773,0-28.686,12.483-29.38,28.088
			c-10.561,2.775-18.819,11.289-21.226,21.992h-7.82C10.853,385.399,0,396.253,0,409.592c0,13.34,10.853,24.193,24.193,24.193
			h148.153c12.656,0,23.066-9.77,24.102-22.162h117.646c5.406,0,11.292-3.398,13.995-8.08l3.901-6.757l3.901,6.757
			c2.703,4.682,8.589,8.08,13.995,8.08H504.5c4.142,0,7.5-3.358,7.5-7.5C512,399.982,508.642,396.623,504.5,396.623z
			 M188.919,250.791h119.027v14.783H188.919V250.791z M78.611,278.075v6.769c-3.029,0.716-6.181,1.108-9.426,1.108
			c-22.692,0-41.153-18.461-41.153-41.153s18.461-41.153,41.153-41.153s41.153,18.461,41.153,41.153
			c0,7.576-2.064,14.675-5.653,20.776H91.111C84.219,265.575,78.611,271.182,78.611,278.075z M172.346,418.786H24.193
			c-5.069,0-9.193-4.124-9.193-9.193c0-5.069,4.124-9.192,9.193-9.192h14.66c2.053,0,4.016-0.841,5.432-2.328
			c1.416-1.487,2.16-3.489,2.06-5.539v-0.677c0-7.905,6.354-14.344,14.245-14.409c0.193,0.013,1.41,0.062,1.41,0.062
			c5.801,0.529,10.846,4.583,12.525,10.226c1.181,3.969,5.357,6.23,9.328,5.049c3.97-1.181,6.23-5.357,5.049-9.328
			c-2.942-9.887-10.942-17.374-20.628-19.989c0.642-7.356,6.826-13.149,14.346-13.149c7.946,0,14.41,6.464,14.41,14.41
			c0,0.474-0.025,0.961-0.074,1.447c-0.225,2.239,0.567,4.461,2.157,6.052c1.59,1.592,3.81,2.389,6.05,2.162
			c0.493-0.049,0.982-0.074,1.453-0.074c6.667,0,12.418,4.53,13.984,11.017c0.721,2.985,3.189,5.229,6.229,5.663
			c3.046,0.439,6.038-1.027,7.566-3.69c2.014-3.507,5.761-5.686,9.78-5.686c6.22,0,11.28,5.061,11.28,11.28
			c0,4.142,3.358,7.5,7.5,7.5h9.39c5.069,0,9.194,4.124,9.194,9.192C181.54,414.661,177.415,418.786,172.346,418.786z"/>
	</g>
</g>
<g>
	<g>
		<path d="M430.24,434.471H222.826c-4.142,0-7.5,3.358-7.5,7.5c0,4.142,3.358,7.5,7.5,7.5H430.24c4.142,0,7.5-3.358,7.5-7.5
			C437.74,437.829,434.382,434.471,430.24,434.471z"/>
	</g>
</g>
<g>
	<g>
		<path d="M457.762,324.5c-13.64,0-24.738,11.098-24.738,24.738c0,13.641,11.098,24.738,24.738,24.738s24.737-11.098,24.737-24.738
			C482.499,335.596,471.402,324.5,457.762,324.5z M457.763,358.976c-5.37,0-9.738-4.369-9.738-9.738s4.369-9.738,9.738-9.738
			s9.737,4.369,9.737,9.738C467.5,354.607,463.132,358.976,457.763,358.976z"/>
	</g>
</g>
<g>
</g>
<g>
</g>
<g>
</g>
<g>
</g>
<g>
</g>
<g>
</g>
<g>
</g>
<g>
</g>
<g>
</g>
<g>
</g>
<g>
</g>
<g>
</g>
<g>
</g>
<g>
</g>
<g>
</g>
</svg>
