<?xml version="1.0" encoding="iso-8859-1"?>
<!-- Generator: Adobe Illustrator 19.0.0, SVG Export Plug-In . SVG Version: 6.00 Build 0)  -->
<svg version="1.1" id="Capa_1" xmlns="http://www.w3.org/2000/svg" xmlns:xlink="http://www.w3.org/1999/xlink" x="0px" y="0px"
	 viewBox="0 0 512 512" style="enable-background:new 0 0 512 512;" xml:space="preserve">
<g>
	<g>
		<path d="M233,399.704H127c-4.143,0-7.5,3.358-7.5,7.5c0,4.142,3.357,7.5,7.5,7.5h106c4.143,0,7.5-3.358,7.5-7.5
			C240.5,403.061,237.143,399.704,233,399.704z"/>
	</g>
</g>
<g>
	<g>
		<path d="M477,399.704H283c-4.143,0-7.5,3.358-7.5,7.5c0,4.142,3.357,7.5,7.5,7.5h194c4.143,0,7.5-3.358,7.5-7.5
			C484.5,403.061,481.143,399.704,477,399.704z"/>
	</g>
</g>
<g>
	<g>
		<path d="M449.895,267h-23.037c-4.143,0-7.5,3.358-7.5,7.5c0,4.142,3.357,7.5,7.5,7.5h23.037c4.143,0,7.5-3.358,7.5-7.5
			C457.395,270.358,454.038,267,449.895,267z"/>
	</g>
</g>
<g>
	<g>
		<path d="M150.869,316.388c-11.411,0-20.695,9.284-20.695,20.696s9.284,20.696,20.695,20.696c11.412,0,20.696-9.284,20.696-20.696
			S162.281,316.388,150.869,316.388z M150.869,342.781c-3.141,0-5.695-2.555-5.695-5.696c0-3.141,2.555-5.696,5.695-5.696
			c3.141,0,5.696,2.555,5.696,5.696C156.565,340.226,154.01,342.781,150.869,342.781z"/>
	</g>
</g>
<g>
	<g>
		<path d="M242.959,316.388c-11.411,0-20.695,9.284-20.695,20.696s9.284,20.696,20.695,20.696c11.412,0,20.697-9.284,20.697-20.696
			S254.371,316.388,242.959,316.388z M242.959,342.781c-3.141,0-5.695-2.555-5.695-5.696c0-3.141,2.555-5.696,5.695-5.696
			c3.142,0,5.697,2.555,5.697,5.696C248.656,340.226,246.101,342.781,242.959,342.781z"/>
	</g>
</g>
<g>
	<g>
		<path d="M506.027,284.116v-43.28c0-4.039-1.744-9.079-4.241-12.256l-42.507-54.062c-2.879-3.66-8.142-6.216-12.798-6.216H440
			c-4.143,0-7.5,3.358-7.5,7.5c0,4.142,3.357,7.5,7.5,7.5h6.37c0.332,0.066,0.931,0.357,1.189,0.577l11.415,14.518h-27.851
			c-6.487,0-11.766,5.278-11.766,11.767v38.584c0,6.488,5.278,11.766,11.766,11.766h59.904v22.562h-7.418
			c-5.79,0-10.5,4.71-10.5,10.5v1.482h-80.561V283.45V183.302H412c4.143,0,7.5-3.358,7.5-7.5c0-4.142-3.357-7.5-7.5-7.5h-19.451
			v-32.268v-11c0-9.649-7.851-17.5-17.5-17.5h-18.242c-0.141-5.668-4.785-10.238-10.487-10.238h-12.639
			c-5.702,0-10.347,4.57-10.487,10.238h-22.707c-0.141-5.668-4.785-10.238-10.486-10.238H277.36c-5.701,0-10.346,4.57-10.486,10.238
			h-26.387c-0.141-5.668-4.785-10.238-10.486-10.238H217.36c-5.701,0-10.346,4.57-10.486,10.238h-25.748
			c-0.141-5.668-4.785-10.238-10.486-10.238H158c-5.701,0-10.346,4.57-10.486,10.238h-20.389
			c-0.141-5.668-4.785-10.238-10.486-10.238H104c-5.701,0-10.346,4.57-10.486,10.238H77.652c-9.649,0-17.5,7.851-17.5,17.5v11v22.69
			l-54.421,54.42C2.356,216.521,0,222.211,0,226.984v21.457v67.09c0,6.893,5.607,12.5,12.5,12.5H29c4.143,0,7.5-3.358,7.5-7.5
			c0-4.142-3.357-7.5-7.5-7.5H15v-56.665c0.444-0.339,0.892-0.71,1.339-1.158l43.813-43.813v72.054v18.754
			c0,0.076,0.006,0.15,0.007,0.226c-0.001,0.043-0.007,0.085-0.007,0.128v10.473H59c-4.143,0-7.5,3.358-7.5,7.5
			c0,4.142,3.357,7.5,7.5,7.5h50.836c-0.644,2.918-0.993,5.945-0.993,9.054c0,10.285,3.72,19.714,9.876,27.026H69
			c-4.143,0-7.5,3.358-7.5,7.5c0,4.142,3.357,7.5,7.5,7.5h422c4.143,0,7.5-3.358,7.5-7.5c0-4.142-3.357-7.5-7.5-7.5h-35.804
			c6.157-7.313,9.877-16.741,9.877-27.026c0-3.109-0.35-6.136-0.993-9.054h37.42c5.79,0,10.5-4.71,10.5-10.5v-23.955
			C512,289.409,509.554,285.811,506.027,284.116z M60.152,190.182L15,235.334v-8.347c0.015-0.81,0.779-2.656,1.339-3.236
			l43.813-43.813V190.182z M162.5,112.296h3.639v182.762H162.5V112.296z M127.139,122.535H147.5v6h-20.361V122.535z
			 M127.139,143.535H147.5V275.95h-20.361V143.535z M127.139,290.95H147.5v4.108h-20.361V290.95z M108.5,112.296h3.639v182.762
			H108.5V112.296z M75.152,125.035c0-1.355,1.145-2.5,2.5-2.5H93.5v6H75.152V125.035z M75.152,143.535H93.5V275.95H75.152V143.535z
			 M75.152,290.95H93.5v4.108H75.152V290.95z M116.438,313.031H75.152v-2.973h43.567
			C117.915,311.013,117.155,312.006,116.438,313.031z M150.869,364.111c-14.902,0-27.026-12.124-27.026-27.026
			c0-14.902,12.124-27.026,27.026-27.026c14.903,0,27.027,12.124,27.027,27.026C177.896,351.987,165.773,364.111,150.869,364.111z
			 M240.5,122.535h26.359v6H240.5V122.535z M240.5,143.535h26.359v14.819H240.5V143.535z M240.5,173.354h26.359v14.783H240.5
			V173.354z M240.5,203.137h26.359v14.784H240.5V203.137z M240.5,232.921h26.359v14.782H240.5V232.921z M240.5,262.704h26.359
			v13.246H240.5V262.704z M240.5,290.95h26.359v4.108H240.5V290.95z M221.859,112.296h3.641v182.762h-3.641V112.296z
			 M181.138,122.535h25.721v6h-25.721V122.535z M206.86,143.535V275.95h-25.721V143.535H206.86z M181.139,290.95h25.721v4.108
			h-25.721V290.95z M210.81,310.058c-0.804,0.955-1.564,1.948-2.282,2.973h-23.227c-0.718-1.025-1.478-2.018-2.282-2.973H210.81z
			 M183.02,364.111c6.157-7.313,9.877-16.741,9.877-27.026c0-3.109-0.35-6.136-0.993-9.054h10.02
			c-0.644,2.917-0.989,5.945-0.989,9.054c0,10.285,3.72,19.714,9.877,27.026H183.02z M242.959,364.111
			c-14.902,0-27.025-12.124-27.025-27.026c0-14.902,12.123-27.026,27.025-27.026c14.903,0,27.027,12.124,27.027,27.026
			C269.986,351.987,257.862,364.111,242.959,364.111z M356.82,122.535h18.229c1.355,0,2.5,1.145,2.5,2.5v3.5H356.82V122.535z
			 M356.819,143.535h20.729V275.95h-20.729V143.535z M356.819,290.95h20.729v4.108h-20.729V290.95z M300.5,122.535h22.681v6H300.5
			V122.535z M300.5,143.535h22.681V184c0,4.142,3.357,7.5,7.5,7.5c4.142-0.001,7.5-3.358,7.5-7.501v-71.703h3.639v182.762h-3.639
			V216c0-4.142-3.357-7.5-7.5-7.5s-7.5,3.358-7.5,7.5v59.95H300.5V143.535z M300.5,290.95h22.681v4.108H300.5V290.95z
			 M281.859,112.296h3.641v182.762h-3.641V112.296z M390.897,310.058c-0.805,0.955-1.565,1.948-2.283,2.973H277.392
			c-0.718-1.025-1.478-2.018-2.282-2.973H390.897z M275.109,364.111c6.157-7.313,9.877-16.741,9.877-27.026
			c0-3.109-0.35-6.136-0.993-9.054h98.02c-0.644,2.918-0.993,5.945-0.993,9.054c0,10.285,3.72,19.714,9.877,27.026H275.109z
			 M423.046,364.111c-14.902,0-27.026-12.124-27.026-27.026c0-14.902,12.124-27.026,27.026-27.026
			c14.903,0,27.027,12.124,27.027,27.026C450.073,351.987,437.949,364.111,423.046,364.111z M473.109,313.031h-15.631
			c-0.719-1.025-1.478-2.018-2.282-2.973h17.913V313.031z M438.981,245.514h-4.624v-32.116h4.624V245.514z M453.981,245.514v-32.116
			h16.786l19.224,24.449c0.43,0.572,1.021,2.279,1.036,2.989v4.678H453.981z M497,313.031h-8.891v-14.955H497V313.031z"/>
	</g>
</g>
<g>
	<g>
		<path d="M423.046,316.388c-11.412,0-20.696,9.284-20.696,20.696s9.284,20.696,20.696,20.696s20.696-9.284,20.696-20.696
			S434.458,316.388,423.046,316.388z M423.046,342.781c-3.141,0-5.696-2.555-5.696-5.696c0-3.141,2.556-5.696,5.696-5.696
			s5.696,2.555,5.696,5.696C428.742,340.226,426.186,342.781,423.046,342.781z"/>
	</g>
</g>
<g>
</g>
<g>
</g>
<g>
</g>
<g>
</g>
<g>
</g>
<g>
</g>
<g>
</g>
<g>
</g>
<g>
</g>
<g>
</g>
<g>
</g>
<g>
</g>
<g>
</g>
<g>
</g>
<g>
</g>
</svg>
