<?xml version="1.0" encoding="iso-8859-1"?>
<!-- Generator: Adobe Illustrator 19.0.0, SVG Export Plug-In . SVG Version: 6.00 Build 0)  -->
<svg version="1.1" id="Capa_1" xmlns="http://www.w3.org/2000/svg" xmlns:xlink="http://www.w3.org/1999/xlink" x="0px" y="0px"
	 viewBox="0 0 512 512" style="enable-background:new 0 0 512 512;" xml:space="preserve">
<g>
	<g>
		<path d="M327.842,349.516h-45.115c-6.244,0-11.419,4.607-12.34,10.598H259.22v-21.438c21.567-3.588,38.066-22.368,38.066-44.938
			c0-25.125-20.441-45.565-45.566-45.565s-45.565,20.44-45.565,45.565c0,22.57,16.498,41.35,38.065,44.938v28.938
			c0,4.142,3.358,7.5,7.5,7.5h18.55c0.437,6.499,5.849,11.657,12.457,11.657h45.115c6.893,0,12.5-5.607,12.5-12.5v-12.255
			C340.342,355.123,334.735,349.516,327.842,349.516z M251.719,288.051c-4.142,0-7.5,3.358-7.5,7.5v27.819
			c-13.239-3.352-23.065-15.365-23.065-29.632c0-16.854,13.711-30.565,30.565-30.565c16.855,0,30.566,13.711,30.566,30.565
			c0,14.267-9.826,26.279-23.066,29.632v-27.819C259.219,291.409,255.861,288.051,251.719,288.051z M325.342,371.771h-40.115v-7.255
			h40.115V371.771z"/>
	</g>
</g>
<g>
	<g>
		<path d="M487.966,216.825h-2.564C474.942,95.523,372.889,0,248.921,0C118.025,0,11.534,106.491,11.534,237.387
			c0,66.31,27.347,126.338,71.333,169.45l-21.069,47.059H29.259c-6.893,0-12.5,5.607-12.5,12.5V499.5c0,6.893,5.607,12.5,12.5,12.5
			H108c4.142,0,7.5-3.358,7.5-7.5c0-4.142-3.358-7.5-7.5-7.5H31.759v-28.105h434.324V497H156c-4.142,0-7.5,3.358-7.5,7.5
			c0,4.142,3.358,7.5,7.5,7.5h312.583c6.893,0,12.5-5.607,12.5-12.5v-33.105c0-6.893-5.607-12.5-12.5-12.5h-32.538l-10.729-23.963
			c-1.694-3.78-6.131-5.473-9.91-3.78c-3.781,1.692-5.474,6.129-3.781,9.91l7.984,17.833h-75.568l-22.391-50.01
			c-2.335-5.214-8.176-8.998-13.888-8.998H190.079c-5.713,0-11.554,3.785-13.888,8.999l-22.391,50.01H78.232L189.8,204.705
			c0.117-0.112,0.326-0.248,0.476-0.308h117.289c0.15,0.061,0.359,0.196,0.476,0.309l87.468,195.362
			c1.693,3.781,6.131,5.474,9.91,3.78c3.781-1.692,5.474-6.129,3.781-9.91l-8.601-19.21c18.147-20.024,32.396-43.641,41.533-69.645
			l7.711,61.783c0.67,5.352,5.42,9.545,10.813,9.545h8.451c5.394,0,10.144-4.193,10.815-9.548l9.862-79.019
			c6.031-0.886,10.681-6.079,10.681-12.352v-18.736c0-1.526-0.288-2.982-0.791-4.335c0.508-1.358,0.791-2.825,0.791-4.359v-18.737
			h0.001C500.466,222.432,494.859,216.825,487.966,216.825z M189.801,410.196c0.116-0.114,0.325-0.249,0.475-0.309h117.289
			c0.15,0.061,0.359,0.196,0.476,0.309l2.909,6.497c-19.446,6.747-40.315,10.427-62.029,10.427s-42.583-3.679-62.029-10.426
			L189.801,410.196z M180.741,430.431c21.338,7.559,44.284,11.688,68.18,11.688c23.895,0,46.843-4.129,68.181-11.688l7.218,16.121
			c-8.091,2.925-16.344,5.377-24.72,7.343H198.107c-8.392-1.971-16.6-4.417-24.599-7.31L180.741,430.431z M213.37,189.396
			c9.943-7.388,22.239-11.778,35.551-11.778s25.607,4.39,35.551,11.778H213.37z M340.623,240.766l-18.971-42.372
			c-2.337-5.214-8.177-8.998-13.889-8.998h-1.571c-13.724-16.356-34.298-26.778-57.271-26.778c-22.973,0-43.547,10.422-57.27,26.778
			h-1.571c-5.713,0-11.554,3.785-13.888,8.998l-18.971,42.372c-0.041-1.122-0.069-2.247-0.069-3.379
			c0-50.602,41.167-91.77,91.77-91.77c50.602,0,91.77,41.168,91.77,91.77C340.692,238.519,340.664,239.644,340.623,240.766z
			 M351.838,265.819c2.506-9.056,3.852-18.589,3.852-28.432c0-58.873-47.896-106.77-106.77-106.77
			c-58.874,0-106.77,47.896-106.77,106.77c0,9.843,1.346,19.376,3.852,28.432l-10.321,23.057
			c-7.17-15.7-11.184-33.132-11.184-51.489c0-68.607,55.816-124.424,124.424-124.424s124.424,55.816,124.424,124.424
			c0,18.357-4.015,35.788-11.184,51.488L351.838,265.819z M429.299,229.324v18.735c0,1.534,0.283,3.001,0.791,4.359
			c-0.503,1.353-0.791,2.809-0.791,4.334v18.736c0,3.36,1.34,6.409,3.504,8.657c-7.18,28.217-20.697,53.927-38.946,75.522
			l-8.097-18.086c22.092-28.941,35.239-65.057,35.239-104.194c0-21.399-3.899-42.293-11.59-62.102
			c-1.498-3.861-5.845-5.777-9.705-4.277c-3.861,1.499-5.776,5.845-4.277,9.706c7.016,18.071,10.572,37.138,10.572,56.673
			c0,32.758-10.091,63.197-27.314,88.395l-8.676-19.379c11.653-20.363,18.335-43.921,18.335-69.017
			c0-76.878-62.545-139.424-139.424-139.424c-76.878,0-139.424,62.545-139.424,139.424c0,25.096,6.682,48.653,18.336,69.017
			l-8.677,19.379c-17.222-25.199-27.313-55.638-27.313-88.396c0-86.613,70.465-157.078,157.078-157.078
			c47.568,0,92.084,21.29,122.135,58.411c2.606,3.22,7.328,3.717,10.548,1.11c3.22-2.606,3.717-7.329,1.11-10.548
			c-32.911-40.656-81.678-63.974-133.793-63.974c-94.884,0-172.078,77.194-172.078,172.078c0,39.138,13.148,75.253,35.24,104.195
			l-8.101,18.092c-27.929-33.048-44.794-75.731-44.794-122.287c0-104.619,85.114-189.732,189.732-189.732
			c97.925,0,178.737,74.576,188.681,169.912C432.77,219.296,429.299,223.906,429.299,229.324z M248.921,32.654
			c-112.89,0-204.732,91.843-204.732,204.732c0,52.804,20.113,100.986,53.057,137.334l-7.817,17.46
			c-38.899-40.065-62.895-94.673-62.895-154.793C26.534,114.762,126.296,15,248.921,15c115.69,0,211.001,88.806,221.414,201.825
			h-17.738C442.248,113.558,354.869,32.654,248.921,32.654z M465.487,361.409h-1.208l-9.162-73.419h19.533L465.487,361.409z
			 M485.466,272.99h-41.165v-13.736h41.165V272.99z M485.466,244.254h-41.165v-12.429h41.165V244.254z"/>
	</g>
</g>
<g>
</g>
<g>
</g>
<g>
</g>
<g>
</g>
<g>
</g>
<g>
</g>
<g>
</g>
<g>
</g>
<g>
</g>
<g>
</g>
<g>
</g>
<g>
</g>
<g>
</g>
<g>
</g>
<g>
</g>
</svg>
