<?xml version="1.0" encoding="iso-8859-1"?>
<!-- Generator: Adobe Illustrator 19.0.0, SVG Export Plug-In . SVG Version: 6.00 Build 0)  -->
<svg version="1.1" id="Capa_1" xmlns="http://www.w3.org/2000/svg" xmlns:xlink="http://www.w3.org/1999/xlink" x="0px" y="0px"
	 viewBox="0 0 512 512" style="enable-background:new 0 0 512 512;" xml:space="preserve">
<g>
	<g>
		<path d="M175.45,51.072c-4.142,0-7.5,3.358-7.5,7.5v77.629c0,4.142,3.358,7.5,7.5,7.5c4.142,0,7.5-3.358,7.5-7.5V58.572
			C182.95,54.43,179.591,51.072,175.45,51.072z"/>
	</g>
</g>
<g>
	<g>
		<path d="M383.932,255.585v-1.265c0-6.893-5.607-12.5-12.5-12.5l-12.136-0.001v-4.98c0-9.649-7.851-17.5-17.5-17.5h-7.673V79.001
			c0-4.142-3.358-7.5-7.5-7.5c-4.142,0-7.5,3.358-7.5,7.5v140.338h-46.287V79.001c0-4.142-3.358-7.5-7.5-7.5
			c-4.142,0-7.5,3.358-7.5,7.5v140.338h-32.251h-42.636V173c0-4.142-3.358-7.5-7.5-7.5c-4.142,0-7.5,3.358-7.5,7.5v46.339h-42.2
			V79.001c0-4.142-3.358-7.5-7.5-7.5c-4.142,0-7.5,3.358-7.5,7.5v140.338h-8.036c-9.649,0-17.5,7.851-17.5,17.5v52.434
			c0,8.893,6.672,16.241,15.271,17.342v80.39c0,9.678,7.873,17.551,17.551,17.551c9.678,0,17.552-7.873,17.552-17.551v-38.529
			c0-1.407,1.144-2.552,2.551-2.552s2.552,1.145,2.552,2.552v10.052c0,9.677,7.873,17.55,17.551,17.55
			c9.678,0,17.551-7.873,17.551-17.55v-26.804c0-1.407,1.145-2.552,2.552-2.552c1.406,0,2.55,1.145,2.55,2.552v6.7
			c0,9.678,7.874,17.552,17.552,17.552s17.551-7.874,17.551-17.552v-31.651H279c4.142,0,7.5-3.358,7.5-7.5
			c0-4.142-3.358-7.5-7.5-7.5H102.712c-1.355,0-2.5-1.145-2.5-2.5v-52.434c0-1.355,1.145-2.5,2.5-2.5h115.372v11.203
			c0,9.948,8.093,18.041,18.04,18.041c9.947,0,18.04-8.093,18.04-18.041v-7.026c0-1.677,1.364-3.04,3.041-3.04
			c1.677,0,3.041,1.364,3.041,3.04v28.108c0,9.948,8.092,18.041,18.039,18.041c9.948,0,18.041-8.093,18.041-18.041v-10.54
			c0-1.677,1.364-3.041,3.04-3.041c1.677,0,3.041,1.364,3.041,3.041v1.756c0,9.948,8.093,18.04,18.04,18.04
			c9.948,0,18.041-8.093,18.041-18.04v-23.501h3.307c1.355,0,2.5,1.145,2.5,2.5l-0.002,52.434c0,1.355-1.145,2.5-2.5,2.5H314
			c-4.142,0-7.5,3.358-7.5,7.5c0,4.142,3.358,7.5,7.5,7.5h27.794c9.65,0,17.5-7.851,17.5-17.5v-4.979h12.137
			c6.893,0,12.5-5.607,12.5-12.5v-1.158c1.082,0.273,1.914,1.267,1.914,2.419v52.082c0,1.355-1.145,2.5-2.5,2.5H240.997
			c-9.649,0-17.5,7.851-17.5,17.5v61.946h-6.233c-6.893,0-12.5,5.607-12.5,12.5V499.5c0,6.893,5.607,12.5,12.5,12.5h27.465
			c6.893,0,12.5-5.607,12.5-12.5V479c0-4.142-3.358-7.5-7.5-7.5c-4.142,0-7.5,3.358-7.5,7.5v18h-22.465v-74.918h22.465V448
			c0,4.142,3.358,7.5,7.5,7.5c4.142,0,7.5-3.358,7.5-7.5v-28.418c0-6.893-5.608-12.5-12.5-12.5h-6.231v-61.946
			c0-1.355,1.145-2.5,2.5-2.5h142.349c9.649,0,17.5-7.851,17.5-17.5v-52.082C400.846,263.604,393.309,255.898,383.932,255.585z
			 M115.482,306.772h0.001h85.512v31.651c0,1.407-1.144,2.552-2.551,2.552c-1.407,0-2.552-1.145-2.552-2.552v-6.7
			c0-9.678-7.873-17.552-17.55-17.552c-9.678,0-17.552,7.873-17.552,17.552v26.804c0,1.406-1.144,2.55-2.551,2.55
			s-2.551-1.144-2.551-2.55v-10.052c0-9.678-7.874-17.552-17.552-17.552c-9.678,0-17.551,7.874-17.551,17.552v38.529
			c0,1.407-1.145,2.551-2.552,2.551c-1.407,0-2.551-1.144-2.551-2.551V306.772z M239.165,238.516v7.026
			c0,1.677-1.364,3.041-3.04,3.041c-1.676,0-3.04-1.364-3.04-3.041v-11.203h6.568C239.333,235.68,239.165,237.079,239.165,238.516z
			 M323.49,257.839c0,1.677-1.364,3.04-3.041,3.04c-1.676,0-3.04-1.364-3.04-3.04v-1.756c0-9.948-8.093-18.041-18.041-18.041
			c-9.947,0-18.04,8.093-18.04,18.041v10.54c0,1.677-1.364,3.041-3.041,3.041c-1.676,0-3.039-1.364-3.039-3.041v-28.108
			c0-1.437-0.169-2.836-0.488-4.177h48.73V257.839z M359.294,269.294v-12.475h9.636v12.475H359.294z"/>
	</g>
</g>
<g>
	<g>
		<path d="M160.137,399.789c-10.62,0-19.26,8.64-19.26,19.26v17.639c0,10.62,8.64,19.259,19.26,19.259s19.259-8.64,19.259-19.259
			v-17.639C179.396,408.429,170.757,399.789,160.137,399.789z M164.396,436.687c0,2.349-1.911,4.259-4.259,4.259
			c-2.348,0-4.26-1.911-4.26-4.259v-17.639c0-2.349,1.911-4.26,4.26-4.26s4.259,1.911,4.259,4.26V436.687z"/>
	</g>
</g>
<g>
	<g>
		<path d="M419.18,142.654c-14.385-4.48-16.118-6.213-20.597-20.597c-1.416-4.551-5.57-7.609-10.338-7.609
			s-8.922,3.058-10.337,7.607c-4.478,14.385-6.211,16.117-20.595,20.597c-4.552,1.416-7.61,5.57-7.61,10.336
			c0,4.77,3.06,8.924,7.608,10.338c14.386,4.48,16.119,6.213,20.596,20.594c1.416,4.553,5.57,7.611,10.338,7.611
			c4.769,0,8.923-3.059,10.337-7.607c4.48-14.386,6.213-16.118,20.593-20.596c4.553-1.415,7.612-5.57,7.612-10.339
			C426.789,148.223,423.729,144.069,419.18,142.654z M388.247,168.726c-3.591-7.738-7.997-12.144-15.736-15.735
			c7.738-3.592,12.145-7.998,15.736-15.736c3.592,7.739,7.996,12.143,15.735,15.735
			C396.244,156.581,391.839,160.987,388.247,168.726z"/>
	</g>
</g>
<g>
	<g>
		<path d="M167.469,24.63c-12.221-3.806-13.516-5.101-17.322-17.319C148.789,2.938,144.799,0,140.218,0
			c-4.578,0-8.569,2.937-9.93,7.308c-3.805,12.22-5.1,13.516-17.321,17.322c-4.371,1.361-7.308,5.351-7.308,9.928
			c0,4.582,2.939,8.573,7.308,9.93c12.222,3.806,13.517,5.101,17.321,17.321c1.36,4.372,5.351,7.309,9.93,7.309
			c4.581,0,8.571-2.938,9.929-7.307c3.807-12.222,5.102-13.517,17.317-17.321c4.374-1.359,7.313-5.35,7.313-9.932
			C174.777,29.981,171.84,25.991,167.469,24.63z M140.218,46.148c-2.803-5.327-6.261-8.786-11.589-11.589
			c5.327-2.803,8.787-6.262,11.589-11.588c2.803,5.327,6.262,8.786,11.588,11.588C146.48,37.361,143.021,40.821,140.218,46.148z"/>
	</g>
</g>
<g>
</g>
<g>
</g>
<g>
</g>
<g>
</g>
<g>
</g>
<g>
</g>
<g>
</g>
<g>
</g>
<g>
</g>
<g>
</g>
<g>
</g>
<g>
</g>
<g>
</g>
<g>
</g>
<g>
</g>
</svg>
