<?xml version="1.0" encoding="iso-8859-1"?>
<!-- Generator: Adobe Illustrator 19.0.0, SVG Export Plug-In . SVG Version: 6.00 Build 0)  -->
<svg version="1.1" id="Capa_1" xmlns="http://www.w3.org/2000/svg" xmlns:xlink="http://www.w3.org/1999/xlink" x="0px" y="0px"
	 viewBox="0 0 512 512" style="enable-background:new 0 0 512 512;" xml:space="preserve">
<g>
	<g>
		<path d="M211.672,412.5c4.143,0,7.5-3.358,7.5-7.5v-23.61c0-23.085-14.051-42.935-34.042-51.491v-36.323
			c0-6.893-5.607-12.5-12.5-12.5h-1.477V12.5c0-6.893-5.607-12.5-12.5-12.5H141.58c-6.893,0-12.5,5.607-12.5,12.5v268.576h-1.478
			c-6.893,0-12.5,5.607-12.5,12.5v36.323c-19.991,8.556-34.041,28.406-34.041,51.491v118.447c0,6.707,5.456,12.163,12.163,12.163
			h113.784c6.707,0,12.163-5.456,12.163-12.163V439c0-4.142-3.357-7.5-7.5-7.5s-7.5,3.358-7.5,7.5v58h-18.576V389.784
			c0-4.142-3.357-7.5-7.5-7.5s-7.5,3.358-7.5,7.5V497h-12.98V389.784c0-4.142-3.357-7.5-7.5-7.5s-7.5,3.358-7.5,7.5V497h-12.979
			V389.784c0-4.142-3.357-7.5-7.5-7.5s-7.5,3.358-7.5,7.5V497H96.062V381.39c0-19.628,13.868-36.071,32.318-40.065h43.472
			c18.451,3.994,32.32,20.437,32.32,40.065V405C204.172,409.142,207.529,412.5,211.672,412.5z M144.08,15h12.073v38.576H144.08V15z
			 M144.08,68.576h12.073v47.695H144.08V68.576z M144.08,131.271h12.073v149.806H144.08V131.271z M170.13,326.325h-40.027v-30.248
			h40.027V326.325z"/>
	</g>
</g>
<g>
	<g>
		<path d="M412.04,344.252h-41.36v-12.577c0-6.893-5.607-12.5-12.5-12.5h-1.478V50.468l14.637-12.046
			c3.882-3.196,6.594-8.94,6.594-13.968V12.5c0-6.893-5.607-12.5-12.5-12.5h-59.534c-6.893,0-12.5,5.607-12.5,12.5v11.955
			c0,5.028,2.712,10.772,6.595,13.968l14.637,12.046V130c0,4.142,3.357,7.5,7.5,7.5s7.5-3.358,7.5-7.5V62.324
			c1.844,0.893,3.907,1.377,6.036,1.377c2.129,0,4.192-0.485,6.036-1.377v256.851H329.63V163c0-4.142-3.357-7.5-7.5-7.5
			s-7.5,3.358-7.5,7.5v156.175h-1.478c-6.893,0-12.5,5.607-12.5,12.5v12.577h-41.36c-10.421,0-18.899,8.478-18.899,18.899V499.5
			c0,6.893,5.607,12.5,12.5,12.5h165.546c6.893,0,12.5-5.607,12.5-12.5V363.151C430.939,352.73,422.461,344.252,412.04,344.252z
			 M335.666,48.355l-26.117-21.494c-0.457-0.425-1.112-1.815-1.15-2.407V15h54.534l0.001,9.424
			c-0.039,0.623-0.694,2.012-1.127,2.417L335.666,48.355z M315.652,334.175h40.027v9.249h-40.027V334.175z M255.393,399.149h12.316
			l-12.316,47.065V399.149z M257.607,497l25.607-97.851H342c4.143,0,7.5-3.358,7.5-7.5c0-4.142-3.357-7.5-7.5-7.5h-86.607v-20.997
			c0-2.114,1.786-3.899,3.899-3.899H412.04c2.113,0,3.898,1.786,3.898,3.899v20.997H376c-4.143,0-7.5,3.358-7.5,7.5
			c0,4.142,3.357,7.5,7.5,7.5h12.118L413.724,497H257.607z M415.939,446.213l-12.316-47.064h12.316V446.213z"/>
	</g>
</g>
<g>
	<g>
		<path d="M341.052,19.378h-11.399c-4.143,0-7.5,3.358-7.5,7.5c0,4.142,3.357,7.5,7.5,7.5h11.399c4.143,0,7.5-3.358,7.5-7.5
			C348.552,22.736,345.194,19.378,341.052,19.378z"/>
	</g>
</g>
<g>
</g>
<g>
</g>
<g>
</g>
<g>
</g>
<g>
</g>
<g>
</g>
<g>
</g>
<g>
</g>
<g>
</g>
<g>
</g>
<g>
</g>
<g>
</g>
<g>
</g>
<g>
</g>
<g>
</g>
</svg>
