<?xml version="1.0" encoding="iso-8859-1"?>
<!-- Generator: Adobe Illustrator 19.0.0, SVG Export Plug-In . SVG Version: 6.00 Build 0)  -->
<svg version="1.1" id="Capa_1" xmlns="http://www.w3.org/2000/svg" xmlns:xlink="http://www.w3.org/1999/xlink" x="0px" y="0px"
	 viewBox="0 0 512 512" style="enable-background:new 0 0 512 512;" xml:space="preserve">
<g>
	<g>
		<path d="M409.098,498.254l-10.554-7.012c-0.346-0.294-0.838-1.211-0.888-1.574v-45.887v-1.556V427.56
			c0-6.893-5.607-12.5-12.5-12.5h-10.155c-4.142,0-7.5,3.358-7.5,7.5c0,4.142,3.358,7.5,7.5,7.5h7.655v11.221h-180.12V430.06
			h141.466c4.142,0,7.5-3.358,7.5-7.5c0-4.142-3.358-7.5-7.5-7.5h-6.759v-20.276c0-6.893-5.607-12.5-12.5-12.5h-11.536V160
			c0-4.142-3.358-7.5-7.5-7.5c-4.142,0-7.5,3.358-7.5,7.5v222.284h-11.221V80.874h11.221V126c0,4.142,3.358,7.5,7.5,7.5
			c4.142,0,7.5-3.358,7.5-7.5V75.858c0.158-0.211,0.328-0.411,0.473-0.634l36.565-55.914c2.511-3.839,2.715-8.731,0.531-12.77
			C348.592,2.506,344.387,0,339.8,0h-94.407c-4.587,0-8.793,2.506-10.979,6.543c-2.182,4.036-1.978,8.929,0.534,12.768l9.673,14.792
			c2.267,3.467,6.915,4.439,10.382,2.172c3.467-2.267,4.439-6.915,2.172-10.382L250.052,15h85.089l-33.27,50.874h-18.55
			l-9.143-13.981c-2.267-3.467-6.917-4.439-10.382-2.172c-3.466,2.267-4.439,6.915-2.172,10.382l9.89,15.123
			c0.145,0.222,0.314,0.421,0.472,0.631v306.427h-11.535c-6.893,0-12.5,5.607-12.5,12.5v20.276h-47.915
			c-6.893,0-12.5,5.607-12.5,12.5v16.221c0,0.155,0.018,0.305,0.023,0.459c-0.216-0.002-0.429-0.009-0.646-0.009
			c-24.592,0-43.137,11.233-43.137,26.129c0,0.238,0.011,0.473,0.02,0.708c-7.214,1.59-13.679,4.646-18.862,8.75
			c-7.791-6.167-18.464-9.986-30.237-9.986c-23.786,0-43.138,15.552-43.138,34.667c0,4.142,3.358,7.5,7.5,7.5H246.55
			c4.142,0,7.5-3.358,7.5-7.5c0-11.961-7.577-22.526-19.076-28.76V456.28h17.537v33.387c0,5.227,3.159,11.12,7.511,14.014
			l10.625,7.064c1.277,0.849,2.719,1.255,4.146,1.255c2.427,0,4.808-1.176,6.252-3.349c2.293-3.45,1.356-8.105-2.093-10.398
			l-10.554-7.012c-0.346-0.295-0.838-1.212-0.888-1.575v-33.387h17.536v33.387c0,5.227,3.159,11.12,7.511,14.014l10.626,7.064
			c1.277,0.849,2.719,1.255,4.145,1.255c2.427,0,4.808-1.176,6.252-3.349c2.294-3.45,1.356-8.105-2.093-10.398l-10.554-7.012
			c-0.346-0.295-0.838-1.212-0.888-1.575v-33.387h17.536v33.387c0,5.227,3.159,11.121,7.512,14.014l10.626,7.064
			c1.277,0.849,2.719,1.255,4.145,1.255c2.427,0,4.809-1.176,6.253-3.349c2.293-3.45,1.356-8.105-2.093-10.398l-10.555-7.012
			c-0.346-0.294-0.838-1.211-0.888-1.574v-33.387h17.536v33.387c0,5.227,3.16,11.121,7.512,14.014l10.625,7.064
			c1.277,0.849,2.719,1.255,4.145,1.255c2.427,0,4.808-1.176,6.252-3.349c2.293-3.449,1.356-8.104-2.093-10.398l-10.554-7.012
			c-0.346-0.294-0.838-1.211-0.888-1.574v-33.387h17.536v33.387c0,5.227,3.16,11.121,7.512,14.014l10.625,7.064
			c1.277,0.849,2.719,1.255,4.145,1.255c2.427,0,4.808-1.176,6.252-3.349C413.485,505.203,412.547,500.548,409.098,498.254z
			 M262.951,397.284h59.292v17.776h-59.292V397.284z M113.079,497H68.768c4.314-7.067,14.452-12.167,25.929-12.167
			c8.051,0,15.433,2.515,20.618,6.453C114.372,493.117,113.623,495.028,113.079,497z M168.803,497.001h-39.545
			c4.316-7.068,14.453-12.168,25.93-12.168c6.387,0,12.35,1.586,17.131,4.207C170.763,491.538,169.574,494.206,168.803,497.001z
			 M158.81,469.969c0.666-3.992,11.214-10.738,28.103-10.738c16.925,0,27.482,6.774,28.107,10.763
			c-1.353-0.103-2.721-0.161-4.106-0.161c-10.621,0-20.351,3.106-27.876,8.241C176.383,473.534,168.007,470.588,158.81,469.969z
			 M236.842,497h-51.858c4.315-7.067,14.452-12.167,25.93-12.167C222.391,484.833,232.528,489.933,236.842,497z"/>
	</g>
</g>
<g>
	<g>
		<path d="M315.206,25.782c-1.31-2.422-3.843-3.932-6.597-3.932h-32.026c-2.754,0-5.287,1.509-6.597,3.932
			c-1.311,2.422-1.188,5.368,0.32,7.673l14.5,22.173c1.386,2.119,3.746,3.395,6.277,3.395h3.026c2.531,0,4.892-1.277,6.277-3.395
			l14.5-22.173C316.393,31.15,316.516,28.204,315.206,25.782z M292.597,40.134l-2.147-3.283h4.294L292.597,40.134z"/>
	</g>
</g>
<g>
	<g>
		<path d="M209.828,317.438c-9.435-9.434-22.521-14.844-35.903-14.844c-3.861,0-7.706,0.447-11.464,1.318l-7.215-7.215
			c-2.928-2.929-7.677-2.929-10.606,0c-2.929,2.929-2.929,7.678,0,10.606l7.215,7.216c-3.946,17.003,1.129,34.97,13.526,47.367
			c9.434,9.434,22.521,14.845,35.903,14.845c4.608,0,9.195-0.628,13.635-1.867c1.878-0.524,3.599-1.53,4.972-2.903
			c1.381-1.378,2.389-3.101,2.915-4.986C227.726,349.344,222.753,330.363,209.828,317.438z M208.86,360.917
			c-2.487,0.539-5.027,0.813-7.576,0.813c-9.434,0-18.654-3.81-25.296-10.451c-6.222-6.222-9.81-14.44-10.36-22.988l20.495,20.495
			c1.464,1.465,3.384,2.197,5.303,2.197c1.92,0,3.839-0.732,5.303-2.197c2.929-2.929,2.929-7.678,0-10.606l-20.501-20.501
			c8.617,0.564,16.893,4.266,22.994,10.365C207.831,336.653,211.429,349.084,208.86,360.917z"/>
	</g>
</g>
<g>
	<g>
		<path d="M458.576,310.021c-0.524-1.873-1.527-3.591-2.913-4.98c-1.378-1.376-3.098-2.38-4.975-2.904
			c-4.438-1.238-9.026-1.866-13.634-1.866c-13.382,0-26.468,5.411-35.902,14.844c-12.396,12.395-17.471,30.36-13.526,47.367
			l-7.215,7.215c-2.929,2.929-2.929,7.678,0,10.606c1.464,1.464,3.384,2.197,5.303,2.197s3.839-0.732,5.303-2.197l7.215-7.215
			c3.757,0.872,7.603,1.319,11.465,1.319c13.382,0,26.468-5.411,35.902-14.845C458.522,346.638,463.495,327.657,458.576,310.021z
			 M434.992,348.956c-6.101,6.101-14.377,9.802-22.995,10.367l20.501-20.501c2.929-2.929,2.929-7.678,0-10.606
			c-2.929-2.929-7.678-2.929-10.607,0l-20.495,20.495c0.551-8.547,4.139-16.766,10.361-22.988
			c6.642-6.642,15.862-10.451,25.296-10.451c2.55,0,5.091,0.273,7.578,0.813C447.199,327.918,443.6,340.347,434.992,348.956z"/>
	</g>
</g>
<g>
	<g>
		<path d="M421.475,214.698c-2.929-2.929-7.678-2.929-10.606,0l-7.215,7.216c-3.758-0.872-7.604-1.319-11.466-1.319
			c-13.381,0-26.466,5.411-35.901,14.845c-12.924,12.923-17.897,31.904-12.978,49.536c0.522,1.871,1.524,3.588,2.914,4.984
			c1.381,1.379,3.104,2.383,4.975,2.903c4.439,1.239,9.027,1.867,13.636,1.867c13.381,0,26.467-5.411,35.9-14.844
			c12.396-12.396,17.471-30.361,13.526-47.367l7.215-7.215C424.404,222.375,424.404,217.626,421.475,214.698z M390.127,269.278
			c-6.642,6.642-15.861,10.451-25.294,10.451c-2.549,0-5.088-0.273-7.58-0.813c-2.566-11.833,1.032-24.262,9.64-32.872
			c6.101-6.101,14.377-9.802,22.995-10.367l-20.501,20.502c-2.929,2.929-2.929,7.678,0,10.606c1.464,1.464,3.384,2.197,5.303,2.197
			s3.839-0.732,5.303-2.197l20.495-20.495C399.937,254.836,396.349,263.056,390.127,269.278z"/>
	</g>
</g>
<g>
</g>
<g>
</g>
<g>
</g>
<g>
</g>
<g>
</g>
<g>
</g>
<g>
</g>
<g>
</g>
<g>
</g>
<g>
</g>
<g>
</g>
<g>
</g>
<g>
</g>
<g>
</g>
<g>
</g>
</svg>
