<?xml version="1.0" encoding="iso-8859-1"?>
<!-- Generator: Adobe Illustrator 19.0.0, SVG Export Plug-In . SVG Version: 6.00 Build 0)  -->
<svg version="1.1" id="Capa_1" xmlns="http://www.w3.org/2000/svg" xmlns:xlink="http://www.w3.org/1999/xlink" x="0px" y="0px"
	 viewBox="0 0 512 512" style="enable-background:new 0 0 512 512;" xml:space="preserve">
<g>
	<g>
		<path d="M476.104,184.951h-38.627l4.442-60.608h20.82c6.893,0,12.5-5.607,12.5-12.5V75.415c0-6.892-5.607-12.5-12.5-12.5h-29.145
			V43.453c0-6.892-5.608-12.5-12.5-12.5h-92.173V12.5c0-6.893-5.607-12.5-12.5-12.5H195.579c-6.893,0-12.5,5.607-12.5,12.5v18.453
			H90.905c-6.893,0-12.5,5.608-12.5,12.5v19.462H49.262c-6.893,0-12.5,5.608-12.5,12.5v36.428c0,6.893,5.607,12.5,12.5,12.5H70.08
			l4.442,60.608H35.896c-6.893,0-12.5,5.607-12.5,12.5v91.297c0,6.893,5.607,12.5,12.5,12.5h16.732c6.892,0,12.5-5.607,12.5-12.5
			v-47.997h13.485l18.856,257.28c0.573,7.833,7.174,13.969,15.028,13.969H145c4.142,0,7.5-3.358,7.5-7.5c0-4.142-3.358-7.5-7.5-7.5
			l-32.422,0.01c-0.053-0.02-0.141-0.104-0.149-0.075l-1.604-21.879h290.36l-1.597,21.801c-0.022,0.051-0.111,0.134-0.083,0.143H186
			c-4.142,0-7.5,3.358-7.5,7.5c0,4.142,3.358,7.5,7.5,7.5h213.504c7.854,0,14.455-6.136,15.028-13.968l18.856-257.281h13.485v47.997
			c0,6.893,5.607,12.5,12.5,12.5h16.731c6.893,0,12.5-5.607,12.5-12.5v-91.297C488.604,190.559,482.997,184.951,476.104,184.951z
			 M50.128,286.248L50.128,286.248H38.396v-86.297h11.732V286.248z M198.079,15h115.842v15.953H198.079V15z M65.127,225.751v-25.8
			h10.495l1.891,25.8H65.127z M109.725,460.056L90.662,199.951h32.364l13.836,260.105H109.725z M151.884,460.056l-13.836-260.105
			h37.798l8.012,260.105H151.884z M198.866,460.056l-8.012-260.105h33.747l2.636,260.105H198.866z M269.763,460.056h-27.525
			l-2.636-260.105h32.797L269.763,460.056z M313.134,460.056h-28.371l2.636-260.105h33.747L313.134,460.056z M402.283,460.057
			h-27.146l5.354-100.659c0.22-4.136-2.955-7.668-7.091-7.888c-4.139-0.221-7.668,2.955-7.888,7.091l-5.396,101.456h-31.975
			l8.012-260.105h37.798l-6.258,117.65c-0.22,4.136,2.955,7.668,7.091,7.888c4.138,0.226,7.668-2.955,7.888-7.091l6.3-118.447
			h32.368L402.283,460.057z M422.44,184.951H89.563l-4.442-60.608H426.88L422.44,184.951z M51.762,109.343V77.915H158
			c4.142,0,7.5-3.358,7.5-7.5c0-4.142-3.358-7.5-7.5-7.5H93.405V45.953h325.189v16.962H199c-4.142,0-7.5,3.358-7.5,7.5
			c0,4.142,3.358,7.5,7.5,7.5h261.239v31.428H51.762z M446.873,225.751h-12.386l1.891-25.8h10.495V225.751z M473.604,286.248
			h-11.731v-86.297h11.731V286.248z"/>
	</g>
</g>
<g>
	<g>
		<path d="M305.442,132.891h-98.883c-5.79,0-10.5,4.71-10.5,10.5v19.824c0,5.789,4.71,10.5,10.5,10.5h98.883
			c5.79,0,10.5-4.71,10.5-10.5v-19.824C315.942,137.601,311.232,132.891,305.442,132.891z M300.942,158.715h-89.883v-10.824h89.883
			V158.715z"/>
	</g>
</g>
<g>
</g>
<g>
</g>
<g>
</g>
<g>
</g>
<g>
</g>
<g>
</g>
<g>
</g>
<g>
</g>
<g>
</g>
<g>
</g>
<g>
</g>
<g>
</g>
<g>
</g>
<g>
</g>
<g>
</g>
</svg>
