<?xml version="1.0" encoding="iso-8859-1"?>
<!-- Generator: Adobe Illustrator 19.0.0, SVG Export Plug-In . SVG Version: 6.00 Build 0)  -->
<svg version="1.1" id="Capa_1" xmlns="http://www.w3.org/2000/svg" xmlns:xlink="http://www.w3.org/1999/xlink" x="0px" y="0px"
	 viewBox="0 0 512 512" style="enable-background:new 0 0 512 512;" xml:space="preserve">
<g>
	<g>
		<path d="M498.434,231.77H341.865l26.439-26.439c2.929-2.929,2.929-7.678,0-10.606c-2.929-2.929-7.677-2.929-10.607,0
			l-37.046,37.045h-20.675l26.943-26.944c2.929-2.929,2.929-7.677,0-10.606l-55.52-55.519c-2.93-2.929-7.678-2.929-10.607,0
			c-0.081,0.081-0.151,0.169-0.227,0.252c-0.003-0.005-0.007-0.01-0.01-0.015l-59.418,59.419c-1.779,1.779-4.788,1.779-6.565,0.001
			l-3.773-3.773c-0.867-0.867-1.345-2.033-1.345-3.283c0-1.249,0.478-2.415,1.346-3.283l77.769-77.769
			c2.145-2.145,2.786-5.371,1.625-8.173c-1.16-2.803-3.896-4.63-6.929-4.63h-20.016c-6.577,0-11.928-5.351-11.928-11.929
			s5.351-11.929,11.928-11.929h58.872c1.989,0,3.897-0.79,5.303-2.196l11.708-11.708c1.781-1.78,4.791-1.779,6.568-0.001
			l80.235,80.237c0.867,0.868,1.346,2.033,1.346,3.283c0,1.249-0.478,2.415-1.347,3.283l-24.212,24.211
			c-2.929,2.929-2.929,7.678,0,10.606c2.93,2.929,7.678,2.93,10.607,0l24.211-24.21c3.701-3.701,5.74-8.633,5.74-13.89
			c0-5.257-2.039-10.189-5.739-13.89l-80.236-80.238c-7.657-7.654-20.119-7.656-27.778,0l-9.513,9.512h-55.766
			c-14.848,0-26.928,12.08-26.928,26.929s12.08,26.929,26.928,26.929h1.909l-64.966,64.965c-3.7,3.701-5.738,8.633-5.738,13.89
			s2.038,10.189,5.738,13.89l3.773,3.773c3.066,3.066,6.903,4.904,10.894,5.515c-1.877,3.056-2.881,6.584-2.881,10.272
			c0,2.442,0.458,4.807,1.3,7.018H13.561C6.084,231.77,0,237.855,0,245.333v18.594c0,7.479,6.084,13.564,13.561,13.564H36.74
			l59.469,169.912c4.45,12.717,16.493,21.262,29.967,21.262h259.646c13.473,0,25.516-8.544,29.968-21.262l31.822-90.923
			c1.368-3.91-0.691-8.188-4.602-9.557c-3.913-1.368-8.188,0.692-9.557,4.602l-31.822,90.922c-2.349,6.71-8.702,11.217-15.81,11.217
			H126.176c-7.107,0-13.461-4.508-15.809-11.217L49.141,267.514c-1.053-3.008-3.892-5.022-7.079-5.022H15v-15.721h36.681
			l67.416,192.622c1.053,3.008,3.892,5.022,7.079,5.022H179c4.143,0,7.5-3.358,7.5-7.5c0-4.142-3.357-7.5-7.5-7.5h-47.503
			l-28.086-80.249c11.3-2.914,21.923-7.557,31.71-13.88c17.72,11.437,38.294,17.456,59.835,17.456
			c21.546,0,42.122-6.02,59.838-17.457c17.718,11.437,38.293,17.457,59.836,17.457c21.544,0,42.118-6.019,59.835-17.456
			c10.442,6.75,21.811,11.575,33.93,14.431l-27.893,79.698H217c-4.143,0-7.5,3.358-7.5,7.5c0,4.142,3.357,7.5,7.5,7.5h168.822
			c3.188,0,6.026-2.014,7.079-5.022l67.416-192.622H497v15.721h-27.064c-3.188,0-6.026,2.014-7.079,5.022l-17.504,50.013
			c-1.368,3.91,0.692,8.188,4.602,9.557c3.911,1.366,8.188-0.692,9.557-4.602l15.746-44.99h23.176
			c7.48,0,13.566-6.085,13.566-13.564v-18.594C512,237.855,505.914,231.77,498.434,231.77z M305.65,246.77l-24.409,24.409
			c-0.867,0.868-2.033,1.345-3.282,1.345c-1.249,0-2.415-0.478-3.283-1.346l-3.772-3.77c-0.867-0.868-1.346-2.033-1.346-3.283
			s0.479-2.416,1.347-3.284l14.07-14.071H305.65z M306.465,194.98l-36.791,36.79h-20.673l47.127-47.128L306.465,194.98z
			 M254.674,246.77l-10.525,10.526c-0.868,0.868-2.034,1.345-3.283,1.345c-1.249,0-2.414-0.478-3.282-1.346l-3.771-3.771
			c-0.867-0.868-1.345-2.034-1.345-3.283c-0.001-1.249,0.476-2.414,1.346-3.283l0.188-0.188H254.674z M208.324,221.469
			l62.315-62.314l10.338,10.338l-62.276,62.278h-6.643l-3.735-3.737c-0.868-0.867-1.346-2.033-1.346-3.282
			C206.977,223.502,207.456,222.337,208.324,221.469z M413.38,335.476c-12.513-2.736-24.11-7.884-34.547-15.357
			c-2.611-1.869-6.121-1.869-8.732,0c-16.102,11.529-35.282,17.623-55.471,17.623c-20.187,0-39.368-6.094-55.47-17.623
			c-2.611-1.869-6.123-1.87-8.732,0c-16.101,11.529-35.282,17.623-55.472,17.623c-20.185,0-39.366-6.094-55.47-17.623
			c-2.611-1.869-6.121-1.869-8.732,0c-9.793,7.012-20.642,11.982-32.317,14.833l-3.478-9.934
			c15.247-3.565,28.985-11.221,40.159-22.489c15.887,16.01,37.097,24.815,59.838,24.815c22.745,0,43.956-8.805,59.839-24.815
			c15.881,16.01,37.089,24.815,59.835,24.815c22.746,0,43.956-8.806,59.837-24.815c11.604,11.688,26.381,19.644,42.397,22.99
			L413.38,335.476z M421.859,311.243c-14.279-2.516-27.092-9.313-37.328-19.873c-2.618-2.7-6.287-4.248-10.065-4.248
			c-3.775,0-7.443,1.547-10.067,4.25c-13.108,13.524-30.784,20.972-49.77,20.972c-18.988,0-36.662-7.448-49.771-20.975
			c-2.618-2.7-6.287-4.248-10.066-4.248c-3.776,0-7.445,1.548-10.066,4.25c-13.108,13.524-30.784,20.972-49.771,20.972
			c-18.984,0-36.66-7.448-49.769-20.97c-2.618-2.703-6.287-4.252-10.067-4.252c-3.776,0-7.445,1.547-10.069,4.251
			c-9.647,9.955-21.679,16.595-35.072,19.414L67.573,246.77h140.539c3.024,1.199,6.286,1.622,9.476,1.264
			c-0.08,0.727-0.121,1.463-0.121,2.206c0,5.256,2.037,10.189,5.738,13.891l3.771,3.77c3.7,3.701,8.633,5.74,13.89,5.74
			c5.256,0,10.188-2.038,13.89-5.738l0.137-0.137c0.718,3.866,2.576,7.419,5.407,10.25l3.771,3.77
			c3.701,3.701,8.634,5.739,13.89,5.739c5.256,0,10.188-2.038,13.89-5.739l35.016-35.015h117.561L421.859,311.243z"/>
	</g>
</g>
<g>
	<g>
		<path d="M233.919,394.034c-2.93-2.929-7.678-2.929-10.607,0c-1.533,1.534-3.572,2.378-5.741,2.378
			c-2.169,0-4.208-0.845-5.741-2.378c-2.93-2.928-7.679-2.929-10.606,0c-2.93,2.929-2.93,7.678-0.001,10.607
			c4.366,4.366,10.172,6.771,16.347,6.771s11.982-2.405,16.349-6.772C236.848,401.711,236.848,396.962,233.919,394.034z"/>
	</g>
</g>
<g>
	<g>
		<path d="M309.331,394.034c-2.932-2.929-7.68-2.929-10.609,0c-3.167,3.167-8.317,3.166-11.484,0c-2.928-2.929-7.677-2.928-10.606,0
			c-2.929,2.929-2.929,7.678,0.001,10.607c4.507,4.507,10.428,6.76,16.349,6.76c5.92,0,11.841-2.254,16.349-6.761
			C312.26,401.711,312.26,396.962,309.331,394.034z"/>
	</g>
</g>
<g>
	<g>
		<path d="M198.371,364.681c-2.932-2.929-7.68-2.929-10.609,0c-1.533,1.534-3.573,2.379-5.742,2.379s-4.208-0.845-5.741-2.379
			c-2.929-2.928-7.678-2.929-10.606,0c-2.93,2.929-2.93,7.678-0.001,10.607c4.367,4.367,10.173,6.772,16.349,6.772
			c6.176,0,11.982-2.405,16.35-6.772C201.3,372.359,201.3,367.61,198.371,364.681z"/>
	</g>
</g>
<g>
	<g>
		<path d="M271.624,364.68c-2.93-2.929-7.678-2.929-10.607,0c-3.167,3.167-8.317,3.166-11.484,0c-2.928-2.929-7.677-2.928-10.606,0
			c-2.929,2.929-2.929,7.678,0.001,10.607c4.507,4.507,10.428,6.76,16.349,6.76c5.918,0.001,11.839-2.253,16.347-6.76
			C274.553,372.358,274.553,367.609,271.624,364.68z"/>
	</g>
</g>
<g>
	<g>
		<path d="M344.88,364.681c-2.929-2.929-7.678-2.931-10.607-0.001c-3.167,3.167-8.319,3.167-11.484,0
			c-2.93-2.928-7.679-2.929-10.607,0c-2.93,2.929-2.93,7.678-0.001,10.607c4.509,4.508,10.427,6.761,16.349,6.761
			c5.92,0,11.842-2.254,16.349-6.76C347.809,372.359,347.809,367.611,344.88,364.681z"/>
	</g>
</g>
<g>
	<g>
		<path d="M346.91,99.027c-2.931-2.928-7.679-2.928-10.608,0c-15.225,15.226-40.539,11.479-40.867,11.427
			c-4.089-0.651-7.924,2.119-8.589,6.2c-0.666,4.088,2.108,7.942,6.197,8.608c0.443,0.072,4.21,0.656,9.805,0.656
			c11.335,0,30.171-2.395,44.062-16.285C349.839,106.704,349.839,101.955,346.91,99.027z"/>
	</g>
</g>
<g>
</g>
<g>
</g>
<g>
</g>
<g>
</g>
<g>
</g>
<g>
</g>
<g>
</g>
<g>
</g>
<g>
</g>
<g>
</g>
<g>
</g>
<g>
</g>
<g>
</g>
<g>
</g>
<g>
</g>
</svg>
