<?xml version="1.0" encoding="iso-8859-1"?>
<!-- Generator: Adobe Illustrator 19.0.0, SVG Export Plug-In . SVG Version: 6.00 Build 0)  -->
<svg version="1.1" id="Capa_1" xmlns="http://www.w3.org/2000/svg" xmlns:xlink="http://www.w3.org/1999/xlink" x="0px" y="0px"
	 viewBox="0 0 512 512" style="enable-background:new 0 0 512 512;" xml:space="preserve">
<g>
	<g>
		<path d="M164.765,119.283V93.282c0-14.371-11.691-26.063-26.063-26.063h-34.088V46.516h5.508c6.893,0,12.5-5.607,12.5-12.5V12.5
			c0-6.893-5.607-12.5-12.5-12.5H60.469c-6.893,0-12.5,5.607-12.5,12.5v21.516c0,6.893,5.607,12.5,12.5,12.5h7.762v20.703h-6.904
			V66.11c0-6.893-5.607-12.5-12.5-12.5h-25.5c-6.893,0-12.5,5.607-12.5,12.5v45.664c-0.001,6.893,5.607,12.5,12.499,12.5h25.5
			c6.893,0,12.5-5.607,12.5-12.5v-1.712h10.673c4.143,0,7.5-3.358,7.5-7.5c0-4.142-3.357-7.5-7.5-7.5H61.326V82.219h77.377
			c6.1,0,11.063,4.963,11.063,11.063v25.336h-13.617v-11.414c0-6.695-5.446-12.141-12.141-12.141H107c-4.143,0-7.5,3.358-7.5,7.5
			c0,4.142,3.357,7.5,7.5,7.5h14.148v8.799c-5.725,1.141-10.053,6.201-10.053,12.256v13.203c0,6.893,5.607,12.5,12.5,12.5h37.178
			c6.893,0,12.5-5.607,12.5-12.5v-13.203C173.273,125.622,169.704,120.954,164.765,119.283z M46.326,109.274h-20.5V68.61h20.5
			V109.274z M62.969,31.516V15h44.654v16.516H62.969z M89.615,67.219H83.23V48.766h6.385V67.219z M158.273,141.82h-32.178v-8.203
			h32.178V141.82z"/>
	</g>
</g>
<g>
	<g>
		<path d="M123.002,166.383c-4.143,0-7.5,3.358-7.5,7.5v9.005c0,4.142,3.357,7.5,7.5,7.5s7.5-3.358,7.5-7.5v-9.005
			C130.502,169.741,127.145,166.383,123.002,166.383z"/>
	</g>
</g>
<g>
	<g>
		<path d="M159.02,166.383c-4.143,0-7.5,3.358-7.5,7.5v9.005c0,4.142,3.357,7.5,7.5,7.5s7.5-3.358,7.5-7.5v-9.005
			C166.52,169.741,163.163,166.383,159.02,166.383z"/>
	</g>
</g>
<g>
	<g>
		<path d="M159.02,261.661c-4.143,0-7.5,3.358-7.5,7.5v9.004c0,4.142,3.357,7.5,7.5,7.5s7.5-3.358,7.5-7.5v-9.004
			C166.52,265.019,163.163,261.661,159.02,261.661z"/>
	</g>
</g>
<g>
	<g>
		<path d="M138.76,200.15c-4.143,0-7.5,3.358-7.5,7.5v9.004c0,4.142,3.357,7.5,7.5,7.5s7.5-3.358,7.5-7.5v-9.004
			C146.26,203.508,142.903,200.15,138.76,200.15z"/>
	</g>
</g>
<g>
	<g>
		<path d="M496.819,394.686c-1.278-3.94-5.509-6.099-9.447-4.821c-3.94,1.278-6.099,5.508-4.82,9.448
			c2.403,7.412,3.622,15.164,3.622,23.042c0,41.159-33.485,74.645-74.645,74.645c-41.16,0-74.646-33.486-74.646-74.645
			s33.486-74.645,74.646-74.645c21.394,0,41.795,9.205,55.971,25.255c2.741,3.104,7.48,3.399,10.586,0.656
			c3.104-2.742,3.398-7.482,0.656-10.586c-11.756-13.311-27.079-22.697-43.898-27.233l18.065-51.615h21.132
			c7.24,0,13.131-5.889,13.131-13.128v-17.26c0-7.239-5.891-13.128-13.131-13.128h-40.322H166.52v-4.88c0-4.142-3.357-7.5-7.5-7.5
			s-7.5,3.358-7.5,7.5v4.88H64.277H23.953c-7.238,0-13.127,5.889-13.127,13.128v17.26c0,7.239,5.889,13.128,13.127,13.128h21.134
			l55.076,157.362c4.207,12.021,15.59,20.097,28.325,20.097h202.477C345.554,491.436,376.184,512,411.529,512
			c49.431,0,89.645-40.214,89.645-89.645C501.174,412.904,499.709,403.595,496.819,394.686z M439.04,255.67h33.132v13.517h-24.584
			c-3.188,0-6.026,2.014-7.079,5.023l-20.615,58.9c-2.589-0.243-5.197-0.376-7.819-0.392l1.916-5.474
			c0.003-0.01,0.007-0.021,0.011-0.031L439.04,255.67z M115.502,255.67v3.756c0,4.142,3.357,7.5,7.5,7.5s7.5-3.358,7.5-7.5v-3.756
			h292.646l-21.674,61.928c-0.013,0-0.025,0.001-0.038,0.001c-16.18,0-31.248-6.469-42.431-18.216
			c-2.463-2.585-5.923-4.068-9.493-4.068s-7.03,1.483-9.494,4.069c-11.184,11.746-26.253,18.215-42.432,18.215
			c-16.181,0-31.249-6.468-42.431-18.216c-2.463-2.585-5.923-4.068-9.493-4.068s-7.03,1.483-9.494,4.069
			c-11.184,11.746-26.254,18.215-42.434,18.215c-16.179,0-31.248-6.469-42.428-18.211c-2.461-2.588-5.922-4.073-9.496-4.073
			c-3.571,0-7.032,1.483-9.497,4.069c-9.633,10.119-22.235,16.331-35.925,17.83l-21.54-61.544H115.502z M128.488,446.647
			L128.488,446.647c-6.369-0.001-12.063-4.041-14.167-10.053L57.487,274.209c-1.053-3.008-3.892-5.023-7.079-5.023H25.826V255.67
			h33.13l62.453,178.443c1.053,3.008,3.892,5.023,7.079,5.023h194.977c0.483,2.542,1.07,5.048,1.764,7.511H128.488z
			 M321.883,422.355c0,0.595,0.011,1.188,0.022,1.78H133.81l-24.846-70.99c11.669-2.35,22.85-6.877,32.843-13.323
			c15.415,9.971,33.256,15.214,51.928,15.214c18.674,0,36.516-5.243,51.928-15.211c15.412,9.968,33.253,15.211,51.924,15.211
			c4.143,0,7.5-3.358,7.5-7.5c0-4.142-3.357-7.5-7.5-7.5c-17.287,0-33.714-5.314-47.506-15.369c-2.633-1.919-6.203-1.919-8.836,0
			c-13.792,10.054-30.221,15.369-47.51,15.369c-17.285,0-33.713-5.314-47.506-15.369c-2.633-1.92-6.203-1.918-8.836,0
			c-9.882,7.203-21.383,12.059-33.44,14.159l-2.504-7.154c15.248-2.388,29.27-9.479,40.36-20.543
			c13.892,13.86,32.254,21.47,51.926,21.47c19.674,0,38.037-7.608,51.928-21.469c13.888,13.861,32.249,21.469,51.924,21.469
			c19.673,0,38.035-7.608,51.926-21.469c12.67,12.643,29.067,20.064,46.78,21.273l-0.598,1.708c-4.693,0.84-9.259,2.052-13.67,3.594
			c-10.101-2.479-19.685-6.906-28.095-13.036c-2.633-1.92-6.203-1.919-8.836,0c-3.893,2.838-8.049,5.33-12.354,7.408
			c-3.73,1.8-5.295,6.284-3.495,10.014c1.801,3.73,6.282,5.296,10.015,3.495c3.518-1.698,6.95-3.628,10.254-5.763
			c4.286,2.764,8.792,5.172,13.46,7.21C338.268,363.013,321.883,390.805,321.883,422.355z"/>
	</g>
</g>
<g>
	<g>
		<path d="M411.529,355.092c-37.089,0-67.264,30.174-67.264,67.263s30.175,67.263,67.264,67.263
			c37.088,0,67.262-30.174,67.262-67.263S448.617,355.092,411.529,355.092z M453.39,453.612l-1.082-1.081
			c-2.929-2.929-7.678-2.927-10.606,0.003c-2.928,2.93-2.927,7.678,0.003,10.606l1.079,1.079
			c-6.825,5.109-14.939,8.581-23.754,9.854v-1.543c0-4.142-3.357-7.5-7.5-7.5s-7.5,3.358-7.5,7.5v1.543
			c-8.816-1.273-16.931-4.746-23.757-9.855l1.08-1.08c2.929-2.929,2.929-7.678-0.001-10.606c-2.93-2.929-7.679-2.929-10.607,0.001
			l-1.079,1.079c-5.109-6.826-8.581-14.94-9.854-23.755h1.542c4.143,0,7.5-3.358,7.5-7.5c0-4.142-3.357-7.5-7.5-7.5h-1.542
			c1.273-8.816,4.745-16.93,9.854-23.755l1.079,1.079c1.465,1.465,3.384,2.197,5.304,2.197c1.919,0,3.839-0.732,5.303-2.196
			c2.93-2.929,2.93-7.677,0.001-10.606l-1.08-1.08c6.826-5.109,14.94-8.583,23.757-9.855v1.542c0,4.142,3.357,7.5,7.5,7.5
			s7.5-3.358,7.5-7.5v-1.542c8.815,1.273,16.929,4.745,23.754,9.854l-1.079,1.079c-2.93,2.928-2.931,7.677-0.003,10.606
			c1.465,1.465,3.385,2.198,5.305,2.198c1.919,0,3.838-0.732,5.302-2.195l1.083-1.082c5.109,6.826,8.581,14.94,9.854,23.756h-1.542
			c-4.143,0-7.5,3.358-7.5,7.5c-0.001,4.14,3.356,7.498,7.499,7.498h1.542C461.972,438.671,458.499,446.786,453.39,453.612z"/>
	</g>
</g>
<g>
	<g>
		<path d="M435.572,404.035c-2.512-3.293-7.217-3.931-10.512-1.419l-6.03,4.595v-16.706c0-4.142-3.357-7.5-7.5-7.5
			s-7.5,3.358-7.5,7.5v31.85c0,2.851,1.616,5.455,4.172,6.721c1.055,0.522,2.193,0.779,3.327,0.779c1.613,0,3.215-0.52,4.547-1.535
			l18.076-13.774C437.446,412.036,438.082,407.33,435.572,404.035z"/>
	</g>
</g>
<g>
	<g>
		<path d="M180.304,367.203c-2.93-2.929-7.678-2.929-10.607,0c-1.322,1.322-3.08,2.05-4.949,2.05c-1.87,0-3.628-0.728-4.949-2.05
			c-2.93-2.928-7.679-2.929-10.606-0.001c-2.93,2.929-2.93,7.678-0.001,10.607c4.155,4.155,9.68,6.444,15.557,6.444
			c5.876,0,11.401-2.289,15.557-6.444C183.232,374.88,183.232,370.131,180.304,367.203z"/>
	</g>
</g>
<g>
	<g>
		<path d="M211.305,394.449c-2.931-2.928-7.679-2.928-10.609,0.001c-1.322,1.322-3.08,2.05-4.949,2.05
			c-1.87,0-3.628-0.728-4.949-2.05c-2.93-2.928-7.679-2.929-10.606-0.001c-2.93,2.929-2.93,7.678-0.001,10.607
			c4.155,4.155,9.68,6.444,15.557,6.444c5.876,0,11.401-2.289,15.557-6.444C214.234,402.127,214.234,397.378,211.305,394.449z"/>
	</g>
</g>
<g>
	<g>
		<path d="M281.304,394.449c-2.93-2.928-7.678-2.928-10.608,0.001c-1.322,1.322-3.08,2.05-4.949,2.05
			c-1.87,0-3.628-0.728-4.949-2.05c-2.929-2.928-7.678-2.929-10.607-0.001c-2.93,2.929-2.93,7.678-0.001,10.607
			c4.155,4.155,9.68,6.444,15.557,6.444c5.876,0,11.401-2.289,15.557-6.444C284.233,402.127,284.233,397.378,281.304,394.449z"/>
	</g>
</g>
<g>
	<g>
		<path d="M248.304,367.203c-2.93-2.929-7.678-2.929-10.607,0c-1.322,1.322-3.08,2.05-4.949,2.05c-1.87,0-3.628-0.728-4.949-2.05
			c-2.929-2.928-7.678-2.929-10.606-0.001c-2.93,2.929-2.93,7.678-0.001,10.607c4.155,4.155,9.68,6.444,15.557,6.444
			c5.876,0,11.401-2.289,15.557-6.444C251.232,374.88,251.232,370.131,248.304,367.203z"/>
	</g>
</g>
<g>
	<g>
		<path d="M316.304,367.202c-2.93-2.928-7.678-2.928-10.608,0.001c-1.322,1.322-3.08,2.05-4.949,2.05
			c-1.87,0-3.628-0.728-4.949-2.05c-2.929-2.928-7.678-2.929-10.607-0.001c-2.93,2.929-2.93,7.678-0.001,10.607
			c4.155,4.155,9.68,6.444,15.557,6.444c5.876,0,11.401-2.289,15.557-6.444C319.233,374.88,319.233,370.131,316.304,367.202z"/>
	</g>
</g>
<g>
</g>
<g>
</g>
<g>
</g>
<g>
</g>
<g>
</g>
<g>
</g>
<g>
</g>
<g>
</g>
<g>
</g>
<g>
</g>
<g>
</g>
<g>
</g>
<g>
</g>
<g>
</g>
<g>
</g>
</svg>
