<?xml version="1.0" encoding="iso-8859-1"?>
<!-- Generator: Adobe Illustrator 19.0.0, SVG Export Plug-In . SVG Version: 6.00 Build 0)  -->
<svg version="1.1" id="Capa_1" xmlns="http://www.w3.org/2000/svg" xmlns:xlink="http://www.w3.org/1999/xlink" x="0px" y="0px"
	 viewBox="0 0 512 512" style="enable-background:new 0 0 512 512;" xml:space="preserve">
<g>
	<g>
		<path d="M70.853,464.343c-13.748-4.281-15.404-5.937-19.685-19.684c-1.401-4.501-5.51-7.525-10.224-7.525
			c-4.711,0-8.82,3.022-10.224,7.524c-4.281,13.748-5.937,15.404-19.683,19.684c-4.502,1.401-7.526,5.51-7.526,10.225
			c0,4.716,3.025,8.825,7.524,10.223c13.747,4.281,15.403,5.937,19.685,19.688c1.403,4.499,5.512,7.522,10.224,7.522
			c4.714,0,8.823-3.025,10.223-7.525c4.282-13.748,5.938-15.404,19.681-19.684c4.504-1.399,7.529-5.508,7.529-10.225
			C78.378,469.852,75.353,465.743,70.853,464.343z M40.945,489.104c-3.364-7.038-7.499-11.173-14.537-14.537
			c7.039-3.364,11.173-7.499,14.537-14.537c3.364,7.038,7.498,11.173,14.537,14.537C48.443,477.931,44.309,482.065,40.945,489.104z"
			/>
	</g>
</g>
<g>
	<g>
		<path d="M500.966,385.306c-13.747-4.281-15.403-5.937-19.686-19.688c-1.402-4.499-5.511-7.522-10.223-7.522
			c-4.713,0-8.821,3.023-10.225,7.524c-4.28,13.748-5.936,15.404-19.683,19.685c-4.502,1.401-7.526,5.51-7.526,10.224
			s3.025,8.823,7.525,10.224c13.747,4.281,15.403,5.937,19.685,19.687c1.402,4.499,5.511,7.523,10.224,7.523
			s8.82-3.023,10.224-7.524c4.281-13.748,5.938-15.404,19.684-19.685c4.501-1.401,7.525-5.51,7.525-10.224
			C508.49,390.815,505.466,386.707,500.966,385.306z M471.058,410.067c-3.364-7.039-7.499-11.173-14.537-14.538
			c7.039-3.364,11.173-7.498,14.537-14.537c3.364,7.038,7.498,11.173,14.537,14.537
			C478.556,398.894,474.422,403.027,471.058,410.067z"/>
	</g>
</g>
<g>
	<g>
		<path d="M455.458,294.657c-18.251-5.684-20.718-8.151-26.401-26.4c-1.516-4.87-5.96-8.141-11.06-8.141
			c-5.1,0-9.544,3.272-11.06,8.14c-3.236,10.393-5.435,15.666-10.093,19.331v-41.678h49.24c7.469,0,13.922-5.068,15.693-12.331
			c1.765-7.259-1.635-14.727-8.268-18.16l-65.062-33.677c-3.674-1.903-8.204-0.465-10.107,3.213
			c-1.904,3.679-0.466,8.204,3.213,10.108l65.062,33.678c0.472,0.244,0.713,0.776,0.589,1.289c-0.127,0.518-0.587,0.88-1.119,0.88
			h-49.24v-9.848c0-7.72-6.281-14.001-13.999-14.001c0,0-130.956-0.055-219.839-0.057c-0.002,0-47.999,0-47.999,0
			c-13.29,0-24.125,10.68-24.393,23.906H41.794c-0.532,0-0.991-0.36-1.116-0.874c-0.126-0.518,0.116-1.05,0.589-1.294
			l129.838-67.206h145.669l33.781,17.485c3.677,1.905,8.204,0.466,10.107-3.213c1.904-3.679,0.466-8.204-3.213-10.108
			l-106.01-54.873V90.494c21.563-3.587,38.057-22.373,38.057-44.938C289.497,20.436,269.061,0,243.94,0
			c-25.12,0-45.557,20.436-45.557,45.556c0,4.142,3.358,7.5,7.5,7.5c4.142,0,7.5-3.358,7.5-7.5C213.384,28.707,227.091,15,243.94,15
			s30.557,13.707,30.557,30.556s-13.708,30.556-30.557,30.556c-4.142,0-7.5,3.358-7.5,7.5v27.213L34.373,215.419
			c-6.634,3.433-10.035,10.9-8.269,18.162c1.767,7.259,8.219,12.329,15.691,12.329h48.808v252.088
			c0,7.721,6.282,14.002,14.003,14.002h37.827h232.662h7.749c7.721,0,14.002-6.281,14.002-14.001V323.847
			c4.659,3.664,6.856,8.936,10.093,19.328c1.515,4.87,5.96,8.142,11.06,8.142c5.1,0,9.545-3.272,11.06-8.14
			c5.681-18.25,8.148-20.717,26.395-26.4c4.871-1.514,8.144-5.959,8.144-11.061C463.598,300.615,460.326,296.17,455.458,294.657z
			 M243.411,124.107c0.329-0.171,0.729-0.171,1.058,0l43.328,22.427h-87.712L243.411,124.107z M115.008,222.003h3.988
			c0.032,0.001,0.063,0.005,0.094,0.005c4.982,0.033,9.053,3.983,9.314,8.901h-22.777
			C105.89,225.956,109.99,222.003,115.008,222.003z M128.429,497h-22.827V245.909h22.827V497z M381.845,497h-6.751H143.429v-25.89
			h238.416V497z M381.845,456.11H143.429v-24.467h238.416V456.11z M381.845,294.246c-0.428,0.136-0.858,0.272-1.305,0.411
			c-4.871,1.514-8.144,5.959-8.144,11.06c0,5.102,3.272,9.546,8.141,11.06c0.448,0.14,0.879,0.275,1.308,0.411v99.455H143.429
			V231.406c0-3.328-0.674-6.505-1.893-9.402c3.9-0.001,227.804,0.051,240.309,0.056V294.246z M417.997,329.321
			c-5.046-12.704-10.899-18.558-23.604-23.604c12.704-5.045,18.559-10.9,23.604-23.604c5.046,12.704,10.9,18.558,23.605,23.604
			C428.898,310.762,423.043,316.617,417.997,329.321z"/>
	</g>
</g>
<g>
</g>
<g>
</g>
<g>
</g>
<g>
</g>
<g>
</g>
<g>
</g>
<g>
</g>
<g>
</g>
<g>
</g>
<g>
</g>
<g>
</g>
<g>
</g>
<g>
</g>
<g>
</g>
<g>
</g>
</svg>
