<?xml version="1.0" encoding="iso-8859-1"?>
<!-- Generator: Adobe Illustrator 19.0.0, SVG Export Plug-In . SVG Version: 6.00 Build 0)  -->
<svg version="1.1" id="Capa_1" xmlns="http://www.w3.org/2000/svg" xmlns:xlink="http://www.w3.org/1999/xlink" x="0px" y="0px"
	 viewBox="0 0 512 512" style="enable-background:new 0 0 512 512;" xml:space="preserve">
<g>
	<g>
		<path d="M483.654,276.477c-15.629,0-28.345,12.716-28.345,28.346c0,4.142,3.358,7.5,7.5,7.5c4.142,0,7.5-3.358,7.5-7.5
			c0-7.359,5.987-13.346,13.345-13.346c7.359,0,13.346,5.987,13.346,13.346c0,4.142,3.358,7.5,7.5,7.5c4.142,0,7.5-3.358,7.5-7.5
			C512,289.191,499.284,276.477,483.654,276.477z"/>
	</g>
</g>
<g>
	<g>
		<path d="M327.862,144.82c-15.629,0-28.345,12.716-28.345,28.346c0,4.142,3.358,7.5,7.5,7.5c4.142,0,7.5-3.358,7.5-7.5
			c0-7.359,5.987-13.346,13.345-13.346c7.359,0,13.346,5.987,13.346,13.346c0,4.142,3.358,7.5,7.5,7.5c4.142,0,7.5-3.358,7.5-7.5
			C356.208,157.536,343.492,144.82,327.862,144.82z"/>
	</g>
</g>
<g>
	<g>
		<path d="M255.956,231.729c-15.463-8.798-30.722-10.882-31.364-10.967c-4.11-0.54-7.874,2.351-8.414,6.458
			c-0.54,4.107,2.351,7.874,6.458,8.414c0.128,0.017,12.962,1.77,25.903,9.132c14.179,8.067,22.49,19.416,24.783,33.808h-49.868
			v-8.859c0-7.16-5.825-12.985-12.985-12.985h-51.565c-7.16,0-12.985,5.825-12.985,12.985v8.859h-40.868l21.466-61.008
			l57.074,10.912c4.065,0.778,7.997-1.89,8.775-5.958c0.778-4.068-1.89-7.997-5.959-8.775l-58.504-11.185
			c-6.31-1.207-12.921,2.596-15.053,8.655l-23.804,67.652c-1.253,3.562-0.798,7.264,1.251,10.156
			c2.048,2.893,5.389,4.551,9.164,4.551h182.008c2.009,0,3.935-0.806,5.344-2.238c1.41-1.432,2.186-3.369,2.155-5.378
			C288.604,262.56,277.189,243.807,255.956,231.729z M208.455,278.573h-47.536v-6.845h47.536V278.573z"/>
	</g>
</g>
<g>
	<g>
		<path d="M104.339,303.906H60.968c-5.79,0-10.5,4.711-10.5,10.5v16.265c0,5.789,4.71,10.5,10.5,10.5h43.371
			c5.79,0,10.5-4.711,10.5-10.5v-16.265C114.839,308.617,110.128,303.906,104.339,303.906z M99.839,326.17H65.468v-7.265h34.371
			V326.17z"/>
	</g>
</g>
<g>
	<g>
		<path d="M473.099,147.667H461c-4.142,0-7.5,3.358-7.5,7.5c0,4.142,3.358,7.5,7.5,7.5h12.099c7.735,0,14.027,6.292,14.027,14.027
			c0,7.735-6.293,14.027-14.027,14.027h-35.227c-9.531,0-17.286,7.85-17.286,17.5v36.969c0,4.142,3.358,7.5,7.5,7.5
			c4.142,0,7.5-3.358,7.5-7.5v-36.969c0-1.355,1.047-2.5,2.286-2.5h35.227c16.006,0,29.027-13.021,29.027-29.027
			S489.104,147.667,473.099,147.667z"/>
	</g>
</g>
<g>
	<g>
		<path d="M458.42,62.536h-45.99c-4.142,0-7.5,3.358-7.5,7.5c0,4.142,3.358,7.5,7.5,7.5h45.99c7.735,0,14.027,6.292,14.027,14.027
			c0,7.735-6.292,14.027-14.027,14.027h-50.883c-16.006,0-29.027,13.021-29.027,29.027s13.021,29.028,29.027,29.028h17.614
			c4.142,0,7.5-3.358,7.5-7.5c0-4.142-3.358-7.5-7.5-7.5h-17.614c-7.735,0-14.027-6.293-14.027-14.028s6.292-14.027,14.027-14.027
			h50.883c16.006,0,29.027-13.021,29.027-29.027C487.447,75.557,474.426,62.536,458.42,62.536z"/>
	</g>
</g>
<g>
	<g>
		<path d="M486.124,397.161h-10.742c-5.731-20.383-22.069-36.22-37.971-41.76c-12.645-42.373-34.54-79.276-65.342-110.007
			c-30.489-30.419-69.711-54.852-116.575-72.618c-80.232-30.415-156.051-31.294-164.433-31.294l-0.532,0.002
			c-5.365,0.049-10.625,3.419-13.074,8.193c-12.607-1.509-21.227-1.613-23.258-1.613l-0.303,0.002
			c-5.92,0.058-11.672,4.143-13.677,9.712L8.719,245.273c-1.815,5.043-0.669,11.715,2.724,15.863l16.591,20.284l-14.503,38.743
			c-1.912,5.106-0.735,11.827,2.797,15.979l23.163,27.234l-8.608,33.787H7.5c-4.142,0-7.5,3.358-7.5,7.5c0,4.142,3.358,7.5,7.5,7.5
			h478.624c4.142,0,7.5-3.358,7.5-7.5C493.624,400.519,490.266,397.161,486.124,397.161z M361.475,256.013
			c10.769,10.744,20.374,22.302,28.818,34.629c-31.857-1.74-57.331-27.79-58.18-59.872
			C342.692,238.631,352.492,247.052,361.475,256.013z M23.111,251.708c-0.172-0.327-0.301-1.076-0.247-1.441l31.368-87.132
			c0.03-0.024,0.064-0.049,0.097-0.069c1.374,0.004,7.883,0.086,17.599,1.093l-37.81,101.007L23.111,251.708z M46.362,397.161
			l7.362-28.898H321c4.142,0,7.5-3.358,7.5-7.5c0-4.142-3.358-7.5-7.5-7.5H50.582l-22.754-26.754
			c-0.142-0.282-0.248-0.881-0.209-1.195l63.156-168.716c0.048-0.04,0.108-0.083,0.163-0.114l0.124-0.001
			c8.1,0,81.38,0.851,159.116,30.32c24.79,9.398,47.301,20.721,67.383,33.84c-0.316,2.837-0.49,5.675-0.49,8.477
			c0,42.248,34.371,76.619,76.619,76.619c1.972,0,3.974-0.089,5.984-0.248c8.69,14.93,15.826,30.865,21.35,47.772H364
			c-4.142,0-7.5,3.358-7.5,7.5c0,4.142,3.358,7.5,7.5,7.5h61.675c14.345,0,27.917,15.109,33.704,28.898H46.362z"/>
	</g>
</g>
<g>
	<g>
		<path d="M229.12,434.464H38.22c-4.142,0-7.5,3.358-7.5,7.5c0,4.142,3.358,7.5,7.5,7.5h190.9c4.142,0,7.5-3.358,7.5-7.5
			C236.62,437.821,233.262,434.464,229.12,434.464z"/>
	</g>
</g>
<g>
	<g>
		<path d="M446.352,434.464H273.005c-4.142,0-7.5,3.358-7.5,7.5c0,4.142,3.358,7.5,7.5,7.5h173.347c4.142,0,7.5-3.358,7.5-7.5
			C453.852,437.821,450.494,434.464,446.352,434.464z"/>
	</g>
</g>
<g>
</g>
<g>
</g>
<g>
</g>
<g>
</g>
<g>
</g>
<g>
</g>
<g>
</g>
<g>
</g>
<g>
</g>
<g>
</g>
<g>
</g>
<g>
</g>
<g>
</g>
<g>
</g>
<g>
</g>
</svg>
