<?xml version="1.0" encoding="iso-8859-1"?>
<!-- Generator: Adobe Illustrator 19.0.0, SVG Export Plug-In . SVG Version: 6.00 Build 0)  -->
<svg version="1.1" id="Capa_1" xmlns="http://www.w3.org/2000/svg" xmlns:xlink="http://www.w3.org/1999/xlink" x="0px" y="0px"
	 viewBox="0 0 512 512" style="enable-background:new 0 0 512 512;" xml:space="preserve">
<g>
	<g>
		<path d="M499.5,405.007h-1.823V75.46c0-6.893-5.607-12.5-12.5-12.5h-15.72c-4.924,0-9.178,2.868-11.215,7.015h-53.918
			c-1.059-4.677-5.24-8.184-10.233-8.184H257.465c-4.993,0-9.176,3.506-10.234,8.184h-32.294c-1.059-4.677-5.241-8.184-10.234-8.184
			h-98.046c-4.993,0-9.176,3.506-10.234,8.184H53.756c-2.037-4.146-6.292-7.015-11.215-7.015H26.822c-6.893,0-12.5,5.607-12.5,12.5
			v329.547H12.5c-6.893,0-12.5,5.607-12.5,12.5v20.202c0,6.893,5.607,12.5,12.5,12.5h44.363c6.893,0,12.5-5.607,12.5-12.5v-20.202
			c0-6.893-5.607-12.5-12.5-12.5h-1.822v-237.03h30.915v18.727c0,5.688,4.55,10.324,10.2,10.485v26.925c0,5.789,4.71,10.5,10.5,10.5
			h14.371V276c0,5.79,4.71,10.5,10.5,10.5H168c4.143,0,7.5-3.358,7.5-7.5c0-4.142-3.357-7.5-7.5-7.5h-31.973V160.963h10.411
			c5.045,11.805,16.831,19.874,30.02,19.874s24.975-8.069,30.02-19.874h10.411V271.5H204c-4.143,0-7.5,3.358-7.5,7.5
			c0,4.142,3.357,7.5,7.5,7.5h17.39c5.79,0,10.5-4.71,10.5-10.5v-78.796h15.075v26.91c0,5.789,4.71,10.5,10.5,10.5h22.555v23.403
			c0,5.789,4.71,10.5,10.5,10.5h48.441c5.79,0,10.5-4.711,10.5-10.5v-23.403h9.068v23.403c0,5.789,4.71,10.5,10.5,10.5h48.442
			c5.79,0,10.5-4.711,10.5-10.5v-90.04h28.985v48.022c0,4.142,3.358,7.5,7.5,7.5c4.143,0,7.5-3.358,7.5-7.5V77.96h10.72v327.047
			h-10.72V251c0-4.142-3.357-7.5-7.5-7.5c-4.142,0-7.5,3.358-7.5,7.5v154.007h-1.821c-6.893,0-12.5,5.607-12.5,12.5v20.202
			c0,6.893,5.607,12.5,12.5,12.5H499.5c6.893,0,12.5-5.607,12.5-12.5v-20.202C512,410.614,506.393,405.007,499.5,405.007z
			 M29.322,77.96h10.719v327.047H29.322V77.96z M54.363,435.209H15v-15.202h39.363V435.209z M96.156,145.978
			c-4.436,0.127-8.184,3.011-9.593,6.999H55.041v-28.254h41.115V145.978z M96.156,109.723H55.041V84.975h41.115V109.723z
			 M121.027,219.614h-9.871v-22.41h9.871V219.614z M121.027,182.204h-20.071v-21.241h20.071V182.204z M176.459,165.837
			c-4.63,0-8.94-1.838-12.141-4.874h24.28C185.399,163.999,181.089,165.837,176.459,165.837z M200.202,145.963h-89.046v-21.24
			h89.046V145.963z M200.202,109.723h-89.046V76.791h89.046V109.723z M246.965,182.204H231.89v-21.241h15.075V182.204z
			 M246.965,145.963h-31.763v-21.24h31.763V145.963z M246.965,109.723h-31.763V84.975h31.763V109.723z M280.02,219.614h-18.055
			V195.63c2.992-1.853,4.997-5.155,4.997-8.926v-18.727h13.058V219.614z M280.628,152.978h-14.273
			c-0.804-2.275-2.368-4.189-4.39-5.44v-22.814H335c4.143,0,7.5-3.358,7.5-7.5c0-4.142-3.357-7.5-7.5-7.5h-73.035V76.791h127.626
			v32.932H372c-4.143,0-7.5,3.358-7.5,7.5c0,4.142,3.357,7.5,7.5,7.5h17.591v21.24H290.52
			C285.954,145.963,282.069,148.899,280.628,152.978z M358.529,219.614h-9.068v-11.201h9.068V219.614z M412.972,253.518H373.53
			v-49.604c0-5.79-4.71-10.5-10.5-10.5h-18.068c-5.79,0-10.5,4.71-10.5,10.5v49.604H295.02v-92.555h117.952V253.518z
			 M456.956,152.977h-29.592c-1.441-4.079-5.325-7.015-9.893-7.015H404.59v-21.24h52.366V152.977z M456.957,109.723h-52.366V84.975
			h52.366V109.723z M497,435.209h-39.364v-15.202H497V435.209z"/>
	</g>
</g>
<g>
	<g>
		<path d="M257,435.209H119c-4.143,0-7.5,3.358-7.5,7.5c0,4.142,3.357,7.5,7.5,7.5h138c4.143,0,7.5-3.358,7.5-7.5
			S261.143,435.209,257,435.209z"/>
	</g>
</g>
<g>
	<g>
		<path d="M386,435.209h-87c-4.143,0-7.5,3.358-7.5,7.5c0,4.142,3.357,7.5,7.5,7.5h87c4.143,0,7.5-3.358,7.5-7.5
			S390.143,435.209,386,435.209z"/>
	</g>
</g>
<g>
	<g>
		<path d="M148.05,316.404l-7.621-13.202c-1.671-2.9-4.788-4.702-8.135-4.702c-3.348,0-6.466,1.801-8.132,4.694l-7.625,13.206
			c-2.601,3.425-4.025,7.645-4.025,11.958c0,10.907,8.874,19.781,19.782,19.781c10.906,0,19.779-8.874,19.779-19.78
			C152.073,324.051,150.648,319.832,148.05,316.404z M132.294,333.139c-2.637,0-4.782-2.145-4.782-4.78
			c0-1.097,0.38-2.166,1.069-3.012c0.253-0.311,0.481-0.641,0.682-0.988l3.03-5.248l3.029,5.248
			c0.199,0.346,0.426,0.675,0.678,0.984c0.692,0.851,1.073,1.922,1.073,3.016C137.073,330.995,134.93,333.139,132.294,333.139z"/>
	</g>
</g>
<g>
	<g>
		<path d="M219.374,341.765l-7.621-13.202c-1.671-2.9-4.788-4.702-8.135-4.702c-3.346,0-6.462,1.799-8.132,4.694l-7.625,13.206
			c-2.601,3.424-4.025,7.644-4.025,11.958c0,10.907,8.874,19.78,19.782,19.78c10.906,0.001,19.78-8.873,19.78-19.779
			C223.398,349.412,221.973,345.193,219.374,341.765z M203.618,358.501c-2.637-0.001-4.782-2.146-4.782-4.781
			c0-1.096,0.379-2.164,1.068-3.009c0.254-0.311,0.481-0.642,0.683-0.99l3.03-5.248l3.029,5.248
			c0.199,0.346,0.426,0.675,0.678,0.984c0.692,0.851,1.073,1.922,1.073,3.016C208.397,356.357,206.253,358.501,203.618,358.501z"/>
	</g>
</g>
<g>
	<g>
		<path d="M310.548,301.816l-7.624-13.208c-1.68-2.91-5.013-4.272-8.131-3.572c-3.112-0.7-6.45,0.661-8.131,3.571l-7.626,13.206
			c-2.601,3.425-4.025,7.646-4.025,11.959c0,10.907,8.874,19.78,19.782,19.78c10.907,0,19.78-8.874,19.78-19.78
			C314.573,309.463,313.148,305.244,310.548,301.816z M294.793,318.552c-2.637,0-4.782-2.145-4.782-4.78
			c0-1.096,0.38-2.166,1.069-3.011c0.253-0.311,0.481-0.641,0.682-0.988l3.03-5.248l3.029,5.248
			c0.199,0.346,0.427,0.676,0.679,0.985c0.692,0.85,1.073,1.92,1.073,3.014C299.573,316.408,297.428,318.552,294.793,318.552z"/>
	</g>
</g>
<g>
	<g>
		<path d="M402.915,327.534l-7.62-13.201c-1.67-2.899-4.787-4.701-8.135-4.701c-3.35,0-6.468,1.802-8.131,4.693l-7.625,13.206
			c-2.602,3.424-4.026,7.644-4.026,11.958c0,10.907,8.874,19.78,19.782,19.78c10.906,0,19.779-8.874,19.779-19.78
			C406.939,335.182,405.514,330.963,402.915,327.534z M387.16,344.271c-2.637,0-4.782-2.145-4.782-4.78
			c0-1.096,0.379-2.164,1.068-3.009c0.254-0.311,0.481-0.642,0.683-0.989l3.03-5.248l3.029,5.247
			c0.199,0.345,0.425,0.674,0.677,0.983c0.692,0.852,1.074,1.923,1.074,3.017C391.94,342.126,389.796,344.271,387.16,344.271z"/>
	</g>
</g>
<g>
</g>
<g>
</g>
<g>
</g>
<g>
</g>
<g>
</g>
<g>
</g>
<g>
</g>
<g>
</g>
<g>
</g>
<g>
</g>
<g>
</g>
<g>
</g>
<g>
</g>
<g>
</g>
<g>
</g>
</svg>
