<?xml version="1.0" encoding="iso-8859-1"?>
<!-- Generator: Adobe Illustrator 19.0.0, SVG Export Plug-In . SVG Version: 6.00 Build 0)  -->
<svg version="1.1" id="Capa_1" xmlns="http://www.w3.org/2000/svg" xmlns:xlink="http://www.w3.org/1999/xlink" x="0px" y="0px"
	 viewBox="0 0 512 512" style="enable-background:new 0 0 512 512;" xml:space="preserve">
<g>
	<g>
		<path d="M499.5,336.791h-75.485v-50.92c10.461-12.548,19.495-26.054,26.937-40.421c1.905-3.678,0.468-8.204-3.21-10.109
			c-3.678-1.906-8.205-0.468-10.109,3.21c-4.043,7.805-8.599,15.336-13.618,22.587v-97.419h5.017c6.283,0,11.484-4.665,12.357-10.71
			h18.784c-0.625,16.926-3.367,33.695-8.154,49.863c-1.176,3.972,1.09,8.145,5.062,9.321c0.71,0.21,1.427,0.31,2.132,0.31
			c3.236,0,6.223-2.111,7.188-5.372c5.274-17.811,8.238-36.297,8.808-54.949c0.112-3.699-1.302-7.343-3.872-9.991
			c-2.575-2.658-6.175-4.182-9.877-4.182h-19.928v-2.502h2.751c6.893,0,12.5-5.607,12.5-12.5V76.301c0-6.893-5.607-12.5-12.5-12.5
			H30.931c-6.893,0-12.5,5.607-12.5,12.5v46.705c0,6.893,5.607,12.5,12.5,12.5h2.753v2.502H13.756c-3.702,0-7.302,1.524-9.873,4.177
			c-2.578,2.656-3.991,6.301-3.877,9.998c1.501,49.145,19.482,95.654,51.193,133.701v70.264c0,0.001,0,0.003,0,0.005v41.893
			c0,6.866,5.586,12.452,12.452,12.452h181.877v14.134c0,12.996,10.573,23.568,23.569,23.568h215.384
			c3.034,0,5.768-1.827,6.929-4.63c1.161-2.803,0.519-6.028-1.626-8.173l-60.921-60.923c-1.433-1.433-3.076-2.571-4.849-3.428
			v-19.254h20.44v11.271c0,6.893,5.607,12.5,12.5,12.5H499.5c6.893,0,12.5-5.607,12.5-12.5v-13.771
			C512,342.398,506.393,336.791,499.5,336.791z M51.2,261.134c-22.139-32.008-34.721-69.17-36.157-108.126h18.785
			c0.873,6.045,6.073,10.71,12.357,10.71H51.2V261.134z M66.2,395.496v-36.24l40.953-40.953c2.929-2.929,2.929-7.678,0-10.606
			c-2.929-2.929-7.678-2.929-10.606,0L66.2,338.044V165.28h172.762l-18.82,18.82c-37.667,7.134-67.424,36.891-74.557,74.558
			l-21.888,21.888c-2.929,2.929-2.929,7.678,0,10.606c2.929,2.929,7.678,2.929,10.606,0l9.791-9.792
			c1.081,19.5,8.153,37.425,19.403,51.965l-62.17,62.171H66.2z M122.54,395.497l51.062-51.062c3.145,2.948,6.489,5.685,10.016,8.181
			l-42.881,42.881H122.54z M245.528,395.497H161.95l35.004-35.004c12.303,5.952,26.095,9.292,40.653,9.292
			c2.668,0,5.31-0.115,7.921-0.336V395.497z M257.847,336.791c-6.793,0-12.319,5.527-12.319,12.32v5.272
			c-2.605,0.264-5.247,0.402-7.921,0.402c-43.374,0-78.662-35.288-78.662-78.662c0-43.375,35.288-78.662,78.662-78.662
			s78.663,35.288,78.663,78.662c0,3.967-0.307,7.863-0.882,11.672c-2.457,0.797-4.714,2.158-6.596,4.038l-44.957,44.957
			L257.847,336.791L257.847,336.791z M409.015,336.792h-31.819v-0.001l-44.96-44.96c-0.63-0.63-1.312-1.186-2.02-1.699
			c0.69-4.571,1.054-9.248,1.054-14.008c0-14.558-3.34-28.351-9.292-40.654l70.189-70.188h16.848V336.792z M409.016,351.79v19.046
			h-0.001c-1.943,0.874-3.737,2.087-5.288,3.637l-8.224,8.224V351.79H409.016z M304.3,317.939c-0.067-0.067-0.142-0.126-0.211-0.19
			l15.307-15.308c0.385-0.384,0.821-0.465,1.119-0.465c0.299,0,0.736,0.081,1.118,0.462l17.258,17.258
			c-0.589,0.33-1.137,0.733-1.62,1.212c-1.4,1.4-2.2,3.34-2.2,5.31c0,1.97,0.8,3.91,2.2,5.3c1.4,1.4,3.33,2.2,5.31,2.2
			c1.97,0,3.9-0.8,5.3-2.2c0.48-0.48,0.884-1.028,1.214-1.618l6.888,6.888h-19.801h-51.134l8.452-8.45
			c0.064,0.07,0.123,0.144,0.19,0.211c1.4,1.4,3.33,2.2,5.31,2.2c1.97,0,3.91-0.8,5.3-2.2c1.4-1.4,2.2-3.33,2.2-5.3
			C306.5,321.269,305.7,319.339,304.3,317.939z M314.101,222.132c-2.496-3.526-5.233-6.871-8.181-10.015l46.836-46.837h18.197
			L314.101,222.132z M294.812,202.012c-14.541-11.25-32.466-18.323-51.966-19.403l17.33-17.329h71.368L294.812,202.012z
			 M269.097,433.199c-4.725,0-8.569-3.844-8.569-8.568v-72.84h119.974v45.907l-2.012,2.013l-2.427-2.427
			c-2.63-2.632-6.128-4.082-9.85-4.082c-3.721,0-7.219,1.449-9.85,4.079l-35.917,35.918H269.097z M341.657,433.2l8.539-8.538
			c1.387,1.363,3.294,2.158,5.253,2.158c1.97,0,3.91-0.81,5.3-2.2c1.4-1.4,2.2-3.33,2.2-5.3c0-1.956-0.784-3.863-2.153-5.258
			l5.415-5.416l7.849,7.849c-0.783,0.368-1.507,0.861-2.122,1.476c-1.4,1.4-2.2,3.33-2.2,5.31c0,1.97,0.8,3.9,2.2,5.3
			c1.39,1.39,3.32,2.19,5.3,2.19c1.97,0,3.9-0.8,5.3-2.19c0.619-0.619,1.112-1.345,1.479-2.128l6.747,6.747H341.657z
			 M435.229,402.052c-1.454,0.287-2.818,1-3.869,2.058c-1.4,1.39-2.2,3.33-2.2,5.3c0,1.97,0.8,3.91,2.2,5.3
			c1.39,1.4,3.33,2.2,5.3,2.2c1.97,0,3.91-0.8,5.3-2.2c1.058-1.05,1.771-2.415,2.058-3.869l22.357,22.358H411.98l-8.992-8.992
			c0.863-0.372,1.66-0.899,2.332-1.567c1.4-1.4,2.2-3.33,2.2-5.31c0-1.97-0.8-3.9-2.2-5.3c-1.4-1.4-3.33-2.2-5.3-2.2
			c-1.98,0-3.91,0.8-5.31,2.2c-0.668,0.672-1.195,1.469-1.567,2.332l-4.046-4.046l25.236-25.236
			c0.706-0.706,1.532-0.811,1.962-0.811s1.256,0.105,1.963,0.811L435.229,402.052z M48.684,148.719v-13.213H351
			c4.142,0,7.5-3.358,7.5-7.5c0-4.142-3.358-7.5-7.5-7.5H33.431V78.801h408.352v41.705H391c-4.142,0-7.5,3.358-7.5,7.5
			c0,4.142,3.358,7.5,7.5,7.5h35.531v13.213H48.684z M497,360.561h-37.545v-8.771H497V360.561z"/>
	</g>
</g>
<g>
	<g>
		<path d="M327.08,312.99c-1.4-1.39-3.33-2.19-5.3-2.19c-1.98,0-3.91,0.8-5.31,2.19c-1.39,1.4-2.19,3.33-2.19,5.31
			c0,1.97,0.8,3.9,2.19,5.3c1.4,1.4,3.33,2.2,5.31,2.2c1.97,0,3.9-0.8,5.3-2.2c1.4-1.4,2.2-3.33,2.2-5.3
			C329.28,316.32,328.48,314.39,327.08,312.99z"/>
	</g>
</g>
<g>
	<g>
		<path d="M421.16,393.21c-1.39-1.39-3.32-2.19-5.3-2.19c-1.97,0-3.91,0.8-5.3,2.19c-1.4,1.4-2.2,3.33-2.2,5.31
			c0,1.97,0.8,3.9,2.2,5.3c1.39,1.4,3.329,2.2,5.3,2.2c1.98,0,3.91-0.8,5.3-2.2c1.4-1.4,2.2-3.33,2.2-5.3
			C423.36,396.54,422.56,394.61,421.16,393.21z"/>
	</g>
</g>
<g>
</g>
<g>
</g>
<g>
</g>
<g>
</g>
<g>
</g>
<g>
</g>
<g>
</g>
<g>
</g>
<g>
</g>
<g>
</g>
<g>
</g>
<g>
</g>
<g>
</g>
<g>
</g>
<g>
</g>
</svg>
