<?xml version="1.0" encoding="iso-8859-1"?>
<!-- Generator: Adobe Illustrator 19.0.0, SVG Export Plug-In . SVG Version: 6.00 Build 0)  -->
<svg version="1.1" id="Capa_1" xmlns="http://www.w3.org/2000/svg" xmlns:xlink="http://www.w3.org/1999/xlink" x="0px" y="0px"
	 viewBox="0 0 512 512" style="enable-background:new 0 0 512 512;" xml:space="preserve">
<g>
	<g>
		<path d="M165.755,461.687h-64.087c-4.142,0-7.5,3.358-7.5,7.5c0,4.142,3.357,7.5,7.5,7.5h64.087c4.142,0,7.5-3.358,7.5-7.5
			C173.255,465.045,169.897,461.687,165.755,461.687z"/>
	</g>
</g>
<g>
	<g>
		<path d="M248.125,192.976c-14.004,0-25.398,11.393-25.398,25.396c0,14.004,11.394,25.397,25.398,25.397
			c14.003,0,25.396-11.393,25.396-25.397C273.521,204.368,262.128,192.976,248.125,192.976z M248.125,228.769
			c-5.733,0-10.398-4.664-10.398-10.397c0-5.732,4.665-10.396,10.398-10.396c5.732,0,10.396,4.664,10.396,10.396
			C258.521,224.105,253.857,228.769,248.125,228.769z"/>
	</g>
</g>
<g>
	<g>
		<path d="M276.759,257.403c-11.635,0-21.101,9.466-21.101,21.103c0,11.635,9.466,21.102,21.101,21.102s21.101-9.466,21.101-21.102
			S288.395,257.403,276.759,257.403z M276.759,284.607c-3.364,0-6.101-2.737-6.101-6.102s2.737-6.103,6.101-6.103
			s6.101,2.738,6.101,6.103S280.124,284.607,276.759,284.607z"/>
	</g>
</g>
<g>
	<g>
		<path d="M126.31,365.7h-21.642c-5.79,0-10.5,4.71-10.5,10.5v26.958c0,5.79,4.71,10.5,10.5,10.5h21.642c5.79,0,10.5-4.71,10.5-10.5
			V376.2C136.81,370.41,132.1,365.7,126.31,365.7z M121.81,398.658h-12.642V380.7h12.642V398.658z"/>
	</g>
</g>
<g>
	<g>
		<path d="M415.755,31h-96.016c-5.789,0-10.5,4.71-10.5,10.5v34.545c0,5.79,4.711,10.5,10.5,10.5h96.016c5.79,0,10.5-4.71,10.5-10.5
			V41.5C426.255,35.71,421.544,31,415.755,31z M324.239,71.545V46h87.016v25.545H324.239z"/>
	</g>
</g>
<g>
	<g>
		<path d="M257.307,31c-15.314,0-27.773,12.458-27.773,27.772c0,15.314,12.458,27.772,27.773,27.772
			c15.314,0,27.771-12.458,27.771-27.772C285.079,43.458,272.621,31,257.307,31z M257.307,71.545
			c-7.043,0-12.773-5.729-12.773-12.772c0-7.043,5.73-12.772,12.773-12.772c7.042,0,12.771,5.729,12.771,12.772
			C270.079,65.815,264.349,71.545,257.307,71.545z"/>
	</g>
</g>
<g>
	<g>
		<path d="M164.192,33.231H94.219c-4.142,0-7.5,3.358-7.5,7.5v18.254c0,12.523,10.188,22.711,22.711,22.711h39.55
			c12.523,0,22.712-10.188,22.712-22.711V40.731C171.692,36.589,168.334,33.231,164.192,33.231z M156.692,58.985
			c0,4.252-3.46,7.711-7.712,7.711h-39.55c-4.252,0-7.711-3.459-7.711-7.711V48.231h54.973V58.985z"/>
	</g>
</g>
<g>
	<g>
		<path d="M448.26,384.5c-4.142,0-7.5,3.358-7.5,7.5v32.413H71.239V175.574h51.671c-13.887,23.216-21.882,50.344-21.882,79.307
			c0,85.452,69.52,154.971,154.971,154.971s154.97-69.52,154.97-154.971c0-28.963-7.995-56.091-21.882-79.307h51.672V358
			c0,4.142,3.358,7.5,7.5,7.5c4.142,0,7.5-3.358,7.5-7.5V175.574v-43.743V28.763C455.759,12.903,442.856,0,426.996,0H85.002
			c-15.86,0-28.763,12.903-28.763,28.763v103.068v43.743v315.847c0,11.347,9.231,20.579,20.579,20.579h358.363
			c11.347,0,20.579-9.231,20.579-20.579V392C455.76,387.858,452.402,384.5,448.26,384.5z M395.969,254.881
			c0,77.18-62.791,139.971-139.97,139.971c-77.18,0-139.971-62.791-139.971-139.971s62.79-139.97,139.971-139.97
			C333.179,114.911,395.969,177.702,395.969,254.881z M440.76,160.574L440.76,160.574h-61.88c-3.701-4.812-7.678-9.4-11.907-13.743
			h73.787V160.574z M71.239,28.763C71.239,21.175,77.413,15,85.002,15h103.334v23c0,4.142,3.358,7.5,7.5,7.5
			c4.142,0,7.5-3.358,7.5-7.5V15h223.66c7.589,0,13.763,6.175,13.763,13.763v103.068h-90.673
			c-26.106-20.009-58.729-31.92-94.087-31.92c-18.481,0-36.214,3.258-52.663,9.219V71c0-4.142-3.358-7.5-7.5-7.5
			c-4.142,0-7.5,3.358-7.5,7.5v44.483c-9.375,4.569-18.22,10.06-26.424,16.348H71.239V28.763z M71.239,146.831h73.786
			c-4.229,4.342-8.206,8.931-11.907,13.743H71.239V146.831z M400.53,497h-71.321v-28.161h71.321V497z M440.759,439.413v52.009
			c0,3.076-2.503,5.579-5.579,5.579h-19.65V467.88c0-7.742-6.298-14.04-14.039-14.04h-73.242c-7.742,0-14.04,6.298-14.04,14.04V497
			H76.817c-3.076,0-5.579-2.502-5.579-5.579v-52.009L440.759,439.413L440.759,439.413z"/>
	</g>
</g>
<g>
	<g>
		<path d="M367.545,247.381c-4.142,0-7.5,3.358-7.5,7.5c0,20.852-6.17,40.287-16.774,56.585
			c-10.99-16.831-16.774-36.195-16.774-56.585c0-20.393,5.787-39.76,16.781-56.594c5.228,8.037,9.356,16.774,12.174,25.921
			c1.219,3.958,5.414,6.179,9.375,4.96c3.958-1.219,6.179-5.417,4.959-9.376c-7.332-23.805-22.401-45.187-42.43-60.207
			c-20.718-15.537-45.393-23.749-71.357-23.749c-65.642,0-119.046,53.403-119.046,119.045s53.404,119.046,119.046,119.046
			c65.642,0,119.046-53.404,119.046-119.046C375.045,250.739,371.687,247.381,367.545,247.381z M283.089,355.344
			c-8.641,2.333-17.721,3.585-27.09,3.585c-57.37-0.002-104.045-46.677-104.045-104.048c0-7.007,0.701-13.853,2.028-20.475
			c4.23-2.302,8.955-3.523,13.833-3.523c15.996,0,29.01,13.014,29.01,29.01c0,1.481-0.111,2.962-0.331,4.403
			c-0.367,2.402,0.454,4.834,2.201,6.523c1.747,1.689,4.204,2.43,6.594,1.98c1.417-0.266,2.741-0.395,4.046-0.395
			c12.049,0,21.853,9.802,21.853,21.851c0,6.765-3.083,13.046-8.458,17.231c-1.96,1.526-3.037,3.923-2.876,6.402
			s1.538,4.717,3.677,5.978c4.338,2.556,8.146,5.833,11.319,9.742c1.375,1.694,3.42,2.705,5.602,2.77
			c2.158,0.066,4.282-0.824,5.755-2.435c4.207-4.599,9.926-7.131,16.104-7.131c12.048,0,21.85,9.802,21.85,21.851
			C284.16,350.946,283.795,353.182,283.089,355.344z M299.13,349.556c0.007-0.299,0.03-0.595,0.03-0.895
			c0-20.319-16.531-36.851-36.85-36.851c-7.577,0-14.945,2.374-21.091,6.673c-0.781-0.733-1.581-1.442-2.402-2.129
			c4.754-6.301,7.369-13.992,7.369-22.1c0-19.505-15.234-35.519-34.429-36.772c-1.255-23.15-20.486-41.599-43.944-41.599
			c-2.919,0-5.802,0.295-8.62,0.855c15.246-38.557,52.892-65.902,96.805-65.902c22.694,0,44.257,7.175,62.358,20.749
			c5.579,4.184,10.712,8.936,15.332,14.135c-14.529,20.255-22.191,44.031-22.191,69.161c0,25.124,7.658,48.893,22.179,69.142
			C324.111,334.757,312.36,343.502,299.13,349.556z"/>
	</g>
</g>
<g>
	<g>
		<path d="M158.443,91.405H99.969c-4.142,0-7.5,3.358-7.5,7.5c0,4.142,3.358,7.5,7.5,7.5h58.474c4.142,0,7.5-3.358,7.5-7.5
			C165.943,94.763,162.585,91.405,158.443,91.405z"/>
	</g>
</g>
<g>
</g>
<g>
</g>
<g>
</g>
<g>
</g>
<g>
</g>
<g>
</g>
<g>
</g>
<g>
</g>
<g>
</g>
<g>
</g>
<g>
</g>
<g>
</g>
<g>
</g>
<g>
</g>
<g>
</g>
</svg>
